<svg viewBox="0 0 417 646" xmlns="http://www.w3.org/2000/svg" fill-rule="evenodd" clip-rule="evenodd" stroke-linecap="round" stroke-linejoin="round" stroke-miterlimit="1.5"><path fill="none" d="M0 0h416.667v645.833H0z"/><g fill="none" stroke="#F94643" stroke-width="16.67"><path d="M403.028 12.5H43.639c-16.569 0-30 13.431-30 30v566.409a25 25 0 0025 25h364.389V12.5z"/><path d="M114.687 97.358H43.509c-16.497 0-29.87-13.373-29.87-29.87V42.37c0-16.497 13.373-29.87 29.87-29.87h359.519v84.858H256.432s-.968 140.393-.968 187.1a6.251 6.251 0 01-10.67 4.419l-54.345-54.362a6.25 6.25 0 00-8.743-.096l-57.454 55.009a6.25 6.25 0 01-10.573-4.514c0-46.252 1.008-187.556 1.008-187.556zM69.387 97.358v536.551"/><path d="M69.387 97.358h45.3l21.659-28.596h140.898l-20.812 28.596"/></g></svg>