<?xml version="1.0" standalone="no"?>
<!DOCTYPE svg PUBLIC "-//W3C//DTD SVG 20010904//EN"
 "http://www.w3.org/TR/2001/REC-SVG-20010904/DTD/svg10.dtd">
<svg version="1.0" xmlns="http://www.w3.org/2000/svg"
 width="1000.000000pt" height="1000.000000pt" viewBox="0 0 1000.000000 1000.000000"
 preserveAspectRatio="xMidYMid meet">
<metadata>
Created by potrace 1.11, written by Peter Selinger 2001-2013
</metadata>
<g transform="translate(0.000000,1000.000000) scale(0.100000,-0.100000)"
fill="#000000" stroke="none">
<path d="M4818 9105 c-2 -2 -50 -6 -108 -9 -580 -35 -1227 -230 -1740 -525
-191 -110 -423 -270 -576 -397 -641 -532 -1104 -1229 -1333 -2010 -32 -107
-87 -340 -102 -424 -7 -41 -13 -77 -14 -80 -1 -3 -5 -34 -9 -70 -5 -36 -10
-72 -11 -80 -4 -24 -14 -119 -21 -205 -14 -162 -6 -655 11 -745 2 -9 6 -41 10
-71 11 -102 46 -304 65 -379 10 -41 21 -86 23 -100 14 -77 103 -358 158 -499
33 -85 34 -86 83 -194 20 -43 36 -80 36 -82 0 -5 125 -241 165 -310 81 -142
313 -474 375 -535 3 -3 30 -34 60 -70 391 -466 959 -877 1550 -1120 253 -104
595 -204 838 -245 67 -11 142 -22 212 -30 25 -3 61 -8 80 -10 135 -18 557 -27
690 -14 41 3 116 10 165 14 50 4 92 8 95 10 3 1 32 6 65 10 33 3 78 10 100 15
38 8 97 19 140 25 11 2 47 10 80 18 33 9 71 18 85 21 50 9 242 66 352 104 540
188 1034 485 1451 872 72 67 230 228 283 290 21 25 41 47 44 50 43 39 253 322
343 461 219 342 428 818 512 1169 45 186 84 392 101 530 4 30 8 66 10 80 23
191 23 728 -1 873 -2 12 -11 76 -20 142 -9 66 -20 136 -25 155 -5 19 -11 51
-13 70 -3 19 -23 107 -45 196 -103 406 -254 765 -487 1152 -51 85 -183 276
-234 338 -14 18 -36 45 -48 60 -22 29 -28 37 -111 134 -130 152 -320 338 -472
463 -41 34 -77 64 -80 67 -3 3 -43 34 -90 68 -47 34 -90 66 -97 71 -51 44
-319 207 -443 270 -47 24 -89 47 -95 51 -33 26 -352 158 -515 213 -160 55
-417 121 -570 148 -41 7 -77 13 -80 14 -3 1 -34 5 -70 10 -36 4 -72 9 -80 10
-68 10 -134 17 -185 21 -66 5 -503 13 -507 9z"/>
</g>
</svg>
