<svg viewBox="0 0 143 36" fill="currentColor" xmlns="http://www.w3.org/2000/svg"><path fill-rule="evenodd" clip-rule="evenodd" d="M.404 8.245L15.821.259l15.583 7.986-15.583 8.014L.404 8.245zm92.554 3.883v-.19c0-2.635 1.55-3.477 4.16-3.287V3.844c-6.253-.38-9.216 2.743-9.216 8.094v.19h-2.827v4.807h2.827v14.557h5.056V16.935h5.817v14.557h5.056V16.935h4.159v-4.807h-4.159v-.19c0-2.635 1.523-3.477 4.159-3.287V3.844c-6.252-.38-9.215 2.743-9.215 8.094v.19h-5.817zM57.62 17.396c1.604-1.277 2.582-3.096 2.582-5.432 0-4.535-3.697-7.631-8.345-7.631H41.065v27.104h11.662c4.757 0 8.562-3.205 8.562-7.849-.054-2.797-1.467-4.943-3.67-6.192zm-5.736-8.04c1.74 0 2.936 1.277 2.936 2.988s-1.25 2.988-2.936 2.988h-5.41V9.357h5.41zm.816 17.11h-6.225v-6.381H52.7c1.848 0 3.18 1.358 3.18 3.177 0 1.847-1.332 3.205-3.18 3.205zM77.056 12.1v10.456c0 3.367-1.849 4.807-4.322 4.807-2.284 0-3.888-1.358-3.888-3.992V12.1H63.79v11.895c0 5.16 3.235 8.012 7.421 8.012 2.637 0 4.676-.978 5.817-2.716v2.173h5.057V12.1h-5.03zm51.893 11.733h-14.788c.734 2.553 2.854 3.639 5.491 3.639 1.984 0 3.561-.815 4.404-1.928l4.077 2.308c-1.821 2.635-4.757 4.155-8.535 4.155-6.579 0-10.738-4.453-10.738-10.238 0-5.785 4.186-10.24 10.357-10.24 5.79 0 9.922 4.536 9.922 10.24 0 .76-.082 1.412-.19 2.064zm-9.732-7.768c-2.718 0-4.567 1.44-5.138 3.911h10.004c-.625-2.797-2.746-3.91-4.866-3.91zm17.234-.624v-3.34h-5.056v19.364h5.056v-9.262c0-4.073 3.317-5.241 5.954-4.915V11.72c-2.474 0-4.948 1.087-5.954 3.721zM15.821 29.962L5.303 24.26.404 26.907l15.417 8.352 15.583-8.352-4.954-2.648-10.629 5.703zM5.303 15.26l10.518 5.172L26.45 15.26l4.954 2.414-15.583 7.586L.404 17.673l4.9-2.414z"/></svg>