<svg width="197" height="38" xmlns="http://www.w3.org/2000/svg"><g fill="none" fill-rule="evenodd"><circle fill="#4742DE" cx="19" cy="19" r="19"/><g fill="#FFF"><path d="M18.613 9.574c.411 0 .744-.333.744-.743V7.84a.743.743 0 00-1.487 0v.99c0 .411.333.744.743.744zM29.27 16.266h-.991a.743.743 0 100 1.487h.99a.743.743 0 000-1.487zM10.187 17.01a.743.743 0 00-.743-.744h-.991a.743.743 0 100 1.487h.99c.411 0 .744-.333.744-.744zM25.518 12.082a.743.743 0 00.525-.218l.704-.699a.743.743 0 00-1.05-1.05l-.705.698a.743.743 0 00.526 1.27zM12.234 10.813l-.703-.698a.743.743 0 00-1.051 1.05l.704.7a.743.743 0 001.05-1.052zM27.04 22.71a.743.743 0 00-1.051 1.05l.704.699a.743.743 0 001.05-1.051l-.704-.699zM10.187 22.71l-.704.698a.743.743 0 001.051 1.05l.704-.698a.743.743 0 00-1.05-1.05zM25.8 18.248a6.94 6.94 0 10-10.16 6.136c-.155.24-.238.518-.238.803v1.487a2.974 2.974 0 002.973 2.974h.992a2.974 2.974 0 002.974-2.974v-1.487c-.001-.285-.084-.563-.238-.803a6.94 6.94 0 003.697-6.136zm-4.956 6.94v.495h-2.478a.743.743 0 100 1.487h2.389c-.21.593-.77.99-1.398.991h-.991a1.487 1.487 0 01-1.487-1.487v-1.487h3.965zM18.86 23.7a5.452 5.452 0 11.01-10.904 5.452 5.452 0 01-.015 10.904h.005z"/><path d="M18.861 14.035a.743.743 0 000 1.487 2.731 2.731 0 012.726 2.726.743.743 0 001.487 0 4.218 4.218 0 00-4.213-4.213z"/></g><path d="M136.51 25h-7.547V12.947h7.548v2.21h-5.202v2.754h4.709v2.091h-4.71v2.788h5.203V25zm.374 0l2.975-4.199-2.976-4.165h2.686c.103.147.383.558.842 1.233.459.674.734 1.09.825 1.249l1.649-2.482h2.567l-2.924 4.097L145.554 25H142.9l-1.75-2.567c-.057.09-.219.334-.485.731A2778.562 2778.562 0 01139.434 25h-2.55zm8.686-2.278c0-.714.232-1.286.697-1.717.464-.43 1.065-.703 1.802-.816l2.056-.306c.42-.057.63-.255.63-.595a.975.975 0 00-.366-.782c-.244-.204-.592-.306-1.046-.306-.476 0-.852.13-1.13.391-.278.26-.433.584-.468.969l-2.006-.425c.08-.725.437-1.366 1.071-1.921.635-.555 1.474-.833 2.517-.833 1.246 0 2.164.297 2.754.892.589.596.883 1.358.883 2.287v4.114c0 .499.035.94.102 1.326h-2.073c-.057-.25-.085-.584-.085-1.003-.533.827-1.355 1.241-2.465 1.241-.862 0-1.556-.25-2.083-.748-.527-.499-.79-1.088-.79-1.768zm3.349.833c.532 0 .971-.15 1.317-.45.346-.3.519-.797.519-1.488v-.374l-1.887.289c-.692.102-1.037.453-1.037 1.054 0 .272.096.501.288.689.193.187.46.28.8.28zM156.702 25h-2.26v-8.364h2.158v1.02c.216-.385.556-.691 1.02-.918.465-.227.941-.34 1.428-.34 1.213 0 2.04.465 2.482 1.394.601-.93 1.485-1.394 2.653-1.394.85 0 1.566.266 2.15.799.584.533.875 1.326.875 2.38V25h-2.192v-4.964c0-.476-.122-.858-.366-1.148-.244-.289-.615-.433-1.114-.433-.464 0-.838.159-1.121.476-.284.317-.425.708-.425 1.173V25h-2.245v-4.964c0-.476-.124-.858-.374-1.148-.249-.289-.617-.433-1.105-.433-.476 0-.855.156-1.138.468-.284.311-.425.705-.425 1.181V25zm14.262 3.23h-2.26V16.636h2.192v1.02c.205-.34.533-.626.987-.858.453-.233.98-.349 1.58-.349 1.19 0 2.131.405 2.822 1.215.692.81 1.037 1.856 1.037 3.137 0 1.28-.365 2.335-1.096 3.162-.731.827-1.68 1.241-2.847 1.241-1.111 0-1.916-.34-2.415-1.02v4.046zm3.536-5.678c.397-.43.595-1.009.595-1.734 0-.725-.195-1.298-.586-1.717-.391-.42-.887-.629-1.487-.629-.601 0-1.1.212-1.496.637-.397.426-.595.995-.595 1.709 0 .714.198 1.286.595 1.717.396.43.895.646 1.496.646.6 0 1.093-.21 1.478-.629zM180.57 25h-2.261V12.692h2.26V25zm3.263-5.134h3.74a1.737 1.737 0 00-.502-1.173c-.312-.317-.768-.476-1.369-.476-.544 0-.985.17-1.326.51-.34.34-.52.72-.543 1.139zm3.96 2.176l1.887.561a3.606 3.606 0 01-1.334 1.904c-.663.499-1.487.748-2.474.748-1.2 0-2.22-.405-3.06-1.215-.838-.81-1.258-1.896-1.258-3.256 0-1.292.408-2.349 1.225-3.17.816-.822 1.779-1.233 2.89-1.233 1.292 0 2.303.385 3.034 1.156.731.77 1.096 1.83 1.096 3.179 0 .09-.002.193-.008.306a5.72 5.72 0 00-.008.272l-.017.119h-5.984c.022.544.237.997.645 1.36.409.363.896.544 1.463.544.963 0 1.597-.425 1.904-1.275zm2.278.629l1.938-.425c.022.363.167.666.433.91.266.243.632.365 1.096.365.352 0 .624-.08.816-.238a.74.74 0 00.29-.595c0-.42-.3-.691-.901-.816l-1.106-.255c-.782-.17-1.368-.476-1.759-.918a2.306 2.306 0 01-.586-1.581c0-.76.297-1.405.892-1.938.595-.533 1.34-.799 2.236-.799.566 0 1.065.082 1.496.247.43.164.764.373 1.002.628.239.256.42.513.544.774.125.26.205.516.239.765l-1.887.425a1.407 1.407 0 00-.4-.782c-.221-.227-.547-.34-.977-.34-.295 0-.547.08-.757.238-.21.159-.315.357-.315.595 0 .408.255.657.766.748l1.19.255c.804.17 1.419.482 1.844.935.425.453.638.997.638 1.632 0 .748-.284 1.394-.85 1.938-.567.544-1.366.816-2.398.816-.589 0-1.116-.088-1.58-.264-.465-.175-.825-.402-1.08-.68a3.356 3.356 0 01-.578-.832 2.738 2.738 0 01-.246-.808zM61.673 25h-2.312v-8.449L55.893 25h-1.955l-3.468-8.381V25h-2.244V12.947h3.094l3.621 8.704 3.536-8.704h3.196V25zm1.24-2.278c0-.714.232-1.286.697-1.717.465-.43 1.065-.703 1.802-.816l2.057-.306c.42-.057.629-.255.629-.595a.975.975 0 00-.365-.782c-.244-.204-.593-.306-1.046-.306-.476 0-.853.13-1.13.391-.278.26-.434.584-.468.969l-2.006-.425c.08-.725.436-1.366 1.071-1.921.635-.555 1.473-.833 2.516-.833 1.247 0 2.165.297 2.754.892.59.596.884 1.358.884 2.287v4.114c0 .499.034.94.102 1.326h-2.074c-.057-.25-.085-.584-.085-1.003-.533.827-1.354 1.241-2.465 1.241-.861 0-1.555-.25-2.083-.748-.527-.499-.79-1.088-.79-1.768zm3.349.833c.533 0 .972-.15 1.317-.45.346-.3.519-.797.519-1.488v-.374l-1.887.289c-.691.102-1.037.453-1.037 1.054 0 .272.096.501.289.689.193.187.459.28.799.28zm10.624-6.953v2.278a3.46 3.46 0 00-.68-.068c-.646 0-1.167.184-1.564.552-.397.369-.595.972-.595 1.811V25h-2.261v-8.364h2.193v1.241c.408-.873 1.201-1.309 2.38-1.309.125 0 .3.011.527.034zm8.907.034l-3.349 3.519L85.861 25H83.09l-2.21-3.196-.935.986V25h-2.261V12.692h2.261v7.055l2.89-3.111h2.958zm1.869 3.23h3.74a1.737 1.737 0 00-.502-1.173c-.311-.317-.767-.476-1.368-.476-.544 0-.986.17-1.326.51-.34.34-.521.72-.544 1.139zm3.961 2.176l1.887.561a3.606 3.606 0 01-1.335 1.904c-.663.499-1.487.748-2.473.748-1.201 0-2.221-.405-3.06-1.215s-1.258-1.896-1.258-3.256c0-1.292.408-2.349 1.224-3.17.816-.822 1.78-1.233 2.89-1.233 1.292 0 2.303.385 3.034 1.156.732.77 1.097 1.83 1.097 3.179 0 .09-.003.193-.008.306a5.72 5.72 0 00-.009.272l-.017.119h-5.984c.023.544.238.997.646 1.36.408.363.895.544 1.462.544.963 0 1.598-.425 1.904-1.275zm5.779-7.905v2.499h1.683v2.006h-1.683v3.502c0 .351.08.6.238.748.159.147.408.221.748.221.306 0 .538-.023.697-.068v1.87c-.329.136-.754.204-1.275.204-.816 0-1.462-.23-1.938-.689-.476-.459-.714-1.09-.714-1.895v-3.893h-1.513v-2.006h.425c.42 0 .74-.122.96-.366.222-.243.332-.563.332-.96v-1.173h2.04zM102.467 25h-2.261v-8.364h2.261V25zm-2.533-11.101c0-.385.136-.717.408-.994.272-.278.6-.417.986-.417.385 0 .714.136.986.408.272.272.408.606.408 1.003 0 .374-.136.697-.408.969-.272.272-.6.408-.986.408-.385 0-.714-.136-.986-.408a1.324 1.324 0 01-.408-.969zm6.408 6.29V25h-2.261v-8.364h2.193v1.037c.238-.408.578-.72 1.02-.935a3.143 3.143 0 011.394-.323c.986 0 1.737.309 2.252.927.516.617.774 1.413.774 2.388V25h-2.261v-4.879c0-.499-.127-.901-.383-1.207-.255-.306-.643-.459-1.164-.459-.476 0-.856.164-1.139.493-.283.329-.425.742-.425 1.241zm6.272 5.27l2.04-.544c.08.465.295.844.646 1.139.351.295.788.442 1.309.442 1.485 0 2.227-.776 2.227-2.329v-.612c-.193.306-.487.561-.884.765-.397.204-.878.306-1.445.306-1.11 0-2.037-.385-2.78-1.156-.742-.77-1.113-1.74-1.113-2.907 0-1.133.368-2.097 1.105-2.89.737-.793 1.666-1.19 2.788-1.19.612 0 1.122.11 1.53.331.408.222.691.49.85.808v-.986h2.176v7.463c0 1.258-.363 2.303-1.088 3.136-.725.834-1.825 1.25-3.298 1.25-1.1 0-2.02-.295-2.763-.884-.742-.59-1.175-1.303-1.3-2.142zm4.284-2.771c.578 0 1.051-.193 1.42-.578.368-.385.552-.901.552-1.547 0-.635-.19-1.145-.57-1.53a1.892 1.892 0 00-1.402-.578c-.578 0-1.057.193-1.436.578-.38.385-.57.895-.57 1.53 0 .646.187 1.162.561 1.547.374.385.856.578 1.445.578z" fill="#000" fill-rule="nonzero"/></g></svg>