<svg height="220" width="220px;" xmlns="http://www.w3.org/2000/svg" viewBox="0 0 706.8 706.8"><style>.st0{fill:#3f778b}.st1,.st2{fill:#1d2b3b}.st2{fill-rule:evenodd;clip-rule:evenodd}.st3,.st4{fill:#5a646d}.st4{fill-rule:evenodd;clip-rule:evenodd}</style><g id="Layer_1"><path class="st1" d="M567.9 234.3h-.4c-1-.2-1.7-1.3-1.4-2.3.2-.9.3-1.8.3-2.8 0-6.7-5.5-12.2-12.2-12.2-4.4 0-8.5 2.4-10.7 6.3-.5.9-1.7 1.3-2.6.7-.9-.5-1.3-1.7-.7-2.6 2.8-5.1 8.2-8.3 14-8.3 8.8 0 16 7.2 16 16 0 1.2-.1 2.5-.4 3.6-.2 1-1 1.6-1.9 1.6z"/><path class="st1" d="M526.6 234.3c-1.1 0-1.9-.9-1.9-1.9 0-7.1 5.8-12.8 12.8-12.8 1.8 0 3.5.3 5.1 1 1 .4 1.4 1.5 1 2.5s-1.5 1.4-2.5 1c-1.1-.5-2.3-.7-3.6-.7-5 0-9 4-9 9 0 1.1-.9 1.9-1.9 1.9z"/><path class="st1" d="M567.9 234.3h-41.4c-1.1 0-1.9-.9-1.9-1.9 0-1.1.9-1.9 1.9-1.9h41.4c1.1 0 1.9.9 1.9 1.9 0 1.1-.8 1.9-1.9 1.9zM430.3 145.1c-.9 0-1.6-.6-1.9-1.5-.3-1.2-.4-2.4-.4-3.6 0-8.8 7.2-16 16-16 5.8 0 11.2 3.2 14 8.3.5.9.2 2.1-.7 2.6s-2.1.2-2.6-.7c-2.2-3.9-6.3-6.3-10.7-6.3-6.7 0-12.2 5.5-12.2 12.2 0 .9.1 1.9.3 2.8.2 1-.4 2-1.4 2.3-.1-.1-.2-.1-.4-.1z"/><path class="st1" d="M471.7 145.1c-1.1 0-1.9-.9-1.9-1.9 0-5-4-9-9-9-1.2 0-2.4.2-3.6.7-1 .4-2.1 0-2.5-1s0-2.1 1-2.5c1.6-.7 3.3-1 5-1 7.1 0 12.8 5.8 12.8 12.8.1 1.1-.8 1.9-1.8 1.9z"/><path class="st1" d="M471.7 145.1h-41.4c-1.1 0-1.9-.9-1.9-1.9 0-1.1.9-1.9 1.9-1.9h41.4c1.1 0 1.9.9 1.9 1.9 0 1.1-.9 1.9-1.9 1.9zM477.3 201c-.7 0-1.3-.4-1.7-1-2.2-3.9-6.3-6.3-10.7-6.3-3.9 0-7.4 1.8-9.7 4.8-.6.8-1.8 1-2.7.4s-1-1.8-.4-2.7c3.1-4 7.7-6.3 12.8-6.3 5.8 0 11.2 3.2 14 8.3.5.9.2 2.1-.7 2.6-.3.1-.6.2-.9.2z"/><path class="st1" d="M492.5 211c-1.1 0-1.9-.9-1.9-1.9 0-5-4-9-9-9-1.2 0-2.4.2-3.6.7-1 .4-2.1 0-2.5-1s0-2.1 1-2.5c1.6-.7 3.3-1 5-1 7.1 0 12.8 5.8 12.8 12.8.1 1.1-.7 1.9-1.8 1.9z"/><path class="st1" d="M492.5 211h-27.1c-1.1 0-1.9-.9-1.9-1.9 0-1.1.9-1.9 1.9-1.9h27.1c1.1 0 1.9.9 1.9 1.9 0 1.1-.8 1.9-1.9 1.9zM139.1 235.9c-.9 0-1.6-.6-1.9-1.5-.3-1.2-.4-2.4-.4-3.6 0-8.8 7.2-16 16-16 5.8 0 11.2 3.2 14 8.3.5.9.2 2.1-.7 2.6-.9.5-2.1.2-2.6-.7-2.2-3.9-6.3-6.3-10.7-6.3-6.7 0-12.2 5.5-12.2 12.2 0 .9.1 1.9.3 2.8.2 1-.4 2-1.4 2.3-.1-.2-.2-.1-.4-.1z"/><path class="st1" d="M180.5 235.9c-1.1 0-1.9-.9-1.9-1.9 0-5-4-9-9-9-1.2 0-2.4.2-3.6.7-1 .4-2.1 0-2.5-1s0-2.1 1-2.5c1.6-.7 3.3-1 5.1-1 7.1 0 12.8 5.8 12.8 12.8 0 1-.9 1.9-1.9 1.9z"/><path class="st1" d="M180.5 235.9h-41.4c-1.1 0-1.9-.9-1.9-1.9 0-1.1.9-1.9 1.9-1.9h41.4c1.1 0 1.9.9 1.9 1.9 0 1-.9 1.9-1.9 1.9zM276.7 146.6h-.4c-1-.2-1.7-1.3-1.4-2.3.2-.9.3-1.8.3-2.8 0-6.7-5.5-12.2-12.2-12.2-4.4 0-8.5 2.4-10.7 6.3-.5.9-1.7 1.3-2.6.7-.9-.5-1.3-1.7-.7-2.6 2.8-5.1 8.2-8.3 14-8.3 8.8 0 16 7.2 16 16 0 1.2-.1 2.5-.4 3.6-.2 1.1-1 1.6-1.9 1.6z"/><path class="st1" d="M235.4 146.6c-1.1 0-1.9-.9-1.9-1.9 0-7.1 5.8-12.8 12.8-12.8 1.8 0 3.5.3 5 1 1 .4 1.4 1.5 1 2.5s-1.5 1.4-2.5 1c-1.1-.5-2.3-.7-3.6-.7-5 0-9 4-9 9 .1 1.1-.8 1.9-1.8 1.9z"/><path class="st1" d="M276.7 146.6h-41.4c-1.1 0-1.9-.9-1.9-1.9 0-1.1.9-1.9 1.9-1.9h41.4c1.1 0 1.9.9 1.9 1.9 0 1.1-.8 1.9-1.9 1.9zM229.7 202.5c-.3 0-.6-.1-.9-.2-.9-.5-1.3-1.7-.7-2.6 2.8-5.1 8.2-8.3 14-8.3 5.1 0 9.7 2.3 12.8 6.3.6.8.5 2-.4 2.7-.8.6-2 .5-2.7-.4-2.3-3.1-5.9-4.8-9.7-4.8-4.4 0-8.5 2.4-10.7 6.3-.3.6-1 1-1.7 1z"/><path class="st1" d="M214.5 212.5c-1.1 0-1.9-.9-1.9-1.9 0-7.1 5.8-12.8 12.8-12.8 1.8 0 3.5.3 5.1 1 1 .4 1.4 1.5 1 2.5s-1.5 1.4-2.5 1c-1.1-.5-2.3-.7-3.6-.7-5 0-9 4-9 9 0 1.1-.8 1.9-1.9 1.9z"/><path class="st1" d="M241.6 212.5h-27.1c-1.1 0-1.9-.9-1.9-1.9 0-1.1.9-1.9 1.9-1.9h27.1c1.1 0 1.9.9 1.9 1.9 0 1.1-.9 1.9-1.9 1.9z"/><path class="st1" d="M354.9 536.9c-49 0-95.1-19.1-129.7-53.7-34.7-34.6-53.7-80.7-53.7-129.7s19.1-95.1 53.7-129.7c34.7-34.7 80.7-53.7 129.7-53.7s95.1 19.1 129.7 53.7c34.7 34.6 53.7 80.7 53.7 129.7s-19.1 95.1-53.7 129.7c-34.6 34.6-80.7 53.7-129.7 53.7zm0-360.8c-47.4 0-91.9 18.4-125.4 52-33.5 33.5-52 78-52 125.4 0 47.4 18.4 91.9 52 125.4 33.5 33.5 78 52 125.4 52s91.9-18.4 125.4-52c33.5-33.5 52-78 52-125.4 0-47.4-18.4-91.9-52-125.4-33.5-33.6-78-52-125.4-52z"/><path class="st1" d="M354.9 525.7c-45 0-87.3-17.5-119.1-49.3-31.8-31.8-49.3-74.1-49.3-119.1S204 270 235.8 238.2s74.1-49.3 119.1-49.3 87.3 17.5 119.1 49.3 49.3 74.1 49.3 119.1-17.5 87.3-49.3 119.1c-31.8 31.7-74.1 49.3-119.1 49.3zm0-330.9c-89.5 0-162.4 72.8-162.4 162.4s72.8 162.4 162.4 162.4 162.4-72.9 162.4-162.4-72.9-162.4-162.4-162.4z"/><path class="st1" d="M353.4 706.8c-47.7 0-94-9.3-137.6-27.8-42.1-17.8-79.9-43.3-112.3-75.7C71 570.8 45.6 533.1 27.8 491 9.4 447.4 0 401.2 0 353.4s9.3-94 27.8-137.6c17.8-42.1 43.3-79.9 75.7-112.3C136 71 173.7 45.6 215.8 27.8 259.4 9.4 305.6 0 353.4 0s94 9.3 137.6 27.8c42.1 17.8 79.9 43.3 112.3 75.7 32.5 32.5 57.9 70.2 75.7 112.3 18.4 43.6 27.8 89.8 27.8 137.6s-9.3 94-27.8 137.6c-17.8 42.1-43.3 79.9-75.7 112.3-32.5 32.5-70.2 57.9-112.3 75.7-43.6 18.5-89.9 27.8-137.6 27.8zm0-699.1c-46.7 0-92 9.1-134.6 27.2-41.2 17.4-78.2 42.3-109.9 74.1-31.8 31.8-56.7 68.7-74.1 109.9-18 42.6-27.2 87.9-27.2 134.6s9.1 92 27.2 134.6c17.4 41.1 42.3 78.1 74.1 109.9s68.7 56.7 109.9 74.1c42.6 18 87.9 27.2 134.6 27.2s92-9.1 134.6-27.2c41.2-17.4 78.2-42.3 109.9-74.1 31.8-31.8 56.7-68.7 74.1-109.9 18-42.6 27.2-87.9 27.2-134.6s-9.1-92-27.2-134.6c-17.4-41.2-42.3-78.2-74.1-109.9-31.8-31.8-68.8-56.7-109.9-74.1-42.7-18.1-87.9-27.2-134.6-27.2z"/><path class="st1" d="M355.1 617.1c-35.7 0-70.4-7-103-20.8-31.5-13.3-59.8-32.4-84.1-56.7-24.3-24.3-43.4-52.6-56.7-84.1-13.8-32.6-20.8-67.3-20.8-103s7-70.4 20.8-103c13.3-31.5 32.4-59.8 56.7-84.1 24.3-24.3 52.6-43.4 84.1-56.7 32.6-13.8 67.3-20.8 103-20.8s70.4 7 103 20.8c31.5 13.3 59.8 32.4 84.1 56.7s43.4 52.6 56.7 84.1c13.8 32.6 20.8 67.3 20.8 103s-7 70.4-20.8 103c-13.3 31.5-32.4 59.8-56.7 84.1s-52.6 43.4-84.1 56.7c-32.6 13.8-67.3 20.8-103 20.8zm0-521.5c-68.6 0-133.2 26.7-181.7 75.3-48.5 48.5-75.3 113.1-75.3 181.7s26.7 133.2 75.3 181.7c48.5 48.5 113.1 75.3 181.7 75.3s133.2-26.7 181.7-75.3c48.5-48.5 75.3-113.1 75.3-181.7s-26.7-133.2-75.3-181.7c-48.5-48.6-113.1-75.3-181.7-75.3zM50.7 319.7h-.5c-2.1-.2-3.6-2.1-3.3-4.2 4.5-38 15.8-74.4 33.7-108.2 1-1.9 3.3-2.6 5.1-1.6 1.9 1 2.6 3.3 1.6 5.1-17.4 32.9-28.5 68.4-32.9 105.5-.2 2-1.8 3.4-3.7 3.4zM70.8 470.7c-1.5 0-2.9-.9-3.5-2.4-9.2-22.7-15.7-46.6-19.2-70.9-.3-2.1 1.1-4 3.2-4.3 2.1-.3 4 1.1 4.3 3.2 3.5 23.7 9.8 47 18.7 69.2.8 1.9-.2 4.2-2.1 5-.5.1-1 .2-1.4.2zM638.6 470.7c-.5 0-1-.1-1.4-.3-1.9-.8-2.9-3-2.1-5 9-22.2 15.3-45.5 18.7-69.2.3-2.1 2.2-3.5 4.3-3.2s3.5 2.2 3.2 4.3c-3.6 24.3-10 48.2-19.2 70.9-.5 1.6-2 2.5-3.5 2.5zM658.7 319.7c-1.9 0-3.5-1.4-3.8-3.4-4.4-37-15.4-72.4-32.8-105.3-1-1.9-.3-4.2 1.6-5.1 1.9-1 4.2-.3 5.1 1.6 17.8 33.7 29.1 70 33.6 107.9.2 2.1-1.2 4-3.3 4.2-.1.1-.3.1-.4.1z"/><path class="st2" d="M661.7 383.6c-.8.1-1.4-.8-2.1-1.4-7-6.4-14.1-12.7-21-19.2-3.2-3-6.5-5.9-8-10.3-2.2-6.6 0-14.5 5.6-19 3-2.4 6.9-3.8 10.8-3.9h.3c5.6 0 11.1 2.9 14.3 7.5.9 1.3-1.1 3-1.6 4.2 0 .1-.3-.6-.3-.5-.1-.1-.1-.3-.2-.4-2.3-4.4-7.1-7.3-12.2-7.3h-.2c-5 0-10 2.9-12.4 7.5-2.3 4.5-2.1 10.2 1.1 14.4 1.9 2.5 4.3 4.5 6.7 6.7 5.5 5.2 11.1 10.3 16.7 15.4l1 1s.5 5.1.9 5.3h.6z" id="Fill-1_32_"/><path class="st2" d="M647.1 339.1c2.9 0 5.7 1.7 7.1 4.3 1.2 2.2 1.2 4.9.2 7.2-1.5 3.2-5.2 5.1-8.8 4.4-3.3-.6-6-3.5-6.4-6.8-.3-2.5.6-5.2 2.5-6.9 1.5-1.4 3.4-2.1 5.4-2.2zm-.1 3.6c-2 0-3.9 1.5-4.4 3.5-.6 2.8 2 5.9 5.2 5.4 1.8-.3 3.4-1.9 3.6-3.7.5-2.6-1.5-5.2-4.4-5.2.1 0 .1 0 0 0z" id="Fill-3_32_"/><path class="st2" d="M675.5 329.8c5.9 0 11.7 3.2 14.8 8.3 3.3 5.4 3.4 12.7.1 17.9-1.7 2.6-4.1 4.8-6.4 7-7.2 6.9-14.6 13.5-22 20.2l-.2.2c-.4.3-.9.3-1.2.1-.7-.4-.6-1.6-.7-2.5-.7-10.2-1.4-20.4-1.7-30.6-.1-3.9 0-7.7 1.9-11.3 2.9-5.5 8.9-9.2 15.3-9.2 0-.1.1-.1.1-.1zm0 11c3.5 0 6.4 2.9 6.4 6.4s-2.9 6.4-6.4 6.4-6.4-2.9-6.4-6.4c0-3.6 2.9-6.4 6.4-6.4z" id="Fill-2_57_"/><path class="st2" d="M47.9 383.6c-.8.1-1.4-.8-2.1-1.4-7-6.4-14.1-12.7-21-19.2-3.2-3-6.5-5.9-8-10.3-2.2-6.6 0-14.5 5.6-19 3-2.4 6.9-3.8 10.8-3.9h.3c5.6 0 11.1 2.9 14.3 7.5.9 1.3-1.1 3-1.6 4.2 0 .1-.3-.6-.3-.5-.1-.1-.1-.3-.2-.4-2.3-4.4-7.1-7.3-12.2-7.3h-.2c-5 0-10 2.9-12.4 7.5-2.3 4.5-2.1 10.2 1.1 14.4 1.9 2.5 4.3 4.5 6.7 6.7 5.5 5.2 11.1 10.3 16.7 15.4l1 1s.5 5.1.9 5.3h.6z" id="Fill-1_31_"/><path class="st2" d="M33.4 339.1c2.9 0 5.7 1.7 7.1 4.3 1.2 2.2 1.2 4.9.2 7.2-1.5 3.2-5.2 5.1-8.8 4.4-3.3-.6-6-3.5-6.4-6.8-.3-2.5.6-5.2 2.5-6.9 1.5-1.4 3.4-2.1 5.4-2.2-.1 0-.1 0 0 0zm-.1 3.6c-2 0-3.9 1.5-4.4 3.5-.6 2.8 2 5.9 5.2 5.4 1.8-.3 3.4-1.9 3.6-3.7.4-2.6-1.6-5.2-4.4-5.2.1 0 0 0 0 0z" id="Fill-3_31_"/><path class="st2" d="M61.8 329.8c5.9 0 11.7 3.2 14.8 8.3 3.3 5.4 3.4 12.7.1 17.9-1.7 2.6-4.1 4.8-6.4 7-7.2 6.9-14.6 13.5-22 20.2l-.2.2c-.4.3-.9.3-1.2.1-.7-.4-.6-1.6-.7-2.5-.7-10.2-1.4-20.4-1.7-30.6-.1-3.9 0-7.7 1.9-11.3 2.9-5.5 8.9-9.2 15.4-9.3-.1 0-.1 0 0 0zm0 11c3.5 0 6.4 2.9 6.4 6.4s-2.9 6.4-6.4 6.4-6.4-2.9-6.4-6.4c0-3.6 2.8-6.4 6.4-6.4z" id="Fill-2_56_"/><path class="st1" d="M148.4 403.8c-1.1 0-1.9-.9-1.9-1.9v-96.8c0-1.1.9-1.9 1.9-1.9 1.1 0 1.9.9 1.9 1.9v96.8c0 1-.9 1.9-1.9 1.9zM156.7 412.1c-1.1 0-1.9-.9-1.9-1.9V296.8c0-1.1.9-1.9 1.9-1.9 1.1 0 1.9.9 1.9 1.9v113.4c0 1-.9 1.9-1.9 1.9zM164.8 420.2c-1.1 0-1.9-.9-1.9-1.9V288.7c0-1.1.9-1.9 1.9-1.9s1.9.9 1.9 1.9v129.6c0 1-.9 1.9-1.9 1.9zM173.1 428.4c-1.1 0-1.9-.9-1.9-1.9V280.4c0-1.1.9-1.9 1.9-1.9 1.1 0 1.9.9 1.9 1.9v146.2c0 1-.9 1.8-1.9 1.8zM181.2 306.6c-1.1 0-1.9-.9-1.9-1.9v-32.4c0-1.1.9-1.9 1.9-1.9 1.1 0 1.9.9 1.9 1.9v32.4c0 1.1-.9 1.9-1.9 1.9zM181.2 436.5c-1.1 0-1.9-.9-1.9-1.9v-32.4c0-1.1.9-1.9 1.9-1.9 1.1 0 1.9.9 1.9 1.9v32.4c0 1.1-.9 1.9-1.9 1.9zM189.5 283.3c-1.1 0-1.9-.9-1.9-1.9V264c0-1.1.9-1.9 1.9-1.9 1.1 0 1.9.9 1.9 1.9v17.4c0 1.1-.9 1.9-1.9 1.9zM189.5 444.8c-1.1 0-1.9-.9-1.9-1.9v-17.4c0-1.1.9-1.9 1.9-1.9 1.1 0 1.9.9 1.9 1.9v17.4c0 1.1-.9 1.9-1.9 1.9z"/><g><path class="st1" d="M107.5 362.9c-1.1 0-1.9-.9-1.9-1.9v-15.1c0-1.1.9-1.9 1.9-1.9s1.9.9 1.9 1.9V361c0 1.1-.8 1.9-1.9 1.9zM115.6 371c-1.1 0-1.9-.9-1.9-1.9v-31.3c0-1.1.9-1.9 1.9-1.9 1.1 0 1.9.9 1.9 1.9v31.3c0 1-.8 1.9-1.9 1.9zM123.9 379.3c-1.1 0-1.9-.9-1.9-1.9v-47.9c0-1.1.9-1.9 1.9-1.9 1.1 0 1.9.9 1.9 1.9v47.9c0 1-.8 1.9-1.9 1.9zM132 387.4c-1.1 0-1.9-.9-1.9-1.9v-64c0-1.1.9-1.9 1.9-1.9 1.1 0 1.9.9 1.9 1.9v64c0 1-.8 1.9-1.9 1.9zM140.3 395.7c-1.1 0-1.9-.9-1.9-1.9v-80.6c0-1.1.9-1.9 1.9-1.9 1.1 0 1.9.9 1.9 1.9v80.6c0 1-.9 1.9-1.9 1.9z"/></g><g><path class="st1" d="M562.3 404.1c-1.1 0-1.9-.9-1.9-1.9v-96.8c0-1.1.9-1.9 1.9-1.9 1.1 0 1.9.9 1.9 1.9v96.8c0 1.1-.9 1.9-1.9 1.9zM554 412.4c-1.1 0-1.9-.9-1.9-1.9V297.1c0-1.1.9-1.9 1.9-1.9 1.1 0 1.9.9 1.9 1.9v113.4c0 1.1-.9 1.9-1.9 1.9zM545.9 420.5c-1.1 0-1.9-.9-1.9-1.9V289c0-1.1.9-1.9 1.9-1.9 1.1 0 1.9.9 1.9 1.9v129.6c0 1-.9 1.9-1.9 1.9zM537.6 428.8c-1.1 0-1.9-.9-1.9-1.9V280.7c0-1.1.9-1.9 1.9-1.9s1.9.9 1.9 1.9v146.2c0 1-.9 1.9-1.9 1.9zM529.5 307c-1.1 0-1.9-.9-1.9-1.9v-32.4c0-1.1.9-1.9 1.9-1.9s1.9.9 1.9 1.9v32.4c0 1-.8 1.9-1.9 1.9zM529.5 436.9c-1.1 0-1.9-.9-1.9-1.9v-32.4c0-1.1.9-1.9 1.9-1.9s1.9.9 1.9 1.9V435c0 1-.8 1.9-1.9 1.9zM521.2 283.7c-1.1 0-1.9-.9-1.9-1.9v-17.4c0-1.1.9-1.9 1.9-1.9 1.1 0 1.9.9 1.9 1.9v17.4c0 1-.8 1.9-1.9 1.9zM521.2 445.2c-1.1 0-1.9-.9-1.9-1.9v-17.4c0-1.1.9-1.9 1.9-1.9 1.1 0 1.9.9 1.9 1.9v17.4c0 1-.8 1.9-1.9 1.9z"/><g><path class="st1" d="M603.1 363.2c-1.1 0-1.9-.9-1.9-1.9v-15.1c0-1.1.9-1.9 1.9-1.9s1.9.9 1.9 1.9v15.1c0 1.1-.8 1.9-1.9 1.9zM595 371.3c-1.1 0-1.9-.9-1.9-1.9v-31.2c0-1.1.9-1.9 1.9-1.9 1.1 0 1.9.9 1.9 1.9v31.3c0 1-.8 1.8-1.9 1.8zM586.7 379.6c-1.1 0-1.9-.9-1.9-1.9v-47.9c0-1.1.9-1.9 1.9-1.9 1.1 0 1.9.9 1.9 1.9v47.9c.1 1.1-.8 1.9-1.9 1.9zM578.7 387.7c-1.1 0-1.9-.9-1.9-1.9v-64c0-1.1.9-1.9 1.9-1.9s1.9.9 1.9 1.9v64c0 1.1-.9 1.9-1.9 1.9zM570.4 396c-1.1 0-1.9-.9-1.9-1.9v-80.6c0-1.1.9-1.9 1.9-1.9s1.9.9 1.9 1.9v80.6c0 1.1-.9 1.9-1.9 1.9z"/></g></g><g><path class="st1" d="M404.2 148.7h-96.8c-1.1 0-1.9-.9-1.9-1.9s.9-1.9 1.9-1.9h96.8c1.1 0 1.9.9 1.9 1.9s-.9 1.9-1.9 1.9zM412.5 157H299.1c-1.1 0-1.9-.9-1.9-1.9 0-1.1.9-1.9 1.9-1.9h113.4c1.1 0 1.9.9 1.9 1.9 0 1-.9 1.9-1.9 1.9zM420.6 165.1H291c-1.1 0-1.9-.9-1.9-1.9s.9-1.9 1.9-1.9h129.6c1.1 0 1.9.9 1.9 1.9s-.9 1.9-1.9 1.9zM428.9 173.4H282.7c-1.1 0-1.9-.9-1.9-1.9 0-1.1.9-1.9 1.9-1.9h146.2c1.1 0 1.9.9 1.9 1.9 0 1-.9 1.9-1.9 1.9zM437 181.5h-32.4c-1.1 0-1.9-.9-1.9-1.9 0-1.1.9-1.9 1.9-1.9H437c1.1 0 1.9.9 1.9 1.9 0 1-.9 1.9-1.9 1.9zM307 181.5h-32.4c-1.1 0-1.9-.9-1.9-1.9 0-1.1.9-1.9 1.9-1.9H307c1.1 0 1.9.9 1.9 1.9s-.8 1.9-1.9 1.9zM445.2 189.8h-17.4c-1.1 0-1.9-.9-1.9-1.9s.9-1.9 1.9-1.9h17.4c1.1 0 1.9.9 1.9 1.9s-.8 1.9-1.9 1.9zM283.8 189.8h-17.4c-1.1 0-1.9-.9-1.9-1.9s.9-1.9 1.9-1.9h17.4c1.1 0 1.9.9 1.9 1.9s-.9 1.9-1.9 1.9z"/><g><path class="st1" d="M363.3 107.8h-15.1c-1.1 0-1.9-.9-1.9-1.9 0-1.1.9-1.9 1.9-1.9h15.1c1.1 0 1.9.9 1.9 1.9 0 1.1-.8 1.9-1.9 1.9zM371.4 115.9h-31.3c-1.1 0-1.9-.9-1.9-1.9s.9-1.9 1.9-1.9h31.3c1.1 0 1.9.9 1.9 1.9s-.8 1.9-1.9 1.9zM379.7 124.2h-47.9c-1.1 0-1.9-.9-1.9-1.9 0-1.1.9-1.9 1.9-1.9h47.9c1.1 0 1.9.9 1.9 1.9 0 1.1-.8 1.9-1.9 1.9zM387.8 132.3h-64c-1.1 0-1.9-.9-1.9-1.9s.9-1.9 1.9-1.9h64c1.1 0 1.9.9 1.9 1.9s-.9 1.9-1.9 1.9zM396.1 140.6h-80.6c-1.1 0-1.9-.9-1.9-1.9 0-1.1.9-1.9 1.9-1.9h80.6c1.1 0 1.9.9 1.9 1.9s-.9 1.9-1.9 1.9z"/></g><g><path class="st1" d="M403.8 562.6H307c-1.1 0-1.9-.9-1.9-1.9 0-1.1.9-1.9 1.9-1.9h96.8c1.1 0 1.9.9 1.9 1.9 0 1-.8 1.9-1.9 1.9zM412.1 554.3H298.7c-1.1 0-1.9-.9-1.9-1.9 0-1.1.9-1.9 1.9-1.9h113.4c1.1 0 1.9.9 1.9 1.9 0 1-.8 1.9-1.9 1.9zM420.2 546.2H290.6c-1.1 0-1.9-.9-1.9-1.9s.9-1.9 1.9-1.9h129.6c1.1 0 1.9.9 1.9 1.9s-.8 1.9-1.9 1.9zM428.5 537.9H282.4c-1.1 0-1.9-.9-1.9-1.9s.9-1.9 1.9-1.9h146.2c1.1 0 1.9.9 1.9 1.9s-.9 1.9-2 1.9zM436.6 529.8h-32.4c-1.1 0-1.9-.9-1.9-1.9s.9-1.9 1.9-1.9h32.4c1.1 0 1.9.9 1.9 1.9s-.8 1.9-1.9 1.9zM306.7 529.8h-32.4c-1.1 0-1.9-.9-1.9-1.9s.9-1.9 1.9-1.9h32.4c1.1 0 1.9.9 1.9 1.9s-.9 1.9-1.9 1.9zM444.9 521.5h-17.4c-1.1 0-1.9-.9-1.9-1.9 0-1.1.9-1.9 1.9-1.9h17.4c1.1 0 1.9.9 1.9 1.9 0 1.1-.8 1.9-1.9 1.9zM283.4 521.5H266c-1.1 0-1.9-.9-1.9-1.9 0-1.1.9-1.9 1.9-1.9h17.4c1.1 0 1.9.9 1.9 1.9 0 1.1-.8 1.9-1.9 1.9z"/><g><path class="st1" d="M363 603.4h-15.1c-1.1 0-1.9-.9-1.9-1.9s.9-1.9 1.9-1.9H363c1.1 0 1.9.9 1.9 1.9s-.9 1.9-1.9 1.9zM371.1 595.3h-31.3c-1.1 0-1.9-.9-1.9-1.9 0-1.1.9-1.9 1.9-1.9h31.3c1.1 0 1.9.9 1.9 1.9 0 1.1-.9 1.9-1.9 1.9zM379.4 587h-47.9c-1.1 0-1.9-.9-1.9-1.9s.9-1.9 1.9-1.9h47.9c1.1 0 1.9.9 1.9 1.9s-.9 1.9-1.9 1.9zM387.5 579h-64c-1.1 0-1.9-.9-1.9-1.9s.9-1.9 1.9-1.9h64c1.1 0 1.9.9 1.9 1.9s-.9 1.9-1.9 1.9zM395.8 570.7h-80.7c-1.1 0-1.9-.9-1.9-1.9s.9-1.9 1.9-1.9h80.6c1.1 0 1.9.9 1.9 1.9s-.8 1.9-1.8 1.9z"/></g></g></g><g><path class="st1" d="M114.5 200l-29.2-42.9 8.4-10.5 48.4 18.6-7.4 9.3-11.1-4.9-9.4 11.8 7.3 9.7-7 8.9zm-8.5-29.6l2.8 3.8 6.6-8.3-4.3-1.9c-2.4-1-4.9-2.1-7.5-3.3s-5.1-2.4-7.5-3.5l-.2.2c1.7 2.1 3.4 4.3 5.2 6.5s3.4 4.4 4.9 6.5z"/><path class="st1" d="M114.5 201.4c-.5 0-.9-.2-1.1-.6l-29.2-42.9c-.3-.5-.3-1.2.1-1.6l8.4-10.5c.4-.5 1-.6 1.6-.4l48.4 18.6c.4.2.7.5.8.9.1.4 0 .9-.2 1.2l-7.4 9.3c-.4.5-1.1.7-1.6.4l-10.2-4.6-8.1 10.2 6.7 8.8c.4.5.4 1.2 0 1.7l-7.1 8.9c-.3.4-.6.6-1.1.6zm-27.4-44.3l27.6 40.5 5.3-6.6-6.7-8.8c-.4-.5-.4-1.2 0-1.7l9.4-11.8c.4-.5 1.1-.7 1.6-.4l10.1 4.5 5.5-7-45.7-17.6-7.1 8.9zm21.7 18.4c-.4 0-.8-.2-1.1-.6l-2.8-3.8c-1.5-2.1-3.1-4.2-4.9-6.4-1.8-2.2-3.5-4.4-5.2-6.5-.4-.5-.4-1.2 0-1.7l.2-.2c.4-.5 1.1-.7 1.6-.4 2.4 1.1 4.9 2.2 7.6 3.5 2.6 1.2 5.1 2.3 7.4 3.3l4.3 2c.4.2.7.5.8.9.1.4 0 .8-.3 1.2l-6.6 8.3c-.1.2-.5.4-1 .4zm-1.7-5.9l1.7 2.3 4.4-5.5-2.7-1.2c-2.4-1-4.9-2.1-7.5-3.3-1-.5-1.9-.9-2.9-1.3.7.8 1.3 1.7 2 2.5 1.9 2.2 3.5 4.4 5 6.5zM146 161.5L112.6 125l10.3-9.4c2.8-2.6 5.7-4.5 8.5-5.9 2.9-1.3 5.8-2 8.8-2s5.9.8 8.9 2.3c2.9 1.5 5.9 3.8 8.7 6.9 2.9 3.1 4.9 6.3 6.2 9.4 1.3 3.1 1.8 6.1 1.6 9.1-.2 2.9-1 5.8-2.5 8.5s-3.6 5.4-6.3 7.8l-10.8 9.8zm2.2-14.2l1.6-1.4c1.6-1.4 2.8-2.9 3.7-4.5.9-1.6 1.4-3.2 1.4-5 .1-1.7-.3-3.6-1.2-5.5-.9-2-2.3-4-4.3-6.2s-3.9-3.8-5.8-4.8-3.6-1.6-5.3-1.6c-1.7-.1-3.4.3-5 1.1s-3.2 1.9-4.8 3.3l-1.6 1.4 21.3 23.2z"/><path class="st1" d="M146 162.9c-.4 0-.8-.2-1-.4L111.6 126c-.5-.6-.5-1.4.1-1.9l10.3-9.4c2.9-2.6 5.9-4.7 8.9-6.1 3.1-1.4 6.2-2.1 9.4-2.1s6.3.8 9.5 2.4c3.1 1.6 6.1 4 9.1 7.2s5.1 6.5 6.5 9.8c1.3 3.3 1.9 6.5 1.7 9.7-.2 3.1-1.1 6.2-2.7 9.1-1.6 2.9-3.8 5.6-6.6 8.2l-10.8 9.8c-.3 0-.6.2-1 .2zM114.5 125l31.6 34.5 9.7-8.9c2.6-2.3 4.6-4.9 6-7.5s2.2-5.2 2.4-8c.2-2.7-.3-5.6-1.5-8.5s-3.2-5.9-5.9-9c-2.7-3-5.5-5.2-8.3-6.7-2.7-1.4-5.5-2.1-8.2-2.1-2.7 0-5.5.6-8.2 1.9-2.8 1.3-5.5 3.2-8.2 5.6l-9.4 8.7zm33.6 23.7c-.4 0-.8-.2-1-.4l-21.2-23.2c-.2-.3-.4-.6-.4-1s.2-.7.4-1l1.6-1.4c1.7-1.5 3.4-2.7 5.1-3.6 1.8-.9 3.7-1.3 5.6-1.2s3.9.7 5.9 1.8 4 2.8 6.1 5.1 3.6 4.5 4.6 6.6c.9 2.1 1.4 4.2 1.3 6.1-.1 2-.6 3.8-1.6 5.6-1 1.7-2.3 3.3-4 4.8l-1.6 1.4c-.1.2-.4.4-.8.4zm-19.2-24.5l19.4 21.2.6-.5c1.5-1.3 2.6-2.7 3.4-4.2.8-1.4 1.2-2.8 1.3-4.3.1-1.5-.3-3.2-1.1-4.9-.8-1.8-2.2-3.8-4.1-5.9-1.9-2-3.7-3.6-5.4-4.5-1.7-.9-3.2-1.4-4.7-1.4-1.5-.1-2.9.3-4.3 1-1.5.7-3 1.8-4.4 3.1l-.7.4zM188.9 125.5l-39.8-33 9.9-6.6 17.7 16c2.1 1.9 4.2 3.7 6.1 5.5s3.9 3.6 6.1 5.5l.3-.2c-.9-2.7-1.8-5.2-2.7-7.7-.9-2.5-1.8-5-2.7-7.7l-7.9-22.5 9.5-6.3 15 49.5-11.5 7.5z"/><path class="st1" d="M188.9 126.9c-.3 0-.6-.1-.9-.3l-39.8-33c-.3-.3-.5-.7-.5-1.1 0-.4.3-.8.6-1.1l9.9-6.6c.5-.3 1.2-.3 1.7.1l17.7 16c2.1 1.8 4.2 3.7 6.1 5.5.8.8 1.6 1.6 2.5 2.3-.4-1.1-.8-2.2-1.2-3.2-.9-2.5-1.9-5.1-2.8-7.7l-7.9-22.5c-.2-.6 0-1.3.5-1.6l9.5-6.3c.4-.2.8-.3 1.2-.1.4.1.7.5.9.9l15 49.5c.2.6-.1 1.2-.6 1.5l-11.2 7.4c-.2.2-.4.3-.7.3zm-37.6-34.3l37.6 31.2 9.5-6.3-14.1-46.8-7.1 4.7 7.5 21.5c.9 2.6 1.8 5.2 2.7 7.7.9 2.4 1.8 5 2.8 7.7.2.6 0 1.2-.5 1.6l-.3.2c-.5.3-1.2.3-1.7-.1-2.2-1.9-4.2-3.7-6.1-5.5s-3.9-3.6-6-5.5l-16.9-15.3-7.4 4.9zM217.6 107.6l-21-44.9 28.1-13.1 4 8.5-18 8.4 4.2 9 15.3-7.1 4 8.5-15.3 7.1 4.8 10.3 18.6-8.7 4 8.5-28.7 13.5z"/><path class="st1" d="M217.6 109c-.2 0-.3 0-.5-.1-.3-.1-.6-.4-.8-.7l-21-44.9c-.2-.3-.2-.7 0-1.1.1-.3.4-.6.7-.8l28.1-13.1c.7-.3 1.5 0 1.8.7l4 8.5c.2.3.2.7 0 1.1-.1.3-.4.6-.7.8l-16.7 7.8 3.1 6.5 14-6.6c.7-.3 1.5 0 1.8.7l4 8.5c.2.3.2.7 0 1.1-.1.3-.4.6-.7.8l-14 6.6 3.7 7.8 17.4-8.1c.7-.3 1.5 0 1.8.7l4 8.5c.2.3.2.7 0 1.1-.1.3-.4.6-.7.8l-28.8 13.2c-.1.1-.3.2-.5.2zm-19.2-45.6l19.8 42.4 26.3-12.3-2.8-6-17.4 8.1c-.7.3-1.5 0-1.8-.7l-4.8-10.3c-.2-.3-.2-.7 0-1.1.1-.3.4-.6.7-.8l14-6.6-2.8-6-14 6.6c-.7.3-1.5 0-1.8-.7l-4.2-9c-.2-.3-.2-.7 0-1.1.1-.3.4-.6.7-.8l16.7-7.8-2.8-6-25.8 12.1zM255.4 90.5l-13.5-47.7 11-3.1L272 59.9l7.7 9.2.3-.1c-1-2.5-2-5.2-3.2-8.2s-2.2-6-3-8.8L269 35.2l10.2-2.9L292.7 80l-11 3.1-19.1-20.2-7.6-9.1-.3.1c1 2.6 2.1 5.3 3.2 8.2 1.2 2.9 2.2 5.8 3 8.6l4.8 16.9-10.3 2.9z"/><path class="st1" d="M255.4 91.9c-.6 0-1.2-.4-1.3-1l-13.5-47.7c-.1-.4-.1-.7.1-1s.5-.6.8-.7l11-3.1c.5-.1 1 0 1.4.4L273 59l.1.1 2.8 3.4c-.1-.4-.3-.7-.4-1.1-1.2-3-2.2-6-3-8.9l-4.8-16.8c-.2-.7.2-1.5.9-1.7l10.2-2.9c.7-.2 1.5.2 1.7.9L294 79.7c.1.4.1.7-.1 1s-.5.6-.8.7l-11 3.1c-.5.1-1 0-1.4-.4l-19.1-20.2-.1-.1-2.8-3.4c.2.4.3.8.5 1.2 1.2 3 2.2 5.9 3 8.8l4.8 16.9c.1.4.1.7-.1 1s-.5.6-.8.7l-10.2 2.9h-.5zm-11.8-48.1l12.7 45 7.6-2.1-4.4-15.6c-.8-2.8-1.8-5.6-2.9-8.5-1.2-2.9-2.2-5.7-3.2-8.3-.1-.4-.1-.8.1-1.1s.5-.6.9-.7l.3-.1c.5-.1 1.1 0 1.4.4l7.6 9 18.5 19.6 8.9-2.5-12.7-45-7.6 2.1 4.4 15.5c.8 2.8 1.8 5.7 3 8.7s2.3 5.8 3.2 8.2c.1.4.1.8 0 1.1-.2.3-.5.6-.9.7l-.3.1c-.5.1-1.1 0-1.4-.4l-7.6-9.2-18.5-19.5-9.1 2.6zM313.7 77l-4.5-39.9-13.5 1.5-1.1-9.4 38.2-4.3 1.1 9.4-13.5 1.5 4.5 39.9-11.2 1.3z"/><path class="st1" d="M313.7 78.4c-.3 0-.6-.1-.9-.3s-.5-.6-.5-.9l-4.4-38.5-12.1 1.4c-.4 0-.7-.1-1-.3s-.5-.6-.5-.9l-1.1-9.4c-.1-.8.5-1.4 1.2-1.5l38.2-4.3c.4 0 .7.1 1 .3.3.2.5.6.5.9l1.1 9.4c0 .4-.1.7-.3 1-.2.3-.6.5-.9.5l-12.1 1.4 4.4 38.5c0 .4-.1.7-.3 1s-.6.5-.9.5l-11.2 1.3c-.1-.1-.2-.1-.2-.1zm-4.5-42.6c.3 0 .6.1.9.3.3.2.5.6.5.9l4.4 38.5 8.4-1L319 36c0-.4.1-.7.3-1 .2-.3.6-.5.9-.5l12.1-1.4-.8-6.6-35.5 4 .8 6.6 12.1-1.4c.2.1.2.1.3.1z"/><g><path class="st1" d="M365.5 75.8c-6.4-.3-11.2-2.4-14.5-6.4-3.2-4-4.6-10.1-4.2-18.4l1.2-26.6 11.2.5-1.3 27.7c-.2 4.9.3 8.3 1.7 10.3s3.5 3.1 6.2 3.2c2.8.1 5-.7 6.6-2.6 1.6-1.9 2.5-5.2 2.8-10.1l1.3-27.7 10.8.5-1.2 26.6c-.4 8.3-2.3 14.3-5.8 17.9-3.5 3.7-8.5 5.4-14.8 5.1z"/><path class="st1" d="M366.8 77.2h-1.4c-6.8-.3-12-2.6-15.5-6.9-3.4-4.2-4.9-10.7-4.5-19.3l1.2-26.6c0-.8.7-1.4 1.4-1.3l11.2.5c.4 0 .7.2 1 .4.2.3.4.6.4 1l-1.3 27.7c-.2 4.5.3 7.7 1.5 9.4 1.1 1.6 2.8 2.5 5.2 2.6s4.2-.6 5.5-2.1c1.4-1.6 2.2-4.7 2.4-9.2l1.3-27.7c0-.4.2-.7.4-1 .3-.2.6-.4 1-.4l10.8.5c.8 0 1.3.7 1.3 1.4l-1.2 26.6c-.4 8.6-2.5 14.9-6.2 18.8-3.5 3.7-8.4 5.6-14.5 5.6zm-17.5-51.3l-1.2 25.2c-.4 7.9.9 13.8 3.9 17.4 2.9 3.6 7.5 5.6 13.5 5.9 6 .3 10.5-1.2 13.7-4.6 3.2-3.4 5.1-9.1 5.4-17l1.2-25.2-8-.4-1.2 26.3c-.2 5.2-1.3 8.8-3.1 10.9-1.9 2.2-4.5 3.2-7.7 3.1-3.2-.2-5.7-1.4-7.3-3.8-1.6-2.3-2.2-5.9-2-11.1l1.2-26.3-8.4-.4z"/></g><g><path class="st1" d="M396.1 77.4L406.7 29l17.4 3.8c2.6.6 4.9 1.3 7.1 2.3 2.1 1 3.9 2.2 5.4 3.8 1.4 1.5 2.4 3.4 3 5.5s.5 4.7-.1 7.5c-.8 3.6-2.2 6.3-4.3 8.3s-4.5 3.2-7.4 3.8l6.7 21.8-12.2-2.7-5.5-19.5-6-1.3-3.8 17.4-10.9-2.3zm16.6-23.7l5.6 1.2c2.9.6 5.2.5 7-.4s2.9-2.5 3.4-4.9.1-4.2-1.2-5.5-3.4-2.2-6.3-2.8l-5.6-1.2-2.9 13.6z"/><path class="st1" d="M434.5 87.2h-.3L422 84.5c-.5-.1-.9-.5-1-1l-5.2-18.7-3.9-.8-3.5 16.1c-.1.4-.3.7-.6.9s-.7.3-1 .2l-10.9-2.4c-.7-.2-1.2-.9-1-1.6l10.6-48.4c.2-.7.9-1.2 1.6-1l17.4 3.8c2.7.6 5.1 1.4 7.4 2.4 2.3 1.1 4.2 2.4 5.8 4.1s2.7 3.7 3.3 6.1.6 5.1-.1 8.2c-.8 3.8-2.4 6.8-4.7 9-1.9 1.8-4.1 3.1-6.6 3.8l6.3 20.4c.1.5 0 1-.3 1.3-.4.1-.7.3-1.1.3zM423.4 82l9.1 2-6-19.5c-.1-.4-.1-.8.1-1.1s.5-.6.9-.6c2.6-.5 4.9-1.7 6.7-3.4 1.8-1.8 3.2-4.3 3.9-7.6.6-2.6.6-5 .1-6.9s-1.4-3.6-2.7-4.9c-1.3-1.4-3-2.6-4.9-3.5-2-.9-4.3-1.7-6.8-2.2l-16.1-3.5-10 45.7 8.2 1.8 3.5-16.1c.2-.7.9-1.2 1.6-1l6 1.3c.5.1.9.5 1 1l5.4 18.5zm-1.8-25.3c-1.1 0-2.3-.1-3.6-.4l-5.6-1.2c-.4-.1-.7-.3-.9-.6s-.3-.7-.2-1l3-13.6c.1-.4.3-.7.6-.9.3-.2.7-.3 1-.2l5.6 1.2c3.2.7 5.4 1.7 6.9 3.2 1.7 1.6 2.2 3.9 1.6 6.7-.6 2.8-2 4.7-4.2 5.8-1.1.7-2.6 1-4.2 1zm-7.3-4.1l4.3.9c2.5.6 4.6.5 6.1-.3 1.4-.7 2.3-2 2.7-3.9s.2-3.3-.8-4.2c-1.1-1.1-3-1.9-5.6-2.5l-4.3-.9-2.4 10.9z"/></g><g><path class="st1" d="M441.2 88.4l18-46.2 28.9 11.3-3.4 8.8-18.5-7.2-3.6 9.3 15.7 6.1-3.4 8.7-15.7-6.1-4.1 10.6 19.2 7.5-3.4 8.8-29.7-11.6z"/><path class="st1" d="M470.8 101.3c-.2 0-.3 0-.5-.1l-29.6-11.5c-.7-.3-1.1-1.1-.8-1.8l18-46.2c.3-.7 1.1-1.1 1.8-.8l28.9 11.3c.7.3 1.1 1.1.8 1.8l-3.4 8.8c-.1.3-.4.6-.7.8-.3.1-.7.2-1.1 0L467 56.9l-2.6 6.7 14.4 5.6c.3.1.6.4.8.7.1.3.2.7 0 1.1l-3.4 8.7c-.3.7-1.1 1.1-1.8.8L460 74.9l-3.1 8.1 17.9 7c.3.1.6.4.8.7.1.3.2.7 0 1.1l-3.4 8.8c-.1.3-.4.6-.7.8-.3-.1-.5-.1-.7-.1zM443 87.6l27 10.5 2.4-6.2-17.9-7c-.3-.1-.6-.4-.8-.7-.1-.3-.2-.7 0-1.1l4.1-10.6c.3-.7 1.1-1.1 1.8-.8l14.4 5.6 2.4-6.1-14.4-5.6c-.3-.1-.6-.4-.8-.7-.1-.3-.2-.7 0-1.1l3.6-9.3c.3-.7 1.1-1.1 1.8-.8l17.2 6.7 2.4-6.2-26.3-10.3L443 87.6z"/></g><g><path class="st1" d="M492.5 112.7c-2.8-1.6-5.3-3.7-7.5-6.4-2.2-2.6-3.8-5.6-4.8-8.9l9.3-3.5c.8 2.2 1.9 4.3 3.3 6.2 1.4 1.9 3 3.4 4.8 4.4 2 1.2 3.7 1.6 5.2 1.5 1.4-.2 2.5-.9 3.2-2.2.4-.7.6-1.3.6-2 0-.6-.2-1.3-.5-2s-.8-1.4-1.4-2.2c-.6-.8-1.2-1.6-1.9-2.5l-4.2-5.6c-.8-1.1-1.6-2.2-2.2-3.5-.6-1.3-1.1-2.6-1.4-4.1-.3-1.4-.3-2.9-.1-4.4s.8-3.1 1.7-4.7c1-1.8 2.3-3.2 4-4.3 1.6-1.1 3.5-1.9 5.5-2.3 2-.4 4.2-.4 6.4 0s4.5 1.3 6.7 2.5c2.5 1.4 4.7 3.3 6.6 5.7 1.9 2.4 3.2 5 4 7.9l-8.5 3.3c-.8-1.9-1.7-3.6-2.8-5S516 78 514.3 77s-3.2-1.4-4.6-1.3c-1.4.1-2.4.8-3.1 2-.4.7-.5 1.3-.5 2 .1.7.3 1.3.7 2s.9 1.5 1.5 2.2c.6.8 1.3 1.6 1.9 2.6l4.3 5.4c2 2.6 3.3 5.2 3.7 7.9.5 2.7-.2 5.6-1.9 8.6-1 1.8-2.4 3.3-4 4.5s-3.5 2-5.6 2.4-4.3.4-6.8 0c-2.3-.2-4.8-1.1-7.4-2.6z"/><path class="st1" d="M503.6 117.2c-1.2 0-2.5-.1-3.8-.3-2.6-.5-5.2-1.5-7.9-3-2.9-1.7-5.6-3.9-7.9-6.7-2.3-2.8-4-5.9-5.1-9.4-.2-.7.2-1.4.8-1.7l9.3-3.5c.3-.1.7-.1 1.1 0 .3.2.6.4.7.8.7 2.1 1.8 4 3.1 5.8 1.3 1.7 2.7 3.1 4.4 4 1.7 1 3.2 1.4 4.3 1.3 1-.1 1.7-.6 2.2-1.5.3-.4.4-.9.4-1.3s-.1-.9-.4-1.4c-.3-.6-.7-1.3-1.2-2l-1.9-2.5-4.2-5.6c-.9-1.1-1.7-2.4-2.4-3.8s-1.2-2.9-1.5-4.4c-.3-1.6-.3-3.2-.1-4.9.3-1.7.9-3.4 1.9-5.1 1.1-1.9 2.6-3.5 4.4-4.8 1.8-1.2 3.8-2.1 6-2.5s4.5-.4 6.9 0 4.8 1.3 7.2 2.7c2.6 1.5 5 3.5 7 6s3.4 5.3 4.3 8.4c.2.7-.2 1.4-.8 1.6l-8.5 3.3c-.7.3-1.5-.1-1.8-.8-.7-1.8-1.6-3.3-2.6-4.6-1-1.2-2.2-2.3-3.8-3.2-1.4-.8-2.7-1.2-3.8-1.1-.9.1-1.6.5-2 1.3-.2.4-.3.8-.3 1.1 0 .5.2 1 .5 1.5.3.6.8 1.3 1.3 2.1.6.8 1.3 1.6 2 2.6l4.2 5.4c2.2 2.7 3.5 5.6 4 8.5.5 3-.2 6.2-2.1 9.5-1.1 2-2.6 3.6-4.4 4.9-1.8 1.3-3.9 2.2-6.1 2.6-1.1.6-2.2.7-3.4.7zm-10.4-5.7c2.4 1.4 4.8 2.3 7 2.7 2.3.4 4.4.4 6.3 0 1.9-.4 3.6-1.1 5-2.2 1.5-1.1 2.7-2.4 3.6-4.1 1.6-2.7 2.2-5.3 1.8-7.7-.4-2.5-1.6-4.9-3.5-7.3l-4.3-5.4c-.7-.9-1.4-1.8-2-2.6s-1.2-1.7-1.6-2.4c-.5-.9-.7-1.7-.8-2.6-.1-.9.1-1.9.6-2.8.9-1.6 2.4-2.6 4.2-2.7 1.7-.1 3.5.3 5.4 1.4 1.9 1.1 3.4 2.4 4.6 3.9.9 1.2 1.7 2.5 2.4 4l6-2.4c-.8-2.3-1.9-4.3-3.4-6.2-1.8-2.2-3.9-4-6.2-5.4-2.1-1.2-4.2-2-6.3-2.4s-4.1-.4-5.9 0c-1.8.3-3.5 1-5 2.1-1.5 1-2.7 2.3-3.6 3.9-.8 1.4-1.3 2.8-1.5 4.2s-.2 2.7 0 3.9c.2 1.3.7 2.5 1.2 3.7.6 1.2 1.3 2.3 2.1 3.3l6.2 8.1c.6.8 1.1 1.6 1.5 2.4.4.9.6 1.7.7 2.6 0 .9-.2 1.8-.7 2.7-.9 1.6-2.4 2.6-4.2 2.9-1.7.2-3.7-.3-6-1.6-2-1.1-3.7-2.7-5.2-4.8-1.2-1.6-2.2-3.4-2.9-5.2l-6.8 2.6c1 2.6 2.4 5.1 4.2 7.2 2.1 2.6 4.5 4.7 7.1 6.2z"/></g><g><path class="st1" d="M543.8 148.9l34.1-35.9 8.1 7.7-34.1 35.9-8.1-7.7z"/><path class="st1" d="M551.9 157.9c-.4 0-.7-.1-.9-.4l-8.1-7.7c-.6-.5-.6-1.4-.1-1.9l34.1-35.9c.3-.3.6-.4 1-.4s.7.1 1 .4l8.1 7.7c.6.5.6 1.4.1 1.9L553 157.5c-.3.3-.7.4-1.1.4.1 0 0 0 0 0zm-6.1-9.1l6.1 5.8 32.2-33.9-6.1-5.8-32.2 33.9z"/></g><g><path class="st1" d="M560.9 165l38.5-31.2 7.2 8.9-11 25.5-5.4 10.7.2.2c1.9-1.9 4-3.9 6.3-6.2 2.3-2.3 4.6-4.4 6.9-6.2l13.6-11 6.7 8.3-38.5 31.2-7.2-8.9 11-25.6 5.3-10.6-.2-.2c-2 1.9-4.1 4-6.3 6.2s-4.5 4.3-6.8 6.1l-13.6 11-6.7-8.2z"/><path class="st1" d="M585.4 196.5c-.4 0-.8-.2-1.1-.5l-7.2-8.9c-.3-.4-.4-.9-.2-1.4l11-25.6v-.1l2-3.9-.9.9c-2.3 2.3-4.6 4.4-6.9 6.2l-13.6 11.1c-.6.5-1.5.4-1.9-.2l-6.7-8.3c-.2-.3-.3-.6-.3-1s.2-.7.5-.9l38.5-31.2c.3-.2.6-.3 1-.3s.7.2.9.5l7.2 8.9c.3.4.4.9.2 1.4l-11 25.5v.1l-2 3.9c.3-.3.6-.6.9-.8 2.3-2.3 4.7-4.4 7-6.3l13.6-11c.3-.2.6-.3 1-.3s.7.2.9.5l6.7 8.3c.5.6.4 1.5-.2 1.9l-38.5 31.2c-.3.2-.6.3-.9.3zm-5.6-10.5l5.8 7.2 36.3-29.5-5-6.1-12.5 10.1c-2.2 1.8-4.5 3.9-6.8 6.1-2.3 2.3-4.4 4.4-6.3 6.2-.3.3-.7.4-1 .4-.4 0-.7-.2-1-.5l-.2-.2c-.3-.4-.4-1-.2-1.5l5.4-10.6 10.6-24.7-5.8-7.2-36.2 29.5 5 6.1 12.6-10.2c2.2-1.8 4.5-3.8 6.7-6s4.4-4.3 6.3-6.2c.3-.3.7-.4 1-.4.4 0 .7.2 1 .5l.2.2c.3.4.4 1 .2 1.5l-5.3 10.5-10.8 24.8z"/></g><g><path class="st1" d="M59.9 504.6l42.5-25.4 5.7 9.6-34.4 20.6 10.1 16.8-8.1 4.8-15.8-26.4z"/><path class="st1" d="M75.7 532.4h-.3c-.4-.1-.7-.3-.8-.6l-15.8-26.4c-.4-.7-.2-1.5.5-1.9l42.5-25.4c.7-.4 1.5-.2 1.9.5l5.7 9.6c.2.3.2.7.2 1-.1.4-.3.7-.6.8l-33.2 19.9 9.4 15.6c.4.7.2 1.5-.5 1.9l-8.1 4.8c-.4.1-.7.2-.9.2zm-13.9-27.3l14.4 24 5.7-3.4-9.4-15.6c-.2-.3-.2-.7-.2-1 .1-.4.3-.7.6-.8l33.2-19.9-4.3-7.2-40 23.9zM95.3 558.2c-2.1-2.6-3.6-5.3-4.4-8.2-.8-2.9-1-5.8-.6-8.7.5-2.9 1.6-5.8 3.3-8.7 1.8-2.9 4.2-5.6 7.3-8.2 3.1-2.6 6.3-4.5 9.4-5.6 3.1-1.2 6.2-1.7 9.1-1.5s5.7.9 8.3 2.3c2.6 1.4 5 3.4 7.1 6s3.6 5.3 4.5 8.1c.9 2.9 1.1 5.7.7 8.6-.4 2.9-1.5 5.8-3.3 8.6-1.7 2.9-4.2 5.6-7.3 8.1-3.1 2.6-6.3 4.5-9.4 5.7-3.2 1.2-6.2 1.7-9.2 1.6-3-.1-5.8-.8-8.5-2.2-2.4-1.3-4.8-3.3-7-5.9zm7.5-6.1c2.2 2.6 5 3.8 8.5 3.4 3.5-.3 7.2-2.1 11.1-5.3 3.8-3.2 6.2-6.4 7.1-9.7s.3-6.3-1.9-8.9c-2.2-2.6-4.9-3.8-8.3-3.6s-7 2-10.9 5.1c-3.9 3.2-6.3 6.5-7.3 9.9-1.1 3.5-.5 6.5 1.7 9.1z"/><path class="st1" d="M111.7 567.7h-.7c-3.2-.1-6.2-.9-9.1-2.4-2.8-1.5-5.4-3.6-7.6-6.3-2.2-2.7-3.8-5.6-4.7-8.7-.9-3.1-1.1-6.2-.6-9.3s1.7-6.2 3.5-9.2 4.4-5.8 7.6-8.5c3.2-2.7 6.5-4.6 9.8-5.9 3.3-1.2 6.5-1.8 9.6-1.6s6.1 1 8.9 2.5 5.3 3.6 7.6 6.3c2.2 2.7 3.8 5.6 4.8 8.6.9 3 1.2 6.1.7 9.2-.4 3.1-1.6 6.2-3.4 9.2s-4.4 5.8-7.6 8.4c-3.2 2.7-6.5 4.6-9.8 5.9-3.1 1.3-6.1 1.8-9 1.8zm6.8-49.1c-2.4 0-5 .5-7.6 1.5-3 1.1-6 2.9-9 5.4s-5.4 5.1-7 7.8c-1.7 2.7-2.7 5.5-3.2 8.2-.4 2.7-.3 5.5.5 8.1.8 2.7 2.2 5.3 4.2 7.7s4.3 4.3 6.8 5.6 5.1 2 7.9 2.1c2.8.1 5.7-.4 8.7-1.5s6-3 9-5.4 5.3-5 7-7.8c1.6-2.7 2.7-5.4 3.1-8.1.4-2.7.2-5.4-.6-8-.8-2.7-2.3-5.3-4.3-7.7s-4.3-4.3-6.7-5.6c-2.4-1.3-5.1-2-7.8-2.2-.4-.1-.7-.1-1-.1zm-8.4 38.3c-3.4 0-6.2-1.3-8.4-4-2.5-3-3.1-6.4-2-10.3 1.1-3.6 3.7-7.2 7.7-10.5s7.9-5.2 11.6-5.4c3.9-.3 7.1 1.1 9.5 4 2.4 3 3.2 6.4 2.2 10.1-1 3.6-3.5 7.1-7.5 10.4-4.1 3.4-8 5.2-11.8 5.6-.4.1-.9.1-1.3.1zm10-27.4h-.8c-3.1.2-6.5 1.8-10.1 4.8s-5.9 6.1-6.8 9.2c-.9 2.9-.4 5.5 1.5 7.7 1.9 2.3 4.3 3.2 7.3 2.9 3.2-.3 6.7-2 10.3-5 3.6-3 5.8-6 6.6-9 .8-2.9.2-5.4-1.6-7.6-1.8-2-3.9-3-6.4-3zM137.8 601.3c-2.4-2.1-4.3-4.4-5.6-7.1-1.4-2.6-2.2-5.5-2.4-8.4-.2-3 .3-6.1 1.4-9.3 1.2-3.2 3.1-6.3 5.8-9.5 2.7-3.1 5.6-5.4 8.6-7 3.1-1.6 6.1-2.5 9.2-2.8s6.1.1 9 1c2.9 1 5.5 2.5 7.9 4.6s4.1 4.5 5.2 7.1 1.7 5.2 1.8 7.5l-9.2 1.5c-.2-1.7-.6-3.3-1.1-4.8-.6-1.5-1.5-2.8-2.9-3.9-1.3-1.1-2.7-1.9-4.3-2.3-1.6-.4-3.3-.5-5-.2s-3.5 1-5.2 2.1c-1.8 1.1-3.5 2.6-5.1 4.4-3.4 3.9-5.1 7.6-5.3 11.1-.2 3.5 1.1 6.5 3.8 8.9 1.5 1.3 3.2 2.2 5 2.6 1.8.4 3.6.5 5.4.3l-.1 9.2c-6.3.9-11.9-.8-16.9-5z"/><path class="st1" d="M151.3 607.9c-5.3 0-10.1-1.9-14.4-5.6-2.5-2.2-4.5-4.7-6-7.5s-2.3-5.8-2.5-9 .3-6.5 1.5-9.8 3.2-6.7 6.1-9.9c2.8-3.2 5.8-5.7 9-7.4s6.5-2.7 9.7-3 6.5.1 9.5 1.1c3.1 1 5.9 2.7 8.4 4.8 2.6 2.2 4.4 4.8 5.6 7.6 1.1 2.8 1.8 5.4 1.9 8 0 .7-.5 1.3-1.2 1.4l-9.2 1.5c-.4.1-.8 0-1.1-.3-.3-.2-.5-.6-.5-.9-.2-1.6-.5-3.1-1.1-4.4-.5-1.3-1.3-2.4-2.5-3.4-1.1-1-2.4-1.6-3.8-2s-2.9-.4-4.4-.1c-1.5.3-3.2.9-4.8 1.9-1.6 1-3.2 2.4-4.8 4.2-3.1 3.6-4.8 7.1-5 10.3-.2 3.1.9 5.7 3.4 7.8 1.3 1.2 2.8 1.9 4.4 2.2s3.3.4 4.9.2c.4 0 .8.1 1.1.3.3.3.5.6.5 1l-.1 9.2c0 .7-.5 1.2-1.2 1.3-1 .4-2.2.5-3.4.5zm-12.5-7.7c4.4 3.8 9.1 5.4 14.6 4.8l.1-6.5c-1.4 0-2.8-.1-4.2-.4-2-.4-3.9-1.4-5.6-2.9-3.1-2.7-4.5-6-4.3-10 .2-3.8 2.1-7.9 5.7-11.9 1.7-2 3.5-3.6 5.4-4.7 1.9-1.2 3.8-1.9 5.7-2.3 1.9-.4 3.8-.3 5.6.2 1.8.5 3.4 1.3 4.9 2.6s2.6 2.8 3.2 4.5c.4 1.2.8 2.4 1 3.7l6.5-1.1c-.2-1.9-.8-3.8-1.6-5.9-1-2.4-2.6-4.6-4.8-6.6-2.2-1.9-4.7-3.4-7.5-4.3-2.7-.9-5.5-1.2-8.4-1-2.9.3-5.8 1.2-8.7 2.7-2.9 1.5-5.7 3.8-8.2 6.7-2.6 3-4.5 6-5.6 9.1-1.1 3-1.5 5.9-1.4 8.7.2 2.8.9 5.4 2.2 7.9 1.3 2.5 3.1 4.8 5.4 6.7zM157.6 616.5l39.5-33.7 11.4 7.2-13.2 50.2-10-6.3 3.7-11.6-12.8-8-8.8 8.4-9.8-6.2zm28.5-11.7l-3.5 3.2 8.9 5.6 1.5-4.5c.7-2.5 1.5-5.1 2.5-7.8.9-2.7 1.8-5.3 2.6-7.9l-.3-.2-5.9 5.9c-1.9 2.1-3.9 4-5.8 5.7z"/><path class="st1" d="M195.2 641.5c-.3 0-.5-.1-.7-.2l-10-6.3c-.5-.3-.8-1-.6-1.6l3.4-10.6-11-6.9-8.1 7.6c-.5.4-1.1.5-1.7.2l-9.6-6.1c-.4-.2-.6-.6-.6-1.1 0-.4.1-.9.5-1.1l39.5-33.7c.5-.4 1.1-.4 1.6-.1l11.4 7.2c.5.3.8.9.6 1.5l-13.2 50.2c-.1.4-.4.8-.8.9-.3.1-.5.1-.7.1zm-8.4-8.3l7.5 4.7 12.5-47.4-9.7-6.1-37.3 31.8 7.2 4.5 8.1-7.6c.5-.4 1.1-.5 1.7-.2l12.8 8c.5.3.8 1 .6 1.6l-3.4 10.7zm4.8-18.2c-.3 0-.5-.1-.7-.2l-8.9-5.6c-.4-.2-.6-.6-.6-1s.1-.8.4-1.1l3.5-3.2c1.9-1.7 3.9-3.6 5.8-5.5l5.9-5.9c.5-.5 1.2-.5 1.7-.2l.3.2c.5.3.8 1 .6 1.6-.8 2.6-1.7 5.2-2.6 7.9s-1.7 5.3-2.4 7.7l-1.5 4.5c-.1.4-.4.7-.8.9-.4-.1-.5-.1-.7-.1zm-6.7-7.2l5.9 3.7.9-2.8c.7-2.4 1.5-5.1 2.5-7.8.3-1 .7-2 1-3-.8.7-1.5 1.5-2.3 2.3-2 2-4 3.9-5.9 5.6l-2.1 2zM206.9 645.6l20-45.3 10.2 4.5-16.2 36.7 17.9 7.9-3.8 8.6-28.1-12.4z"/><path class="st1" d="M235 659.4c-.2 0-.4 0-.6-.1l-28.2-12.4c-.7-.3-1-1.1-.7-1.8l20-45.3c.3-.7 1.1-1 1.8-.7l10.2 4.5c.3.1.6.4.7.8.1.3.1.7 0 1.1l-15.6 35.4 16.7 7.3c.7.3 1 1.1.7 1.8l-3.8 8.6c-.1.3-.4.6-.8.7 0 .1-.2.1-.4.1zm-26.3-14.5l25.6 11.3 2.7-6.1-16.7-7.3c-.7-.3-1-1.1-.7-1.8l15.6-35.4-7.7-3.4-18.8 42.7zM270.4 669.7l9-48.7 12 2.2 3.8 23.1c.2 1.5.4 3.1.6 4.7l.6 4.8.3.1c.8-1.4 1.5-2.8 2.2-4.3.7-1.4 1.4-2.8 2.2-4.2l11.7-20.2 12 2.2-9 48.7-10-1.9 3.3-17.9c.2-1.2.5-2.5.9-3.9s.8-2.9 1.2-4.3c.4-1.4.8-2.9 1.2-4.2.4-1.4.8-2.7 1.2-3.8l-.3-.1-6.1 10.8-10.4 17.3-6.1-1.1-3.5-19.9-1.7-12.3-.3-.1c-.1 1.2-.2 2.6-.3 4-.1 1.4-.2 2.9-.4 4.4-.1 1.5-.3 3-.4 4.4-.2 1.5-.4 2.8-.6 4l-3.3 17.9-9.8-1.7z"/><path class="st1" d="M315.8 679.4h-.2l-10-1.9c-.7-.1-1.2-.9-1.1-1.6l3.3-17.9c.2-1.2.5-2.6.9-4 .2-.7.3-1.3.5-2l-.8 1.4-10.4 17.3c-.3.5-.9.7-1.4.6l-6.1-1.1c-.6-.1-1-.5-1.1-1.1l-3.5-19.9-.2-1.4c-.1.6-.1 1.2-.2 1.8-.2 1.5-.4 2.9-.6 4.1l-3.3 17.9c-.1.7-.9 1.2-1.6 1.1l-9.9-1.8c-.7-.1-1.2-.9-1.1-1.6l9-48.7c.1-.7.9-1.2 1.6-1.1l12 2.2c.6.1 1 .6 1.1 1.1l3.8 23.1.6 4.8c0 .3.1.6.1.9.1-.3.3-.5.4-.8.7-1.5 1.5-2.9 2.2-4.3l11.7-20.3c.3-.5.9-.8 1.4-.7l12 2.2c.7.1 1.2.9 1.1 1.6l-9 48.7c-.1.4-.3.7-.6.9-.1.5-.3.5-.6.5zm-8.4-4.3l7.3 1.4 8.5-46-9.6-1.8-11.2 19.4c-.7 1.3-1.5 2.7-2.2 4.1-.7 1.4-1.5 2.9-2.2 4.3-.3.5-.9.8-1.5.7l-.3-.1c-.6-.1-1-.6-1.1-1.2l-.6-4.8c-.2-1.6-.4-3.1-.6-4.6l-3.7-22.1-9.7-1.8-8.5 46 7.2 1.3 3.1-16.5c.2-1.2.4-2.5.6-3.9.2-1.5.3-2.9.4-4.4.1-1.5.2-3 .4-4.4.1-1.5.2-2.8.3-4 0-.4.2-.8.5-1s.7-.3 1.1-.3l.3.1c.6.1 1 .6 1.1 1.2l1.7 12.3 3.3 18.9 4.2.8 9.9-16.5 6.1-10.8c.3-.5.9-.8 1.4-.7l.3.1c.4.1.7.3.9.6s.3.7.1 1.1c-.4 1.2-.8 2.5-1.2 3.8l-1.2 4.2c-.4 1.4-.8 2.9-1.2 4.3-.4 1.4-.6 2.7-.9 3.8l-3 16.5zM329.4 679.3l15.9-49.4 13.4.1 15.1 49.6-11.9-.1-3-11.8-15.1-.1-3.1 11.8-11.3-.1zm18.1-25l-1.2 4.5 10.6.1-1.1-4.6c-.7-2.5-1.4-5.1-2-7.9-.6-2.8-1.3-5.5-1.9-8.1h-.3c-.6 2.6-1.3 5.3-1.9 8.1-.8 2.8-1.5 5.5-2.2 7.9z"/><path class="st1" d="M373.8 681l-11.9-.1c-.6 0-1.2-.4-1.3-1l-2.7-10.8-13-.1-2.9 10.7c-.2.6-.7 1-1.3 1l-11.4-.1c-.4 0-.8-.2-1.1-.6-.3-.4-.3-.8-.2-1.2l15.9-49.4c.2-.6.7-1 1.3-1l13.4.1c.6 0 1.1.4 1.3 1l15.2 49.7c.1.4 0 .9-.2 1.2-.2.4-.6.6-1.1.6zm-10.7-2.9l8.9.1-14.3-46.9-11.4-.1-15 46.7 8.5.1 2.9-10.7c.2-.6.7-1 1.3-1l15.1.1c.6 0 1.2.4 1.3 1l2.7 10.7zm-6.3-17.8l-10.6-.1c-.4 0-.8-.2-1.1-.5s-.3-.8-.2-1.2l1.2-4.5c.7-2.4 1.4-5 2.1-7.8s1.3-5.4 1.9-8.1c.1-.6.7-1.1 1.3-1.1h.3c.6 0 1.2.4 1.3 1 .6 2.6 1.3 5.3 1.9 8.1.6 2.8 1.3 5.4 2 7.9l1.1 4.6c.1.4 0 .8-.3 1.2-.1.3-.5.5-.9.5zm-8.8-2.8l7 .1-.7-2.9c-.7-2.4-1.4-5.1-2-7.9-.2-1-.5-2.1-.7-3.1-.2 1-.5 2.1-.7 3.1-.7 2.8-1.4 5.4-2.1 7.9l-.8 2.8z"/><g><path class="st1" d="M386.9 678.3l-7.3-49 17.7-2.6c2.6-.4 5.1-.5 7.4-.3 2.4.2 4.5.7 6.3 1.6 1.9.9 3.5 2.3 4.8 4.1s2.2 4.2 2.6 7.1c.5 3.6.2 6.7-1 9.3s-3.1 4.6-5.6 6.2l14.1 17.9-12.4 1.9-12-16.3-6.1.9 2.6 17.7-11.1 1.5zm7.1-28.1l5.7-.9c2.9-.4 5-1.4 6.4-2.8 1.3-1.5 1.8-3.4 1.5-5.8-.4-2.4-1.4-4-3-4.7-1.7-.7-4-.9-6.9-.4l-5.7.9 2 13.7z"/><path class="st1" d="M386.9 679.7c-.3 0-.6-.1-.8-.3-.3-.2-.5-.5-.5-.9l-7.3-49c-.1-.4 0-.7.3-1 .2-.3.5-.5.9-.5l17.7-2.6c2.7-.4 5.3-.5 7.7-.4 2.5.2 4.8.8 6.9 1.8 2.1 1 3.8 2.5 5.3 4.5 1.4 2 2.4 4.6 2.8 7.7.6 3.9.2 7.3-1.2 10.1-1.1 2.3-2.7 4.3-4.8 5.9l13.2 16.8c.3.4.4.9.2 1.4s-.6.8-1.1.9l-12.4 1.9c-.5.1-1-.1-1.3-.5L401 659.9l-3.9.6 2.4 16.3c.1.8-.4 1.5-1.2 1.6l-11 1.7c-.3-.4-.3-.4-.4-.4zm-5.8-49.2l6.9 46.3 8.3-1.2-2.4-16.3c-.1-.8.4-1.5 1.2-1.6l6.1-.9c.5-.1 1 .1 1.3.5l11.5 15.6 9.2-1.4-12.6-16.1c-.2-.3-.3-.7-.3-1.1.1-.4.3-.7.6-.9 2.2-1.4 3.9-3.3 5.1-5.6 1.1-2.3 1.4-5.1.9-8.5-.4-2.7-1.2-4.8-2.4-6.5-1.2-1.6-2.6-2.8-4.2-3.7-1.7-.8-3.7-1.3-5.8-1.5-2.2-.2-4.6 0-7.1.3l-16.3 2.6zm12.9 21.1c-.3 0-.6-.1-.8-.3-.3-.2-.5-.5-.5-.9l-2.1-13.7c-.1-.8.4-1.5 1.2-1.6l5.7-.9c3.2-.5 5.7-.3 7.6.5 2.1.9 3.4 2.9 3.9 5.8.4 2.8-.2 5.2-1.8 6.9s-4 2.8-7.2 3.3l-5.7.9h-.3zm-.5-14l1.6 11 4.3-.7c2.6-.4 4.4-1.2 5.6-2.4 1.1-1.1 1.4-2.7 1.1-4.7-.3-1.9-1-3.1-2.2-3.6-1.4-.6-3.5-.7-6.1-.3l-4.3.7z"/></g><g><path class="st1" d="M440.5 668.7l-15.2-47.1 10.6-3.4 6.2 19.3.3-.1 7.8-23.8 11.7-3.8-8.2 23.4 26 22.9-11.6 3.8-17.9-16.2-3.2 9 4.1 12.7-10.6 3.3z"/><path class="st1" d="M440.4 670.1c-.6 0-1.1-.4-1.3-1L423.9 622c-.2-.7.2-1.5.9-1.7l10.6-3.4c.3-.1.7-.1 1 .1.3.2.6.5.7.8l5.1 15.7 6.6-20.3c.1-.4.5-.7.9-.9l11.7-3.8c.5-.2 1 0 1.4.3.4.4.5.9.3 1.4l-7.9 22.5 25.3 22.3c.4.3.5.8.4 1.3s-.5.9-.9 1l-11.6 3.8c-.5.2-1 0-1.3-.3L450.7 646l-2.3 6.6 3.9 12.2c.2.7-.2 1.5-.9 1.7l-10.6 3.4c-.1.1-.2.2-.4.2zM427 622.4l14.4 44.5 8-2.6-3.7-11.3c-.1-.3-.1-.6 0-.9l3.2-9c.2-.4.5-.8 1-.9.4-.1.9 0 1.3.3l17.3 15.6 8.6-2.8-24.3-21.1c-.4-.4-.6-1-.4-1.5l7.3-20.8-8.4 2.7-7.6 23.2c-.1.4-.5.7-.9.9l-.3.1c-.7.2-1.5-.2-1.7-.9l-5.8-18-8 2.5z"/></g><g><path class="st1" d="M491.6 650.4l-22.3-44.2 27.7-14 4.2 8.4-17.7 8.9 4.5 8.9 15.1-7.6 4.2 8.3-15.1 7.6 5.1 10.2 18.4-9.3 4.2 8.4-28.3 14.4z"/><path class="st1" d="M491.6 651.8c-.1 0-.3 0-.4-.1-.3-.1-.6-.4-.8-.7l-22.3-44.2c-.2-.3-.2-.7-.1-1 .1-.3.4-.6.7-.8l27.7-14c.7-.3 1.5-.1 1.8.6l4.2 8.4c.2.3.2.7.1 1.1-.1.3-.4.6-.7.8l-16.5 8.3 3.2 6.4 13.8-7c.3-.2.7-.2 1.1-.1.3.1.6.4.8.7l4.2 8.3c.3.7.1 1.5-.6 1.8l-13.8 7 3.9 7.7 17.1-8.7c.7-.3 1.5-.1 1.8.6l4.2 8.4c.2.3.2.7.1 1.1-.1.3-.4.6-.7.8l-28.3 14.3c-.1.2-.3.3-.5.3zm-20.5-45l21.1 41.8 25.9-13.1-3-6-17.1 8.7c-.3.2-.7.2-1 .1-.3-.1-.6-.4-.8-.7l-5.1-10.2c-.3-.7-.1-1.5.6-1.8l13.8-7-3-5.9-13.8 7c-.3.2-.7.2-1.1.1-.3-.1-.6-.4-.8-.7l-4.5-8.9c-.2-.3-.2-.7-.1-1 .1-.3.4-.6.7-.8l16.5-8.3-3-6-25.3 12.7z"/></g><g><path class="st1" d="M542.6 621.4l-23.2-32.7-11.1 7.9-5.4-7.7 31.4-22.2 5.4 7.7-11.1 7.9 23.2 32.7-9.2 6.4z"/><path class="st1" d="M542.6 622.8c-.4 0-.9-.2-1.1-.6l-22.4-31.6-10 7.1c-.6.4-1.5.3-1.9-.3l-5.4-7.7c-.2-.3-.3-.7-.2-1 .1-.4.3-.7.6-.9l31.4-22.2c.6-.4 1.5-.3 1.9.3l5.4 7.7c.2.3.3.7.2 1-.1.4-.3.7-.6.9l-10 7.1 22.4 31.6c.2.3.3.7.2 1-.1.4-.3.7-.6.9l-9.2 6.5c-.1.1-.4.2-.7.2zm-23.1-35.5c.4 0 .9.2 1.1.6l22.4 31.6 6.9-4.9-22.4-31.6c-.2-.3-.3-.7-.2-1 .1-.4.3-.7.6-.9l10-7.1-3.9-5.4-29.1 20.6 3.9 5.4 10-7.1c.1-.1.4-.2.7-.2z"/></g><g><path class="st1" d="M573.7 597.5l-33.1-36.8 8.3-7.5L582 590l-8.3 7.5z"/><path class="st1" d="M573.7 598.8c-.4 0-.8-.2-1-.5l-33.1-36.8c-.5-.6-.5-1.4.1-1.9l8.3-7.5c.3-.2.6-.4 1-.4s.7.2 1 .5l33.1 36.8c.5.6.5 1.4-.1 1.9l-8.3 7.5c-.3.3-.6.4-1 .4zm-31.2-38.1l31.3 34.8 6.3-5.6-31.3-34.8-6.3 5.6z"/></g><g><path class="st1" d="M595.7 577.2L558.1 545l7.5-8.7 27.1 6.2 11.5 3.4.2-.2c-2.2-1.5-4.6-3.2-7.3-5.1-2.7-1.9-5.1-3.7-7.4-5.7l-13.3-11.4 6.9-8.1 37.6 32.2-7.5 8.7-27.2-6.3-11.4-3.3-.2.2c2.2 1.6 4.7 3.3 7.3 5.1s5 3.6 7.2 5.6l13.3 11.4-6.7 8.2z"/><path class="st1" d="M595.7 578.6c-.3 0-.6-.1-.9-.3l-37.6-32.2c-.6-.5-.6-1.4-.1-1.9l7.5-8.7c.3-.4.9-.6 1.4-.4l27.1 6.2h.1l4.2 1.3c-.3-.2-.7-.5-1-.7-2.7-1.9-5.2-3.8-7.5-5.7l-13.3-11.4c-.6-.5-.6-1.4-.1-1.9l6.9-8.1c.2-.3.6-.4.9-.5.4 0 .7.1 1 .3l37.6 32.2c.6.5.6 1.4.1 1.9l-7.5 8.7c-.3.4-.9.6-1.4.4l-27.2-6.3h-.1l-4.2-1.2c.4.3.7.5 1.1.8 2.6 1.8 5.1 3.7 7.4 5.6l13.3 11.4c.3.2.4.6.5.9 0 .4-.1.7-.3 1l-6.9 8.1c-.2.3-.6.4-1 .5.1 0 .1 0 0 0zm-35.6-33.8l35.5 30.4 5.1-6-12.3-10.5c-2.2-1.9-4.6-3.7-7.1-5.5-2.6-1.8-5-3.5-7.3-5.1-.3-.2-.5-.6-.6-1s.1-.8.3-1.1l.2-.2c.4-.4.9-.6 1.4-.4l11.3 3.3 26.3 6.1 6-7-35.5-30.4-5.1 6 12.2 10.5c2.2 1.9 4.6 3.7 7.2 5.6 2.7 1.9 5.1 3.6 7.3 5.1.3.2.5.6.6 1 0 .4-.1.8-.3 1.1l-.2.2c-.4.4-.9.6-1.4.4l-11.4-3.4-26.2-6-6 6.9z"/></g><g><path class="st1" d="M644.5 513.3c-1.7 2.9-3.8 5.4-6.3 7.4s-5.1 3.4-8.1 4.2c-2.9.8-6.1.9-9.4.3-3.4-.6-6.8-1.9-10.4-4-3.5-2.1-6.3-4.5-8.5-7.2-2.1-2.7-3.6-5.6-4.4-8.6-.8-3-.9-6.1-.4-9.2.5-3.1 1.6-6.1 3.3-8.9 1.8-3.1 4-5.4 6.4-7 2.5-1.5 4.8-2.6 7.1-3.1l3.1 8.7c-1.6.5-3.1 1.2-4.5 2s-2.6 2.2-3.7 4c-1 1.7-1.6 3.4-1.8 5.1-.2 1.7 0 3.5.6 5.2s1.6 3.3 2.9 4.9c1.4 1.6 3.1 3 5.3 4.2 4.4 2.6 8.4 3.7 12 3.1 3.6-.5 6.6-2.8 9-6.8.5-.9.9-1.8 1.2-2.7.3-1 .3-1.8.2-2.6l-7.3-4.4-4.2 7.1-7.8-4.7 9.2-15.5 19.6 11.7c.6 2.3.6 5 .2 8.1-.4 2.6-1.6 5.6-3.3 8.7z"/><path class="st1" d="M624.7 526.8c-1.4 0-2.8-.1-4.2-.4-3.5-.6-7.2-2-10.9-4.2s-6.6-4.7-8.8-7.6c-2.2-2.9-3.8-5.9-4.6-9.1-.8-3.2-1-6.5-.5-9.8s1.7-6.4 3.5-9.4c1.9-3.3 4.3-5.8 6.9-7.4 2.6-1.6 5.1-2.7 7.5-3.3.7-.2 1.4.2 1.6.9l3.1 8.7c.1.4.1.7-.1 1.1-.2.3-.5.6-.8.7-1.5.5-2.9 1.1-4.2 1.9-1.2.7-2.3 1.9-3.2 3.5-.9 1.5-1.4 3-1.6 4.5-.2 1.5 0 3.1.5 4.6s1.4 3 2.7 4.4 2.9 2.8 4.9 4c4.1 2.4 7.8 3.4 11.1 2.9 3.2-.5 5.8-2.5 8-6.2.5-.8.8-1.6 1-2.4.1-.5.2-1 .2-1.4l-5.5-3.3-3.5 5.9c-.2.3-.5.5-.8.6-.4.1-.7 0-1-.2l-7.9-4.6c-.7-.4-.9-1.2-.5-1.9l9.2-15.5c.4-.7 1.2-.9 1.9-.5l19.6 11.7c.3.2.5.5.6.9.6 2.5.7 5.4.2 8.6-.5 3.2-1.7 6.4-3.5 9.6-1.8 3-4 5.6-6.6 7.7-2.6 2.1-5.5 3.6-8.6 4.4-1.8.4-3.7.6-5.7.6zm-11.8-48.2c-1.8.6-3.6 1.4-5.5 2.6-2.3 1.4-4.3 3.6-6 6.5-1.6 2.7-2.6 5.5-3.1 8.4s-.3 5.8.4 8.7c.7 2.8 2.1 5.6 4.1 8.2 2 2.6 4.7 4.9 8.1 6.9 3.4 2 6.7 3.3 9.9 3.8 3.1.5 6.1.4 8.9-.3 2.7-.7 5.3-2 7.6-3.9s4.3-4.2 6-7c1.7-2.8 2.8-5.7 3.2-8.6.4-2.6.4-4.9 0-7l-17.9-10.6-7.8 13.2 5.5 3.3 3.5-5.9c.4-.7 1.2-.9 1.9-.5l7.3 4.4c.4.2.6.6.7 1 .2 1 .1 2.1-.3 3.2-.3 1.1-.8 2.1-1.3 3.1-2.6 4.4-5.9 6.9-9.9 7.5-3.9.6-8.2-.5-12.9-3.3-2.2-1.3-4.1-2.9-5.6-4.5-1.5-1.7-2.6-3.5-3.2-5.3-.6-1.9-.9-3.8-.7-5.8.2-1.9.9-3.8 1.9-5.7 1.2-2 2.6-3.5 4.2-4.5 1.1-.6 2.2-1.2 3.4-1.7l-2.4-6.2zm31.6 34.7z"/></g></g></g><g><path class="st3" d="M567.9 234.3h-.4c-1-.2-1.7-1.3-1.4-2.3.2-.9.3-1.8.3-2.8 0-6.7-5.5-12.2-12.2-12.2-4.4 0-8.5 2.4-10.7 6.3-.5.9-1.7 1.3-2.6.7-.9-.5-1.3-1.7-.7-2.6 2.8-5.1 8.2-8.3 14-8.3 8.8 0 16 7.2 16 16 0 1.2-.1 2.5-.4 3.6-.2 1-1 1.6-1.9 1.6z"/><path class="st3" d="M526.6 234.3c-1.1 0-1.9-.9-1.9-1.9 0-7.1 5.8-12.8 12.8-12.8 1.8 0 3.5.3 5.1 1 1 .4 1.4 1.5 1 2.5s-1.5 1.4-2.5 1c-1.1-.5-2.3-.7-3.6-.7-5 0-9 4-9 9 0 1.1-.9 1.9-1.9 1.9z"/><path class="st3" d="M567.9 234.3h-41.4c-1.1 0-1.9-.9-1.9-1.9 0-1.1.9-1.9 1.9-1.9h41.4c1.1 0 1.9.9 1.9 1.9 0 1.1-.8 1.9-1.9 1.9z"/><g><path class="st3" d="M430.3 145.1c-.9 0-1.6-.6-1.9-1.5-.3-1.2-.4-2.4-.4-3.6 0-8.8 7.2-16 16-16 5.8 0 11.2 3.2 14 8.3.5.9.2 2.1-.7 2.6s-2.1.2-2.6-.7c-2.2-3.9-6.3-6.3-10.7-6.3-6.7 0-12.2 5.5-12.2 12.2 0 .9.1 1.9.3 2.8.2 1-.4 2-1.4 2.3-.1-.1-.2-.1-.4-.1z"/><path class="st3" d="M471.7 145.1c-1.1 0-1.9-.9-1.9-1.9 0-5-4-9-9-9-1.2 0-2.4.2-3.6.7-1 .4-2.1 0-2.5-1s0-2.1 1-2.5c1.6-.7 3.3-1 5-1 7.1 0 12.8 5.8 12.8 12.8.1 1.1-.8 1.9-1.8 1.9z"/><path class="st3" d="M471.7 145.1h-41.4c-1.1 0-1.9-.9-1.9-1.9 0-1.1.9-1.9 1.9-1.9h41.4c1.1 0 1.9.9 1.9 1.9 0 1.1-.9 1.9-1.9 1.9z"/></g><g><path class="st3" d="M477.3 201c-.7 0-1.3-.4-1.7-1-2.2-3.9-6.3-6.3-10.7-6.3-3.9 0-7.4 1.8-9.7 4.8-.6.8-1.8 1-2.7.4s-1-1.8-.4-2.7c3.1-4 7.7-6.3 12.8-6.3 5.8 0 11.2 3.2 14 8.3.5.9.2 2.1-.7 2.6-.3.1-.6.2-.9.2z"/><path class="st3" d="M492.5 211c-1.1 0-1.9-.9-1.9-1.9 0-5-4-9-9-9-1.2 0-2.4.2-3.6.7-1 .4-2.1 0-2.5-1s0-2.1 1-2.5c1.6-.7 3.3-1 5-1 7.1 0 12.8 5.8 12.8 12.8.1 1.1-.7 1.9-1.8 1.9z"/><path class="st3" d="M492.5 211h-27.1c-1.1 0-1.9-.9-1.9-1.9 0-1.1.9-1.9 1.9-1.9h27.1c1.1 0 1.9.9 1.9 1.9 0 1.1-.8 1.9-1.9 1.9z"/></g></g><g><path class="st3" d="M139.1 235.9c-.9 0-1.6-.6-1.9-1.5-.3-1.2-.4-2.4-.4-3.6 0-8.8 7.2-16 16-16 5.8 0 11.2 3.2 14 8.3.5.9.2 2.1-.7 2.6-.9.5-2.1.2-2.6-.7-2.2-3.9-6.3-6.3-10.7-6.3-6.7 0-12.2 5.5-12.2 12.2 0 .9.1 1.9.3 2.8.2 1-.4 2-1.4 2.3-.1-.2-.2-.1-.4-.1z"/><path class="st3" d="M180.5 235.9c-1.1 0-1.9-.9-1.9-1.9 0-5-4-9-9-9-1.2 0-2.4.2-3.6.7-1 .4-2.1 0-2.5-1s0-2.1 1-2.5c1.6-.7 3.3-1 5.1-1 7.1 0 12.8 5.8 12.8 12.8 0 1-.9 1.9-1.9 1.9z"/><path class="st3" d="M180.5 235.9h-41.4c-1.1 0-1.9-.9-1.9-1.9 0-1.1.9-1.9 1.9-1.9h41.4c1.1 0 1.9.9 1.9 1.9 0 1-.9 1.9-1.9 1.9z"/><g><path class="st3" d="M276.7 146.6h-.4c-1-.2-1.7-1.3-1.4-2.3.2-.9.3-1.8.3-2.8 0-6.7-5.5-12.2-12.2-12.2-4.4 0-8.5 2.4-10.7 6.3-.5.9-1.7 1.3-2.6.7-.9-.5-1.3-1.7-.7-2.6 2.8-5.1 8.2-8.3 14-8.3 8.8 0 16 7.2 16 16 0 1.2-.1 2.5-.4 3.6-.2 1.1-1 1.6-1.9 1.6z"/><path class="st3" d="M235.4 146.6c-1.1 0-1.9-.9-1.9-1.9 0-7.1 5.8-12.8 12.8-12.8 1.8 0 3.5.3 5 1 1 .4 1.4 1.5 1 2.5s-1.5 1.4-2.5 1c-1.1-.5-2.3-.7-3.6-.7-5 0-9 4-9 9 .1 1.1-.8 1.9-1.8 1.9z"/><path class="st3" d="M276.7 146.6h-41.4c-1.1 0-1.9-.9-1.9-1.9 0-1.1.9-1.9 1.9-1.9h41.4c1.1 0 1.9.9 1.9 1.9 0 1.1-.8 1.9-1.9 1.9z"/></g><g><path class="st3" d="M229.7 202.5c-.3 0-.6-.1-.9-.2-.9-.5-1.3-1.7-.7-2.6 2.8-5.1 8.2-8.3 14-8.3 5.1 0 9.7 2.3 12.8 6.3.6.8.5 2-.4 2.7-.8.6-2 .5-2.7-.4-2.3-3.1-5.9-4.8-9.7-4.8-4.4 0-8.5 2.4-10.7 6.3-.3.6-1 1-1.7 1z"/><path class="st3" d="M214.5 212.5c-1.1 0-1.9-.9-1.9-1.9 0-7.1 5.8-12.8 12.8-12.8 1.8 0 3.5.3 5.1 1 1 .4 1.4 1.5 1 2.5s-1.5 1.4-2.5 1c-1.1-.5-2.3-.7-3.6-.7-5 0-9 4-9 9 0 1.1-.8 1.9-1.9 1.9z"/><path class="st3" d="M241.6 212.5h-27.1c-1.1 0-1.9-.9-1.9-1.9 0-1.1.9-1.9 1.9-1.9h27.1c1.1 0 1.9.9 1.9 1.9 0 1.1-.9 1.9-1.9 1.9z"/></g></g><g><path class="st3" d="M354.9 525.7c-45 0-87.3-17.5-119.1-49.3-31.8-31.8-49.3-74.1-49.3-119.1S204 270 235.8 238.2s74.1-49.3 119.1-49.3 87.3 17.5 119.1 49.3 49.3 74.1 49.3 119.1-17.5 87.3-49.3 119.1c-31.8 31.7-74.1 49.3-119.1 49.3zm0-330.9c-89.5 0-162.4 72.8-162.4 162.4s72.8 162.4 162.4 162.4 162.4-72.9 162.4-162.4-72.9-162.4-162.4-162.4z"/></g><g><path class="st1" d="M353.4 706.8c-47.7 0-94-9.3-137.6-27.8-42.1-17.8-79.9-43.3-112.3-75.7C71 570.8 45.6 533.1 27.8 491 9.4 447.4 0 401.2 0 353.4s9.3-94 27.8-137.6c17.8-42.1 43.3-79.9 75.7-112.3C136 71 173.7 45.6 215.8 27.8 259.4 9.4 305.6 0 353.4 0s94 9.3 137.6 27.8c42.1 17.8 79.9 43.3 112.3 75.7 32.5 32.5 57.9 70.2 75.7 112.3 18.4 43.6 27.8 89.8 27.8 137.6s-9.3 94-27.8 137.6c-17.8 42.1-43.3 79.9-75.7 112.3-32.5 32.5-70.2 57.9-112.3 75.7-43.6 18.5-89.9 27.8-137.6 27.8zm0-699.1c-46.7 0-92 9.1-134.6 27.2-41.2 17.4-78.2 42.3-109.9 74.1-31.8 31.8-56.7 68.7-74.1 109.9-18 42.6-27.2 87.9-27.2 134.6s9.1 92 27.2 134.6c17.4 41.1 42.3 78.1 74.1 109.9s68.7 56.7 109.9 74.1c42.6 18 87.9 27.2 134.6 27.2s92-9.1 134.6-27.2c41.2-17.4 78.2-42.3 109.9-74.1 31.8-31.8 56.7-68.7 74.1-109.9 18-42.6 27.2-87.9 27.2-134.6s-9.1-92-27.2-134.6c-17.4-41.2-42.3-78.2-74.1-109.9-31.8-31.8-68.8-56.7-109.9-74.1-42.7-18.1-87.9-27.2-134.6-27.2z"/></g><g><path class="st1" d="M355.1 617.1c-35.7 0-70.4-7-103-20.8-31.5-13.3-59.8-32.4-84.1-56.7-24.3-24.3-43.4-52.6-56.7-84.1-13.8-32.6-20.8-67.3-20.8-103s7-70.4 20.8-103c13.3-31.5 32.4-59.8 56.7-84.1 24.3-24.3 52.6-43.4 84.1-56.7 32.6-13.8 67.3-20.8 103-20.8s70.4 7 103 20.8c31.5 13.3 59.8 32.4 84.1 56.7s43.4 52.6 56.7 84.1c13.8 32.6 20.8 67.3 20.8 103s-7 70.4-20.8 103c-13.3 31.5-32.4 59.8-56.7 84.1s-52.6 43.4-84.1 56.7c-32.6 13.8-67.3 20.8-103 20.8zm0-521.5c-68.6 0-133.2 26.7-181.7 75.3-48.5 48.5-75.3 113.1-75.3 181.7s26.7 133.2 75.3 181.7c48.5 48.5 113.1 75.3 181.7 75.3s133.2-26.7 181.7-75.3c48.5-48.5 75.3-113.1 75.3-181.7s-26.7-133.2-75.3-181.7c-48.5-48.6-113.1-75.3-181.7-75.3z"/></g><g><path class="st3" d="M50.7 319.7h-.5c-2.1-.2-3.6-2.1-3.3-4.2 4.5-38 15.8-74.4 33.7-108.2 1-1.9 3.3-2.6 5.1-1.6 1.9 1 2.6 3.3 1.6 5.1-17.4 32.9-28.5 68.4-32.9 105.5-.2 2-1.8 3.4-3.7 3.4z"/></g><g><path class="st3" d="M70.8 470.7c-1.5 0-2.9-.9-3.5-2.4-9.2-22.7-15.7-46.6-19.2-70.9-.3-2.1 1.1-4 3.2-4.3 2.1-.3 4 1.1 4.3 3.2 3.5 23.7 9.8 47 18.7 69.2.8 1.9-.2 4.2-2.1 5-.5.1-1 .2-1.4.2z"/></g><g><path class="st3" d="M638.6 470.7c-.5 0-1-.1-1.4-.3-1.9-.8-2.9-3-2.1-5 9-22.2 15.3-45.5 18.7-69.2.3-2.1 2.2-3.5 4.3-3.2s3.5 2.2 3.2 4.3c-3.6 24.3-10 48.2-19.2 70.9-.5 1.6-2 2.5-3.5 2.5z"/></g><g><path class="st3" d="M658.7 319.7c-1.9 0-3.5-1.4-3.8-3.4-4.4-37-15.4-72.4-32.8-105.3-1-1.9-.3-4.2 1.6-5.1 1.9-1 4.2-.3 5.1 1.6 17.8 33.7 29.1 70 33.6 107.9.2 2.1-1.2 4-3.3 4.2-.1.1-.3.1-.4.1z"/></g><g><path class="st2" d="M661.7 383.6c-.8.1-1.4-.8-2.1-1.4-7-6.4-14.1-12.7-21-19.2-3.2-3-6.5-5.9-8-10.3-2.2-6.6 0-14.5 5.6-19 3-2.4 6.9-3.8 10.8-3.9h.3c5.6 0 11.1 2.9 14.3 7.5.9 1.3-1.1 3-1.6 4.2 0 .1-.3-.6-.3-.5-.1-.1-.1-.3-.2-.4-2.3-4.4-7.1-7.3-12.2-7.3h-.2c-5 0-10 2.9-12.4 7.5-2.3 4.5-2.1 10.2 1.1 14.4 1.9 2.5 4.3 4.5 6.7 6.7 5.5 5.2 11.1 10.3 16.7 15.4l1 1s.5 5.1.9 5.3h.6z" id="Fill-1_18_"/><path class="st2" d="M647.1 339.1c2.9 0 5.7 1.7 7.1 4.3 1.2 2.2 1.2 4.9.2 7.2-1.5 3.2-5.2 5.1-8.8 4.4-3.3-.6-6-3.5-6.4-6.8-.3-2.5.6-5.2 2.5-6.9 1.5-1.4 3.4-2.1 5.4-2.2zm-.1 3.6c-2 0-3.9 1.5-4.4 3.5-.6 2.8 2 5.9 5.2 5.4 1.8-.3 3.4-1.9 3.6-3.7.5-2.6-1.5-5.2-4.4-5.2.1 0 .1 0 0 0z" id="Fill-3_18_"/></g><g id="Fill-2_55_"><path class="st2" d="M675.5 329.8c5.9 0 11.7 3.2 14.8 8.3 3.3 5.4 3.4 12.7.1 17.9-1.7 2.6-4.1 4.8-6.4 7-7.2 6.9-14.6 13.5-22 20.2l-.2.2c-.4.3-.9.3-1.2.1-.7-.4-.6-1.6-.7-2.5-.7-10.2-1.4-20.4-1.7-30.6-.1-3.9 0-7.7 1.9-11.3 2.9-5.5 8.9-9.2 15.3-9.2 0-.1.1-.1.1-.1zm0 11c3.5 0 6.4 2.9 6.4 6.4s-2.9 6.4-6.4 6.4-6.4-2.9-6.4-6.4c0-3.6 2.9-6.4 6.4-6.4z"/></g><g id="Fill-2_54_"><path class="st4" d="M144.5 437c4.2-1.7 9.3-1 13 1.8 3.9 2.9 6 8.1 5.1 12.8-.5 2.4-1.6 4.6-2.6 6.8-3.2 7-6.6 13.8-10 20.7l-.1.2c-.2.3-.5.5-.9.4-.6-.1-.9-.9-1.2-1.6-3.4-7.1-6.8-14.2-9.9-21.5-1.2-2.7-2.2-5.5-1.9-8.6.5-4.8 3.8-9.1 8.3-10.9.1-.1.1-.1.2-.1zm3 7.8c2.5-1 5.4.2 6.4 2.8 1 2.5-.2 5.4-2.8 6.4s-5.4-.2-6.4-2.8c-.9-2.5.3-5.4 2.8-6.4z"/></g><g id="Fill-2_50_"><path class="st4" d="M211.1 497.9c3.3-1.3 7.2-.8 10.1 1.4 3 2.3 4.7 6.3 4 9.9-.4 1.8-1.2 3.5-2 5.3-2.5 5.4-5.2 10.8-7.8 16.1l-.1.2c-.1.2-.4.4-.7.3-.5-.1-.7-.7-.9-1.3-2.6-5.5-5.3-11-7.7-16.7-.9-2.1-1.7-4.3-1.4-6.7.3-3.6 2.8-7 6.5-8.5-.1.1-.1 0 0 0zm2.4 6.1c2-.8 4.2.2 5 2.2s-.2 4.2-2.2 5-4.2-.2-5-2.2.2-4.2 2.2-5z"/></g><g id="Fill-2_49_"><path class="st4" d="M273.6 555.6c3.3-1.3 7.2-.8 10.1 1.4 3 2.3 4.7 6.3 4 9.9-.4 1.8-1.2 3.5-2 5.3-2.5 5.4-5.2 10.8-7.8 16.1l-.1.2c-.1.2-.4.4-.7.3-.5-.1-.7-.7-.9-1.3-2.6-5.5-5.3-11-7.7-16.7-.9-2.1-1.7-4.3-1.4-6.7.3-3.7 2.9-7 6.5-8.5-.1 0 0 0 0 0zm2.4 6.1c2-.8 4.2.2 5 2.2s-.2 4.2-2.2 5-4.2-.2-5-2.2c-.7-2 .2-4.2 2.2-5z"/></g><g id="Fill-2_48_"><path class="st4" d="M565.1 437c4.6 1.8 7.8 6.2 8.3 10.9.4 3.1-.7 5.9-1.9 8.6-3.1 7.2-6.5 14.3-9.9 21.5-.3.7-.6 1.5-1.2 1.6-.3 0-.7-.1-.9-.4l-.1-.2c-3.4-6.9-6.8-13.7-10-20.7-1-2.2-2.1-4.4-2.6-6.8-.9-4.7 1.3-9.9 5.1-12.8 3.7-2.8 8.8-3.4 13-1.8l.2.1zm-.4 14.2c-1 2.5-3.9 3.8-6.4 2.8s-3.8-3.9-2.8-6.4 3.9-3.8 6.4-2.8c2.6 1 3.8 3.9 2.8 6.4z"/></g><g id="Fill-2_44_"><path class="st4" d="M498.5 498c3.5 1.4 6.1 4.8 6.5 8.5.3 2.4-.5 4.6-1.4 6.7-2.4 5.6-5.1 11.1-7.7 16.7-.3.5-.4 1.2-.9 1.3-.3 0-.5-.1-.7-.3l-.1-.2c-2.6-5.3-5.3-10.7-7.8-16.1-.8-1.7-1.6-3.4-2-5.3-.7-3.6 1-7.7 4-9.9 2.8-2.3 6.7-2.8 10.1-1.4 0-.1 0 0 0 0zm-.3 11c-.8 2-3 2.9-5 2.2-2-.8-2.9-3-2.2-5 .8-2 3-2.9 5-2.2 2 .8 3 3 2.2 5z"/></g><g id="Fill-2_32_"><path class="st4" d="M436 555.7c3.5 1.4 6.1 4.8 6.5 8.5.3 2.4-.5 4.6-1.4 6.7-2.4 5.6-5.1 11.1-7.7 16.7-.3.5-.4 1.2-.9 1.3-.3 0-.5-.1-.7-.3l-.1-.2c-2.6-5.3-5.3-10.7-7.8-16.1-.8-1.7-1.6-3.4-2-5.3-.7-3.6 1-7.7 4-9.9 2.8-2.3 6.7-2.8 10.1-1.4-.1-.1 0-.1 0 0zm-.3 11c-.8 2-3 2.9-5 2.2-2-.8-2.9-3-2.2-5 .8-2 3-2.9 5-2.2 2 .8 2.9 3 2.2 5z"/></g><g><path class="st3" d="M148.4 403.8c-1.1 0-1.9-.9-1.9-1.9v-96.8c0-1.1.9-1.9 1.9-1.9 1.1 0 1.9.9 1.9 1.9v96.8c0 1-.9 1.9-1.9 1.9zM156.7 412.1c-1.1 0-1.9-.9-1.9-1.9V296.8c0-1.1.9-1.9 1.9-1.9 1.1 0 1.9.9 1.9 1.9v113.4c0 1-.9 1.9-1.9 1.9zM164.8 420.2c-1.1 0-1.9-.9-1.9-1.9V288.7c0-1.1.9-1.9 1.9-1.9s1.9.9 1.9 1.9v129.6c0 1-.9 1.9-1.9 1.9zM173.1 428.4c-1.1 0-1.9-.9-1.9-1.9V280.4c0-1.1.9-1.9 1.9-1.9 1.1 0 1.9.9 1.9 1.9v146.2c0 1-.9 1.8-1.9 1.8zM181.2 306.6c-1.1 0-1.9-.9-1.9-1.9v-32.4c0-1.1.9-1.9 1.9-1.9 1.1 0 1.9.9 1.9 1.9v32.4c0 1.1-.9 1.9-1.9 1.9zM181.2 436.5c-1.1 0-1.9-.9-1.9-1.9v-32.4c0-1.1.9-1.9 1.9-1.9 1.1 0 1.9.9 1.9 1.9v32.4c0 1.1-.9 1.9-1.9 1.9zM189.5 283.3c-1.1 0-1.9-.9-1.9-1.9V264c0-1.1.9-1.9 1.9-1.9 1.1 0 1.9.9 1.9 1.9v17.4c0 1.1-.9 1.9-1.9 1.9zM189.5 444.8c-1.1 0-1.9-.9-1.9-1.9v-17.4c0-1.1.9-1.9 1.9-1.9 1.1 0 1.9.9 1.9 1.9v17.4c0 1.1-.9 1.9-1.9 1.9z"/><g><path class="st3" d="M107.5 362.9c-1.1 0-1.9-.9-1.9-1.9v-15.1c0-1.1.9-1.9 1.9-1.9s1.9.9 1.9 1.9V361c0 1.1-.8 1.9-1.9 1.9zM115.6 371c-1.1 0-1.9-.9-1.9-1.9v-31.3c0-1.1.9-1.9 1.9-1.9 1.1 0 1.9.9 1.9 1.9v31.3c0 1-.8 1.9-1.9 1.9zM123.9 379.3c-1.1 0-1.9-.9-1.9-1.9v-47.9c0-1.1.9-1.9 1.9-1.9 1.1 0 1.9.9 1.9 1.9v47.9c0 1-.8 1.9-1.9 1.9zM132 387.4c-1.1 0-1.9-.9-1.9-1.9v-64c0-1.1.9-1.9 1.9-1.9 1.1 0 1.9.9 1.9 1.9v64c0 1-.8 1.9-1.9 1.9zM140.3 395.7c-1.1 0-1.9-.9-1.9-1.9v-80.6c0-1.1.9-1.9 1.9-1.9 1.1 0 1.9.9 1.9 1.9v80.6c0 1-.9 1.9-1.9 1.9z"/></g><g><path class="st3" d="M562.3 404.1c-1.1 0-1.9-.9-1.9-1.9v-96.8c0-1.1.9-1.9 1.9-1.9 1.1 0 1.9.9 1.9 1.9v96.8c0 1.1-.9 1.9-1.9 1.9zM554 412.4c-1.1 0-1.9-.9-1.9-1.9V297.1c0-1.1.9-1.9 1.9-1.9 1.1 0 1.9.9 1.9 1.9v113.4c0 1.1-.9 1.9-1.9 1.9zM545.9 420.5c-1.1 0-1.9-.9-1.9-1.9V289c0-1.1.9-1.9 1.9-1.9 1.1 0 1.9.9 1.9 1.9v129.6c0 1-.9 1.9-1.9 1.9zM537.6 428.8c-1.1 0-1.9-.9-1.9-1.9V280.7c0-1.1.9-1.9 1.9-1.9s1.9.9 1.9 1.9v146.2c0 1-.9 1.9-1.9 1.9zM529.5 307c-1.1 0-1.9-.9-1.9-1.9v-32.4c0-1.1.9-1.9 1.9-1.9s1.9.9 1.9 1.9v32.4c0 1-.8 1.9-1.9 1.9zM529.5 436.9c-1.1 0-1.9-.9-1.9-1.9v-32.4c0-1.1.9-1.9 1.9-1.9s1.9.9 1.9 1.9V435c0 1-.8 1.9-1.9 1.9zM521.2 283.7c-1.1 0-1.9-.9-1.9-1.9v-17.4c0-1.1.9-1.9 1.9-1.9 1.1 0 1.9.9 1.9 1.9v17.4c0 1-.8 1.9-1.9 1.9zM521.2 445.2c-1.1 0-1.9-.9-1.9-1.9v-17.4c0-1.1.9-1.9 1.9-1.9 1.1 0 1.9.9 1.9 1.9v17.4c0 1-.8 1.9-1.9 1.9z"/><g><path class="st3" d="M603.1 363.2c-1.1 0-1.9-.9-1.9-1.9v-15.1c0-1.1.9-1.9 1.9-1.9s1.9.9 1.9 1.9v15.1c0 1.1-.8 1.9-1.9 1.9zM595 371.3c-1.1 0-1.9-.9-1.9-1.9v-31.2c0-1.1.9-1.9 1.9-1.9 1.1 0 1.9.9 1.9 1.9v31.3c0 1-.8 1.8-1.9 1.8zM586.7 379.6c-1.1 0-1.9-.9-1.9-1.9v-47.9c0-1.1.9-1.9 1.9-1.9 1.1 0 1.9.9 1.9 1.9v47.9c.1 1.1-.8 1.9-1.9 1.9zM578.7 387.7c-1.1 0-1.9-.9-1.9-1.9v-64c0-1.1.9-1.9 1.9-1.9s1.9.9 1.9 1.9v64c0 1.1-.9 1.9-1.9 1.9zM570.4 396c-1.1 0-1.9-.9-1.9-1.9v-80.6c0-1.1.9-1.9 1.9-1.9s1.9.9 1.9 1.9v80.6c0 1.1-.9 1.9-1.9 1.9z"/></g></g><g><path class="st3" d="M404.2 148.7h-96.8c-1.1 0-1.9-.9-1.9-1.9s.9-1.9 1.9-1.9h96.8c1.1 0 1.9.9 1.9 1.9s-.9 1.9-1.9 1.9zM412.5 157H299.1c-1.1 0-1.9-.9-1.9-1.9 0-1.1.9-1.9 1.9-1.9h113.4c1.1 0 1.9.9 1.9 1.9 0 1-.9 1.9-1.9 1.9zM420.6 165.1H291c-1.1 0-1.9-.9-1.9-1.9s.9-1.9 1.9-1.9h129.6c1.1 0 1.9.9 1.9 1.9s-.9 1.9-1.9 1.9zM428.9 173.4H282.7c-1.1 0-1.9-.9-1.9-1.9 0-1.1.9-1.9 1.9-1.9h146.2c1.1 0 1.9.9 1.9 1.9 0 1-.9 1.9-1.9 1.9zM437 181.5h-32.4c-1.1 0-1.9-.9-1.9-1.9 0-1.1.9-1.9 1.9-1.9H437c1.1 0 1.9.9 1.9 1.9 0 1-.9 1.9-1.9 1.9zM307 181.5h-32.4c-1.1 0-1.9-.9-1.9-1.9 0-1.1.9-1.9 1.9-1.9H307c1.1 0 1.9.9 1.9 1.9s-.8 1.9-1.9 1.9zM445.2 189.8h-17.4c-1.1 0-1.9-.9-1.9-1.9s.9-1.9 1.9-1.9h17.4c1.1 0 1.9.9 1.9 1.9s-.8 1.9-1.9 1.9zM283.8 189.8h-17.4c-1.1 0-1.9-.9-1.9-1.9s.9-1.9 1.9-1.9h17.4c1.1 0 1.9.9 1.9 1.9s-.9 1.9-1.9 1.9z"/><g><path class="st3" d="M363.3 107.8h-15.1c-1.1 0-1.9-.9-1.9-1.9 0-1.1.9-1.9 1.9-1.9h15.1c1.1 0 1.9.9 1.9 1.9 0 1.1-.8 1.9-1.9 1.9zM371.4 115.9h-31.3c-1.1 0-1.9-.9-1.9-1.9s.9-1.9 1.9-1.9h31.3c1.1 0 1.9.9 1.9 1.9s-.8 1.9-1.9 1.9zM379.7 124.2h-47.9c-1.1 0-1.9-.9-1.9-1.9 0-1.1.9-1.9 1.9-1.9h47.9c1.1 0 1.9.9 1.9 1.9 0 1.1-.8 1.9-1.9 1.9zM387.8 132.3h-64c-1.1 0-1.9-.9-1.9-1.9s.9-1.9 1.9-1.9h64c1.1 0 1.9.9 1.9 1.9s-.9 1.9-1.9 1.9zM396.1 140.6h-80.6c-1.1 0-1.9-.9-1.9-1.9 0-1.1.9-1.9 1.9-1.9h80.6c1.1 0 1.9.9 1.9 1.9s-.9 1.9-1.9 1.9z"/></g><g><path class="st3" d="M403.8 562.6H307c-1.1 0-1.9-.9-1.9-1.9 0-1.1.9-1.9 1.9-1.9h96.8c1.1 0 1.9.9 1.9 1.9 0 1-.8 1.9-1.9 1.9zM412.1 554.3H298.7c-1.1 0-1.9-.9-1.9-1.9 0-1.1.9-1.9 1.9-1.9h113.4c1.1 0 1.9.9 1.9 1.9 0 1-.8 1.9-1.9 1.9zM420.2 546.2H290.6c-1.1 0-1.9-.9-1.9-1.9s.9-1.9 1.9-1.9h129.6c1.1 0 1.9.9 1.9 1.9s-.8 1.9-1.9 1.9zM428.5 537.9H282.4c-1.1 0-1.9-.9-1.9-1.9s.9-1.9 1.9-1.9h146.2c1.1 0 1.9.9 1.9 1.9s-.9 1.9-2 1.9zM436.6 529.8h-32.4c-1.1 0-1.9-.9-1.9-1.9s.9-1.9 1.9-1.9h32.4c1.1 0 1.9.9 1.9 1.9s-.8 1.9-1.9 1.9zM306.7 529.8h-32.4c-1.1 0-1.9-.9-1.9-1.9s.9-1.9 1.9-1.9h32.4c1.1 0 1.9.9 1.9 1.9s-.9 1.9-1.9 1.9zM444.9 521.5h-17.4c-1.1 0-1.9-.9-1.9-1.9 0-1.1.9-1.9 1.9-1.9h17.4c1.1 0 1.9.9 1.9 1.9 0 1.1-.8 1.9-1.9 1.9zM283.4 521.5H266c-1.1 0-1.9-.9-1.9-1.9 0-1.1.9-1.9 1.9-1.9h17.4c1.1 0 1.9.9 1.9 1.9 0 1.1-.8 1.9-1.9 1.9z"/><g><path class="st3" d="M363 603.4h-15.1c-1.1 0-1.9-.9-1.9-1.9s.9-1.9 1.9-1.9H363c1.1 0 1.9.9 1.9 1.9s-.9 1.9-1.9 1.9zM371.1 595.3h-31.3c-1.1 0-1.9-.9-1.9-1.9 0-1.1.9-1.9 1.9-1.9h31.3c1.1 0 1.9.9 1.9 1.9 0 1.1-.9 1.9-1.9 1.9zM379.4 587h-47.9c-1.1 0-1.9-.9-1.9-1.9s.9-1.9 1.9-1.9h47.9c1.1 0 1.9.9 1.9 1.9s-.9 1.9-1.9 1.9zM387.5 579h-64c-1.1 0-1.9-.9-1.9-1.9s.9-1.9 1.9-1.9h64c1.1 0 1.9.9 1.9 1.9s-.9 1.9-1.9 1.9zM395.8 570.7h-80.7c-1.1 0-1.9-.9-1.9-1.9s.9-1.9 1.9-1.9h80.6c1.1 0 1.9.9 1.9 1.9s-.8 1.9-1.8 1.9z"/></g></g></g></g><g><path class="st1" d="M354.9 612.7l-2.2-2.2-257-257L354.9 94.2l2.2 2.2 257 257.1-259.2 259.2zM104.3 353.5l250.6 250.6 250.6-250.6-250.6-250.7-250.6 250.7z"/></g><g><path class="st1" d="M354.9 536.9c-49 0-95.1-19.1-129.7-53.7-34.7-34.6-53.7-80.7-53.7-129.7s19.1-95.1 53.7-129.7c34.7-34.7 80.7-53.7 129.7-53.7s95.1 19.1 129.7 53.7c34.7 34.6 53.7 80.7 53.7 129.7s-19.1 95.1-53.7 129.7c-34.6 34.6-80.7 53.7-129.7 53.7zm0-360.8c-47.4 0-91.9 18.4-125.4 52-33.5 33.5-52 78-52 125.4 0 47.4 18.4 91.9 52 125.4 33.5 33.5 78 52 125.4 52s91.9-18.4 125.4-52c33.5-33.5 52-78 52-125.4 0-47.4-18.4-91.9-52-125.4-33.5-33.6-78-52-125.4-52z"/></g><g><path class="st3" d="M444.6 257.3l-51 51-.1.1c-.9.9-.9 2.4 0 3.3.5.5 1 .7 1.6.7s1.2-.2 1.6-.7l52.2-52.2c-7.3 13.7-18.8 35-30.5 55.8l4.1 2.3c13.6-24.2 27-49.2 33.8-61.9 1-1.9.7-4.1-.8-5.6s-3.7-1.8-5.6-.8c-10.2 5.4-36.8 19.6-62.3 34l2.3 4.1c20.7-11.7 41.9-23.2 54.7-30.1zM404.4 354.4h-4.7zM260.7 447.1l53.3-53.3.4-.4c.9-.9.9-2.4 0-3.3-.9-.9-2.4-.9-3.3 0L261 440.2c7.4-13.7 18.1-33.6 29.2-53.2l-4.1-2.3c-13.8 24.5-27.3 49.6-34.1 62.4-.7 1.3-.7 2.9-.1 4.2.2.5.5 1 1 1.4.9.9 2.1 1.4 3.4 1.4.8 0 1.5-.2 2.2-.6 12.7-6.8 37.8-20.2 62.1-33.9l-2.3-4.1c-21.7 12.3-44 24.3-57.6 31.6zM285.8 317.5l4.1-2.3c-11.8-20.9-23.4-42.4-30.1-55l51.5 51.5c.5.5 1 .7 1.6.7.6 0 1.2-.2 1.6-.7.9-.9.9-2.4 0-3.3L263 256.9c13.6 7.3 34.5 18.6 55.1 30.1l2.3-4.1c-24.4-13.7-49.3-27.1-62-33.8-1.9-1-4.1-.7-5.6.8s-1.8 3.7-.8 5.6c5.4 10.3 19.5 36.6 33.8 62zM456.5 451.3c.6-1.3.6-2.9-.1-4.2-5.4-10.2-19.6-36.8-34.1-62.5l-4.1 2.3c11.2 19.9 22.3 40.4 29.2 53.3l-49.8-49.8-.6-.6c-.9-.9-2.4-.9-3.3 0-.9.9-.9 2.4 0 3.3l.6.6 53.4 53.4c-13.7-7.3-36.1-19.4-57.8-31.6l-2.3 4.1c24.3 13.7 49.5 27.2 62.4 34.1.7.4 1.5.6 2.2.6 1.2 0 2.4-.5 3.4-1.4.3-.6.7-1 .9-1.6 0 .1 0 0 0 0z"/><g><path class="st2" d="M404.3 349.3c0-.1 0-.1 0 0-1.1-13.3-7.4-25-16.8-33.4-8.9-7.8-20.5-12.6-33.3-12.6s-24.5 4.8-33.3 12.6c-9.4 8.3-15.7 20.1-16.8 33.3-.1 1.4-.2 2.9-.2 4.4 0 6.6 2.9 20.9 7.2 38.8 11.2 45.9 32.2 115.6 40 141.4.9 3 5.2 3 6.1 0 7.9-25.8 28.9-95.5 40.1-141.4 4.4-17.9 7.2-32.1 7.2-38.8 0-1.4 0-2.9-.2-4.3zm-50.1-22c12.2 0 22.1 9.9 22.1 22.1s-9.9 22.1-22.1 22.1-22.1-9.9-22.1-22.1 9.9-22.1 22.1-22.1z"/></g><g><path class="st1" d="M352.5 174.8h4.8V307h-4.8z"/><path class="st1" d="M400.5 370.4l-3.4-10.9 2.4-9.4v-.2c.1-1.2.2-2.5.2-3.9 0-5.5-2.3-17.6-6.7-35.8-10.4-42.6-29.7-106.9-37.6-132.6-.1-.3-.3-.4-.6-.4s-.5.2-.6.4c-7.8 25.6-27.1 89.8-37.5 132.6-4.4 18.3-6.7 30.3-6.7 35.8 0 1.3.2 4.1.2 4.1l6.9 13.4-8.5 3.2c-.1-1.4-3.3-17.7-3.3-19.2 0-6 2.2-19.5 6.8-38.4 10.4-42.8 29.8-107.2 37.6-132.9.7-2.3 2.8-3.8 5.2-3.8 2.4 0 4.5 1.5 5.2 3.8 7.9 25.7 27.2 90.1 37.6 132.9 4.6 18.9 6.7 32.7 6.7 38.7 0 1.4-2.5 14.2-3.9 22.6z"/><path class="st1" d="M310.2 350.3l-1.4 14.2c-4.5-11.4-3.5-15.5-3.5-17 0-5.6 1.9-17.9 5.9-34.6-42.7 10.6-103.9 29-128.8 36.6-.3.1-.4.3-.4.6s.2.5.4.6c25.7 7.8 89.9 27.2 132.6 37.6l4 5.8c-.6-.2-6.4-1.5-7-1.6-42.8-10.5-105.7-29.5-131-37.2-2.3-.7-3.8-2.8-3.8-5.2s1.5-4.5 3.8-5.2c25.7-7.8 90-27.2 132.9-37.6l3.8-.9-.9 3.8c-1.7 6.9-3 12.8-4.1 17.9M395.9 392.9l-1.1-4.6c42.6-10.4 106.9-29.7 132.6-37.6.3-.1.4-.3.4-.6s-.2-.5-.4-.6c-25.7-7.8-89.9-27.2-132.6-37.6l1.1-4.6c42.8 10.4 107.2 29.8 132.9 37.6 2.3.7 3.8 2.8 3.8 5.2 0 2.4-1.5 4.5-3.8 5.2-25.7 7.8-90.2 27.2-132.9 37.6z"/><path class="st1" d="M182.1 347.7h125.7v4.8H182.1z"/><g><path class="st1" d="M401.9 347.7h127v4.8h-127z"/></g></g></g></g></svg>