<svg  xmlns="http://www.w3.org/2000/svg" style="width:100%;height:100%" viewBox="0 0 60 24"><path d="M18.314 15.727c-.139 1.635-.679 3.088-1.619 4.36-.93 1.271-2.159 2.25-3.687 2.933-1.517.684-3.163 1.01-4.937.978-2.436-.054-4.354-.839-5.754-2.357-1.4-1.517-2.164-3.574-2.293-6.17-.096-1.732.091-3.618.562-5.66.48-2.04 1.255-3.814 2.324-5.32 1.08-1.518 2.345-2.651 3.799-3.4C8.173.334 9.77-.03 11.502.002c2.543.044 4.552.808 6.027 2.293 1.485 1.486 2.292 3.532 2.42 6.14l-5.466-.017c.021-1.42-.235-2.436-.77-3.045-.534-.61-1.378-.935-2.532-.978-2.885-.096-4.643 2.148-5.274 6.732-.288 2.073-.433 3.554-.433 4.44-.053 2.63.92 3.981 2.918 4.056 1.293.043 2.324-.273 3.094-.946.769-.684 1.26-1.646 1.474-2.885l5.354-.064zm12.454-7.63L34.583.339h6.428l-6.524 11.573 6.7 11.765h-6.492l-3.927-7.902-3.927 7.902h-6.476l6.684-11.765L20.541.339h6.412l3.815 7.758zM49.254 19.35h9.794v4.327h-15.42V.34h5.626v19.01z" fill="var(--lumo-primary-color, #D61F2C)"/></svg>