<svg id="Logomark" xmlns="http://www.w3.org/2000/svg" viewBox="0 0 946.78 163.1">
  <title>smt-2017-logo</title>
  <g>
    <path d="M67.52,40.7A51.89,51.89,0,0,1,99.36,30.35V3A78.14,78.14,0,0,0,51.43,18.56Z" transform="translate(-3.4 -2.98)" style="fill: #ef8333"/>
    <path d="M67.52,40.7L51.43,18.56A78.12,78.12,0,0,0,21.8,59.33l26,8.46A51.91,51.91,0,0,1,67.52,40.7Z" transform="translate(-3.4 -2.98)" style="fill: #e96c24"/>
    <path d="M47.84,101.27h0l-26,8.46a78.16,78.16,0,0,0,29.62,40.78l16.09-22.15A51.94,51.94,0,0,1,47.84,101.27Z" transform="translate(-3.4 -2.98)" style="fill: #fcbb86"/>
    <path d="M67.52,128.36h0L51.43,150.51a78.12,78.12,0,0,0,47.93,15.57V138.71A51.92,51.92,0,0,1,67.52,128.36Z" transform="translate(-3.4 -2.98)" style="fill: #ef8333"/>
    <path d="M131.2,128.36a51.9,51.9,0,0,1-31.84,10.35v27.37a78.09,78.09,0,0,0,47.93-15.57l-16.08-22.15h0Z" transform="translate(-3.4 -2.98)" style="fill: #e96c24"/>
    <path d="M150.89,101.27a52,52,0,0,1-19.68,27.09l16.08,22.15a78.16,78.16,0,0,0,29.63-40.78Z" transform="translate(-3.4 -2.98)" style="fill: #fcbb86"/>
    <path d="M176.92,59.33l-26,8.46a51.91,51.91,0,0,1,0,33.48l26,8.46A78.18,78.18,0,0,0,176.92,59.33Z" transform="translate(-3.4 -2.98)" style="fill: #ef8333"/>
    <path d="M150.89,67.79l26-8.46a78.12,78.12,0,0,0-29.63-40.77L131.2,40.7A51.89,51.89,0,0,1,150.89,67.79Z" transform="translate(-3.4 -2.98)" style="fill: #e96c24"/>
    <path d="M131.2,40.7h0l16.09-22.15A78.11,78.11,0,0,0,99.36,3V30.35A51.86,51.86,0,0,1,131.2,40.7Z" transform="translate(-3.4 -2.98)" style="fill: #fcbb86"/>
    <path d="M82.73,107.43L67.52,128.36a51.92,51.92,0,0,0,31.85,10.35V112.84A28.16,28.16,0,0,1,82.73,107.43Z" transform="translate(-3.4 -2.98)" style="fill: #23379b"/>
    <path d="M72.44,93.28l-24.6,8a51.94,51.94,0,0,0,19.68,27.09l15.21-20.93A28.34,28.34,0,0,1,72.44,93.28Z" transform="translate(-3.4 -2.98)" style="fill: #848cc5"/>
    <path d="M82.73,61.64L67.52,40.7A51.91,51.91,0,0,0,47.84,67.79l24.6,8A28.33,28.33,0,0,1,82.73,61.64Z" transform="translate(-3.4 -2.98)" style="fill: #4958c0"/>
    <path d="M99.36,56.22V30.35A51.89,51.89,0,0,0,67.52,40.7L82.73,61.64A28.14,28.14,0,0,1,99.36,56.22Z" transform="translate(-3.4 -2.98)" style="fill: #23379b"/>
    <path d="M116,61.64L131.2,40.7A51.86,51.86,0,0,0,99.36,30.35V56.22A28.15,28.15,0,0,1,116,61.64Z" transform="translate(-3.4 -2.98)" style="fill: #848cc5"/>
    <path d="M131.2,40.7h0L116,61.64a28.37,28.37,0,0,1,10.29,14.15l24.6-8A51.89,51.89,0,0,0,131.2,40.7Z" transform="translate(-3.4 -2.98)" style="fill: #4958c0"/>
    <path d="M127.67,84.53a28.26,28.26,0,0,1-1.38,8.75l24.6,8a51.91,51.91,0,0,0,0-33.48l-24.6,8A28.29,28.29,0,0,1,127.67,84.53Z" transform="translate(-3.4 -2.98)" style="fill: #23379b"/>
    <path d="M116,107.43l15.2,20.93h0a52,52,0,0,0,19.68-27.09l-24.6-8A28.36,28.36,0,0,1,116,107.43Z" transform="translate(-3.4 -2.98)" style="fill: #848cc5"/>
    <path d="M99.36,112.84v25.87a51.9,51.9,0,0,0,31.84-10.35L116,107.43A28.17,28.17,0,0,1,99.36,112.84Z" transform="translate(-3.4 -2.98)" style="fill: #4958c0"/>
    <polygon points="44.52 98.37 69.04 90.3 50.54 80.22 27.3 85.53 44.52 98.37" style="fill: #848cc5"/>
    <polyline points="44.52 98.37 27.3 85.53 0 91.71 18.51 107.05 44.52 98.37" style="fill: #fcbb86"/>
  </g>
  <g>
    <path d="M236.46,67.6c-4.75-4.28-8.83-4.56-10.64-4.56-2,0-4.46.29-6.17,2.19a5.67,5.67,0,0,0-1.62,4,4.44,4.44,0,0,0,1.42,3.51c1.52,1.42,3.71,2,8,3.61l4.75,1.8c2.75,1,6.17,2.47,8.65,4.85a15.8,15.8,0,0,1,4.66,11.78c0,6.56-2.28,12.26-5.61,15.68-5.61,5.89-13.78,6.46-18,6.46a26.85,26.85,0,0,1-12.54-2.66,40.31,40.31,0,0,1-9.31-6.93l7.6-10.45a38.85,38.85,0,0,0,5.89,4.84,14.73,14.73,0,0,0,8,2.28,10.11,10.11,0,0,0,6.65-2.19,6.56,6.56,0,0,0,2.28-5.13,5.59,5.59,0,0,0-2.18-4.56c-1.71-1.43-5.61-2.85-7.41-3.52l-5.23-1.8c-2.94-1-6.36-2.37-8.83-5-3.33-3.52-3.8-8-3.8-11a19.48,19.48,0,0,1,5.51-14.25c4.47-4.56,9.79-5.79,15.67-5.79A30.63,30.63,0,0,1,243,57Z" transform="translate(-3.4 -2.98)" style="fill: #4958c0"/>
    <path d="M295.36,110.06c-3.8,3.8-10.26,6.84-18.53,6.84s-14.72-3-18.53-6.84a22.72,22.72,0,0,1,0-31.54c3.8-3.8,10.26-6.84,18.53-6.84s14.73,3,18.53,6.84A22.72,22.72,0,0,1,295.36,110.06ZM269.13,86.31a11.73,11.73,0,0,0,0,16,10.54,10.54,0,0,0,7.79,3,10.38,10.38,0,0,0,7.6-3,11.73,11.73,0,0,0,0-16A11.26,11.26,0,0,0,269.13,86.31Z" transform="translate(-3.4 -2.98)" style="fill: #4958c0"/>
    <path d="M341.71,86.5a13.74,13.74,0,0,0-8.93-3.23,10.9,10.9,0,0,0-7.79,3,11.17,11.17,0,0,0-3.13,8,11,11,0,0,0,2.85,7.6,11.26,11.26,0,0,0,8.26,3.42,13.35,13.35,0,0,0,8.74-3.33v12.35a21.17,21.17,0,0,1-10.83,2.57,22.77,22.77,0,0,1-16.44-6.37,22.09,22.09,0,0,1-6.65-16.15,22.77,22.77,0,0,1,7-16.72c4.75-4.46,10.36-6,16.15-6a24.15,24.15,0,0,1,10.74,2.38V86.5Z" transform="translate(-3.4 -2.98)" style="fill: #4958c0"/>
    <path d="M358.25,47.08a8,8,0,1,1-8,8A7.91,7.91,0,0,1,358.25,47.08Zm6.84,26v42.37H351.41V73.11h13.68Z" transform="translate(-3.4 -2.98)" style="fill: #4958c0"/>
    <path d="M408.78,73.11h13.68v42.37H408.78v-5.13a14.12,14.12,0,0,1-12.54,6.55c-6.08,0-11.21-1.52-15.87-6.46a22.42,22.42,0,0,1-6.17-15.87,24.13,24.13,0,0,1,6.55-17.1,20.43,20.43,0,0,1,14.73-5.79c3.61,0,9.4.86,13.3,6.17V73.11ZM391.4,86.5a10.59,10.59,0,0,0-3.13,7.7,10.92,10.92,0,0,0,2.85,7.6,11.23,11.23,0,0,0,8.08,3.33,10.13,10.13,0,0,0,7.13-2.95,11.24,11.24,0,0,0,.19-15.77,11.45,11.45,0,0,0-7.6-2.95A10.79,10.79,0,0,0,391.4,86.5Z" transform="translate(-3.4 -2.98)" style="fill: #4958c0"/>
    <path d="M446.78,46.22v69.26H433.1V46.22h13.68Z" transform="translate(-3.4 -2.98)" style="fill: #4958c0"/>
    <path d="M456.09,115.48l10.17-63.37h12.16L494.19,90,510,52.11h12.16l10.17,63.37H517.65l-5-37.81-15.87,37.81h-5.13L475.76,77.67l-5,37.81H456.09Z" transform="translate(-3.4 -2.98)" style="fill: #4958c0"/>
    <path d="M584.63,96.67H553a11.57,11.57,0,0,0,2.56,7.22,9.18,9.18,0,0,0,7,2.66,11.24,11.24,0,0,0,5.51-1.23A8.3,8.3,0,0,0,571,101.8L584,103.13a19,19,0,0,1-8.17,10.64c-4.08,2.47-8.64,3.13-13.4,3.13-6.36,0-12-1.14-16.91-6.08a22.76,22.76,0,0,1-6.36-16.34,24.12,24.12,0,0,1,6.46-16.72c5.13-5.13,11.5-6.08,16.25-6.08s11.59,0.86,16.82,6.37c5,5.32,6,12,6,17.2v1.42ZM572,88.5a10.77,10.77,0,0,0-2.75-4.94,10,10,0,0,0-13.4.38,9.52,9.52,0,0,0-2.37,4.56H572Z" transform="translate(-3.4 -2.98)" style="fill: #4958c0"/>
    <path d="M639,115.48H625.29v-5.13c-2.09,3-5.89,6.55-13.4,6.55-6.27,0-10.83-2-14.54-5.79a23.75,23.75,0,0,1-6.65-17c0-7,2.56-12.83,6.65-16.72a21.35,21.35,0,0,1,14.73-5.7c4.66,0,9.79,1.52,13.21,6.17V46.22H639v69.26ZM608.09,86.31a10.91,10.91,0,0,0-3.33,8.08,10.73,10.73,0,0,0,3.33,7.79,10.49,10.49,0,0,0,7.13,2.95A11.67,11.67,0,0,0,623,102a10.3,10.3,0,0,0,3.13-7.6,10.92,10.92,0,0,0-3-7.79,10,10,0,0,0-7.69-3.13A9.94,9.94,0,0,0,608.09,86.31Z" transform="translate(-3.4 -2.98)" style="fill: #4958c0"/>
    <path d="M657.4,47.08a8,8,0,1,1-8,8A7.91,7.91,0,0,1,657.4,47.08Zm6.84,26v42.37H650.56V73.11h13.68Z" transform="translate(-3.4 -2.98)" style="fill: #4958c0"/>
    <path d="M707.93,73.11h13.68v42.37H707.93v-5.13a14.12,14.12,0,0,1-12.54,6.55c-6.08,0-11.21-1.52-15.87-6.46a22.42,22.42,0,0,1-6.17-15.87,24.13,24.13,0,0,1,6.55-17.1,20.43,20.43,0,0,1,14.73-5.79c3.61,0,9.4.86,13.3,6.17V73.11ZM690.55,86.5a10.59,10.59,0,0,0-3.13,7.7,10.92,10.92,0,0,0,2.85,7.6,11.23,11.23,0,0,0,8.08,3.33,10.13,10.13,0,0,0,7.13-2.95,11.24,11.24,0,0,0,.19-15.77,11.45,11.45,0,0,0-7.6-2.95A10.79,10.79,0,0,0,690.55,86.5Z" transform="translate(-3.4 -2.98)" style="fill: #4958c0"/>
    <path d="M750.3,58.76v56.72h-7V58.76H727.88V52.11h37.81v6.65H750.3Z" transform="translate(-3.4 -2.98)" style="fill: #ef8333"/>
    <path d="M762.65,95.91c0-12,8.83-20.81,20.9-20.81s20.9,8.83,20.9,20.81-8.93,20.71-20.9,20.71S762.65,107.88,762.65,95.91Zm7,0c0,9.69,6.84,14.63,13.87,14.63s13.87-5,13.87-14.63-6.65-14.73-13.87-14.73S769.68,86.31,769.68,95.91Z" transform="translate(-3.4 -2.98)" style="fill: #ef8333"/>
    <path d="M844.73,46.22h6.84v69.26h-6.84V110a16.63,16.63,0,0,1-13.49,6.65c-10,0-19.19-7-19.19-20.9,0-13.58,9.12-20.62,19.19-20.62a16.31,16.31,0,0,1,13.49,6.56V46.22Zm-25.65,49.5c0,8.46,4.75,14.82,12.92,14.82,8.36,0,13.11-6.93,13.11-14.72,0-10.17-7-14.63-13.11-14.63C825.26,81.18,819.08,86.12,819.08,95.72Z" transform="translate(-3.4 -2.98)" style="fill: #ef8333"/>
    <path d="M894.32,76.05h6.84v39.43h-6.84V110a16.63,16.63,0,0,1-13.49,6.65c-10,0-19.19-7-19.19-20.9,0-13.58,9.12-20.62,19.19-20.62a16.31,16.31,0,0,1,13.49,6.56V76.05ZM868.67,95.72c0,8.46,4.75,14.82,12.92,14.82,8.36,0,13.11-6.93,13.11-14.72,0-10.17-7-14.63-13.11-14.63C874.85,81.18,868.67,86.12,868.67,95.72Z" transform="translate(-3.4 -2.98)" style="fill: #ef8333"/>
    <path d="M926.15,111.77L908,76.05h7.79l14,28.22,12.83-28.22h7.6l-29,61.28h-7.6Z" transform="translate(-3.4 -2.98)" style="fill: #ef8333"/>
  </g>
</svg>
