<?xml version="1.0" encoding="UTF-8"?> <svg xmlns="http://www.w3.org/2000/svg" id="Layer_1" data-name="Layer 1" viewBox="0 0 632.3 104.51"><defs><style>.cls-1,.cls-2{fill:#c3002f;}.cls-1{fill-rule:evenodd;}</style></defs><title>wwp registered logo</title><path class="cls-1" d="M78.22,3.09c.29.33.18,1.07.62,1.24a26.45,26.45,0,0,1-2.68,6c-.29.45-.52,1-.82,1.44,0,.08-.39.14-.42.21s.07.32,0,.41-.38.14-.41.21.06.31,0,.41a7.18,7.18,0,0,1-1.85,2.48c0,.78-.3,1.35-1,1.44a12.91,12.91,0,0,1,.21-3.51A27.33,27.33,0,0,1,73.27,8c0-.1.39-.33.42-.41a3.36,3.36,0,0,1,.41-1.24l.62-1c.08-.13.09-.47.2-.62.51-.67,1.4-.87,1.65-1.65ZM53.27,7c-.57.94-1.59,1.81-1.85,3.51a20.22,20.22,0,0,0,.2,4.33,17,17,0,0,0,0,2.26c0,.32.09,1.27.62,1.24.69.06.75-.76,1-1.24A14.68,14.68,0,0,0,54.71,14c.18-.51.51-1.17.62-1.65s-.07-1,0-1.44c.11-.62.55-1.13.62-1.65A3.21,3.21,0,0,0,55.75,7a7.37,7.37,0,0,0-2.48,0m-6.6,39.18a8.67,8.67,0,0,1,2.06-1.44,11.58,11.58,0,0,1,.83-1.65c.16-.17.24-.44.41-.62s.07-.23.21-.41.34,0,.41,0,.16-.37.21-.42l.2-.2c.21-.17,0-.2.21-.41A4.57,4.57,0,0,0,52,39.8c-.86-4.29-1.48-8.83-2.47-13a1,1,0,0,1-.62-.21c0,.3-.34.35-.41.62a2,2,0,0,0-.62,1.24,2.65,2.65,0,0,0-1.65,1.85c-.41,0-.82.56-1,.83-.9,1.18-.52,2.14-.41,3.92,0,.79-.16,2.39.2,2.68.13.1-.21.26-.2.2,0,2.3.58,4.27-.42,5.78a6.35,6.35,0,0,1,.21,3.71c1.19.23,1.5-.79,2.06-1.24M64.41,28.87c-.3.18-.6,0-.83.21a5.39,5.39,0,0,0-.62,1c-.23.41-.61.8-.41,1.23-1.21,1.06-2.15,2.39-3.3,3.51s-2.6,2-3.3,3.5c.31,1.75.69,3.51.83,4.75.08.76.2,1.58.2,2.27,0,.85-.4,1.75-.41,2.47,0,.53.28,1,.21,1.45-.11.72-.54,1.38-.62,2.06.91,0,.71-1.07,1.44-1.24,1.13-.38,1.82-1.4,2.68-2.06.43-.34,1-.5,1.45-.83s.58-.95,1.23-1A167.64,167.64,0,0,1,65,28.46c.11,0,.23-.17,0-.21s-.46.52-.62.62M89.77,65.78a25.06,25.06,0,0,0,4.74.22,76.32,76.32,0,0,0,7.84-.83,15.65,15.65,0,0,0,4.12-1.23c.59-.24,1.28-.37,1.86-.62a28,28,0,0,0,4.74-2.68,12.35,12.35,0,0,0,5-6.19,14.28,14.28,0,0,0,.83-7c0-.27-.31-.64-.41-1a11.73,11.73,0,0,0-.42-1.65c-.07-.16-.1-.32-.2-.62-.42-1.15-1-1.9-1.45-2.89-.23-.5-.45-1.28-.62-1.65A9.21,9.21,0,0,0,114,37.37a15.25,15.25,0,0,0-1.65-1.85,9.12,9.12,0,0,0-.83-.41c-.32-.16-.52-.28-.82-.42-.61-.28-1.24-.35-1.86-.62s-1.09-.61-1.65-.82c-.31-.12-.61-.09-1-.21a9.55,9.55,0,0,0-1-.41c-1.12-.14-2.21,0-2.47.41-.46,1-1.41,1.49-1.65,2.68-1.18.16-1.23,1.44-1.65,2.27a4.28,4.28,0,0,1-1,1.45v1.23c-.9.66-.84,1.77-1.24,2.68-.14.31-.5.55-.62.83-.59,1.29-.86,2.78-1.86,3.71-.09,2-1.52,2.74-1.44,5a3.42,3.42,0,0,0-1,1.44c-.42.7-.85,1-.83,1.86,0,1.41,1.59,1.58,1.65,3.09-.43.22-.44.47-.61.62-.47.42-.34.21-1,.41a11.89,11.89,0,0,1-2.06.21,12.31,12.31,0,0,0-.82,2.27c-.12.91-.67,1.39-.62,2.47a4.17,4.17,0,0,0,2.06.62M74.31,40.21a4.45,4.45,0,0,0-2.27,1c-.18.16-.39.09-.62.21a5.77,5.77,0,0,0-1.45,1c-.69.6-1.62.78-2.06,1.44,0,2.77-.56,5.39.21,8.25a17.78,17.78,0,0,1,1-2.06c.21-.42.21-.89.41-1.24s.62-.49.83-.82.22-.74.41-1,.6-.48.82-.83a6.45,6.45,0,0,0,.21-.62c.11-.18.33-.27.41-.41.25-.44.19-.88.42-1.24s.6-.51.82-.82.4-.76.62-1c.69-.85,1.81-1.53,1.85-2.68.22,0,.17-.27-.2-.21-.49.34-1.2.45-1.44,1M23,51.76c-.5,1.36-1.87,1.84-2.89,2.68-.06.56-.5.81-.82,1.24s-.34,1.09-1,1a2.41,2.41,0,0,1-1,1.86c.06.69-.16,1.67.21,2.06,1.86.22,1.81-.19,2.68-1a7.81,7.81,0,0,0,1.86-2.07,18,18,0,0,0,4.33-5.77,9.49,9.49,0,0,1,1-2.47.58.58,0,0,0-.42-.62c-1.27,1.06-2.19,2.47-3.91,3.09m61,5.15a2.32,2.32,0,0,0-.83-1.23c-.14-.1-.46.07-.62,0s-.1-.39-.2-.42c-2.58-.64-3.41,1.37-4.54,1.86-1.18,4.08,1.78,6.46,5.16,7.22a3.64,3.64,0,0,1,1-2.48c0-1.62.85-2.44,1-3.91a2.3,2.3,0,0,0-1-1M36.77,59a1.64,1.64,0,0,0-.62.41,3.24,3.24,0,0,0-.61.82,19,19,0,0,1-1.24,1.45,3.35,3.35,0,0,0-.41,1c-1.25.62-1.66,2.12-2.48,3.09-.33.4-.88.64-1.24,1a17.43,17.43,0,0,0-1,1.45c-.35.45-.88.8-1.23,1.23-.14.17-.22.63-.42.83a1,1,0,0,1-.82.41c-.4,1.87-2,2.58-2.47,4.33-.93.68-1,2.34-.62,3.71a5.57,5.57,0,0,0,1,0c.31-.06.36-.29.62-.41a6.23,6.23,0,0,0,1.44-.82c.43-.41.57-1.14,1-1.65.28-.32.94-.55,1.24-.83a11.8,11.8,0,0,0,1-1c.27-.33.35-.86.62-1.24s.75-.67,1-1,.52-.85.82-1.24.82-.68,1-1a14.77,14.77,0,0,0,.83-2.06c.63-1.61,1.78-3,2.27-4.53a13.65,13.65,0,0,0,.62-2.69c0-.28.69-1.25-.21-1.23Zm24.34,9.26a3.05,3.05,0,0,0-.62,1c-.14.34-.31.4-.41.62-.6,1.18-1.2,2.91-1.65,3.91,0,.08-.37.12-.42.21-1.06,1.94-1.77,4.08-3.09,5.36-.17,1.3-1.1,2.68-1.44,3.92a12.11,12.11,0,0,0-.62,3.09c0,.7-.16,1.52.41,2.07,1.83.12,2.54-1.9,3.3-3.1.13-.2.29-.24.41-.41.28-.36.19-1,.41-1.24s.5,0,.62-.2a17.19,17.19,0,0,0,1.45-3.72,1,1,0,0,0,0-.41c.07-.22.37-.28.41-.41.14-.42.09-1,.21-1.44s.48-.77.61-1.24c.54-1.91.51-4,1-6,.25-1,1.06-1.8.82-2.89,0-.23-.23-.32-.41-.41a4.62,4.62,0,0,0-1,1.24m66-56.3c-.1-1.26,1.67-.67,1.85-1.65s-1-1.44-1.85-1.86a23,23,0,0,0-3.92-1A17.6,17.6,0,0,0,117,6.8c-1.82.2-4.11,1.18-6,1.65-.72.19-1.44.2-2.06.42s-1,.55-1.65.82c-.28.12-.54.3-.83.41s-.45-.08-.61,0-.13.37-.21.42c-.54.27-1.15.56-1.65.82s-1.2.55-1.65.83a16.71,16.71,0,0,0-1.44,1.23c-.45.36-1,.66-1.45,1-.67.56-1.14,1.22-1.85,1.85a8.57,8.57,0,0,0-1.45,1.24c-.35.43-.8.71-1.23,1.24-.1.11-.11.29-.21.41-.4.46-1.3,1.21-1.86,1.85-.09.12-.32.11-.41.21s-.2.6-.41.82c-.44.47-1,.74-1.44,1.24a16.61,16.61,0,0,0-1,1.45L88,26.77c-.22.26-.47.41-.62.62s-.19.75-.42,1-.29.1-.41.2a20.72,20.72,0,0,0-1.24,1.86c-.72.95-1.87,1.67-2.06,2.89,1,.42,1.63-.54,2.48-.83.4-.14,1-.07,1.44-.2,1.11-.31,2.57-.65,3.92-1,.85-.24,1.69-.63,2.47-.82.51-.12,1-.09,1.45-.21a20.93,20.93,0,0,1,3-.59c.37,0,.6-.21.82-.2s.35.31.62.2a3.35,3.35,0,0,0,1.24-1c.22-.25.19-.55.41-.82A13.83,13.83,0,0,0,102.56,26c.27-.47.34-1.07.61-1.44s.74-.52,1-.83c.14-.14,0-.48.2-.61s.94-.19,1.24-.62c.13-.19,0-.48.21-.62s.46-.12.61-.21a4,4,0,0,0,.42-.41c1.34-1.21,2.65-2.16,3.71-3.3,1.36-.37,2.79-1.68,4.54-2.06a17.7,17.7,0,0,1,2.06,0c1.33-.08,3.69-.48,4.53,1.23,1.21.14,3.35,4.45,1,5.16a3.17,3.17,0,0,1-2.48-1c-.72-.73-.63-1.79-1.65-2.27a6.92,6.92,0,0,0-5,0c-.3.16-.5.42-.82.62s-.79.25-1,.41-.23.29-.42.41a18,18,0,0,0-2.26,2.27c-.61.65-1.37,1.24-1.86,1.86-.18.23,0,.53-.21.82s-.5.25-.62.42c-.23.34-.41.93-.61,1.23a6.48,6.48,0,0,0-1.45,2.27c.82.53,1.94.31,2.89.41a1.07,1.07,0,0,0,.62-.2c.24,0,.6.28,1,.41s.82.09,1.24.21a7.24,7.24,0,0,0,1,.41,13.3,13.3,0,0,1,2.68,1.24,12.18,12.18,0,0,1,1.85.62c.19.12.25.48.42.61a2.86,2.86,0,0,1,1,.83c.13.22,0,.44.2.62.87,1,1.7,1.43,2.27,2.68.08.17-.08.45,0,.62s.37.12.41.2a15.69,15.69,0,0,1,1,2.89,30.08,30.08,0,0,1,1,3.09,28.5,28.5,0,0,1,.2,4.13,15.72,15.72,0,0,1-.2,2.47c-.31,1.52-1.29,2.67-1.45,4.13-.38.14-.59.53-.82.82-.1.13-.09.5-.21.62s-.27,0-.41.21-.06.44-.21.61-.37.16-.41.21c-.19.29-.17.75-.41,1s-1,.74-1.44,1.24c-.31.33-.49.69-.83,1a24.8,24.8,0,0,1-2.06,1.65c-.31.23-.53.62-.83.83s-.75.23-1,.41-.2.29-.41.41c-.65.38-1.59.8-2.47,1.24-.1,0-.34.39-.42.41s-.44-.08-.62,0c-.38.17-.7.5-1,.62a23.11,23.11,0,0,1-3.5.82,55.09,55.09,0,0,1-16.71.42,2.73,2.73,0,0,0-.82,2.26c-.47.12-1,.89-1.24,1.45s-.14,1.4-.41,2.06c-.2.48-.81,1-1,1.44-.33.69-.27,1.71-.83,2.27a12.94,12.94,0,0,0-1.65,3.09c-.23.6-.43,1.67-1.23,1.86,0,1.61-1.34,2-1.45,3.51-.85.11-1,.89-1.23,1.65a5.91,5.91,0,0,0-1,1c-.24.38-.36,1-.61,1.44s-1,1-1.45,1.65c-.08.12-.09.5-.2.62s-.67.24-.83.41-.1.31-.2.41c-.32.33-1,.52-1.24,1.24-.51.18-.72.66-1,1-.74.14-.94.81-1.45,1.24a6.09,6.09,0,0,1-.82.62,8.13,8.13,0,0,0-1.44,1.24c-.22.18-.58.21-.83.41-.41.33-.81,1-1.24,1.24-.93.59-2.18.66-2.88,1.64-1-.1-1.64.53-2.48.83-.67.24-1.53.52-2.47.83a31.18,31.18,0,0,1-3.3.82,24.56,24.56,0,0,1-3.71.62c-.35,0-.84.21-1.24.21s-.64-.25-1-.21c-.13,0-.16.41-.42.41H45.42a32.4,32.4,0,0,1-6.6-.41c-.45-.08-1.07-.15-1.24-.21s-.32-.48-.62-.62-.78,0-1-.2-.23-.3-.41-.41a9.86,9.86,0,0,1-2.68-2.89A15.62,15.62,0,0,1,32,93c.25-1.89,1.36-3.32,1.86-5.15A3,3,0,0,0,35.12,86a3.05,3.05,0,0,0,1.45-1.65c1-.14,1.48-.86,2.68-.82.4-.22.52.36.82.62s.63.34.83.61a2.24,2.24,0,0,1,0,3.1c-2.18.74-4.14-.68-5.57.62a2.55,2.55,0,0,0-.41.2s.09.46,0,.62-.53.34-.62.62.1.87,0,1.44c0,.28-.37.56-.41.83-.62,3.53.39,7,2.88,8.45.22.13.45,0,.62.21s.13.36.21.41c1.43,1,1.79.94,3.92,1.24.81.11,1.6.39,2.06.41s.91-.19,1.44-.2,1,.23,1.45.2a32.05,32.05,0,0,0,3.5-.62,26.29,26.29,0,0,0,9.28-3.09,36.31,36.31,0,0,0,8.25-6c.88-.9,2-2,2.89-3.09.64-.74,1.08-1.47,1.65-2.27,0-.08.38-.14.41-.21s-.07-.32,0-.41.38-.14.41-.21a26.46,26.46,0,0,1,1.65-2.88,5.74,5.74,0,0,1,.62-1,12.06,12.06,0,0,0,1-2.47c.34-.86,1.11-2.2,1.65-3.3,1.85-3.77,3.32-7.67,5-11.14A5.14,5.14,0,0,0,80.08,65c-.24-.87-1.11-1.09-1.86-1.45-.32-.42-.39-1-.82-1.44a3.8,3.8,0,0,1-.83-1.65,4.94,4.94,0,0,1,1.86-5.36c.15-.11.45-.08.62-.21s.14-.38.2-.41c.24-.11.84-.07,1.24-.21a7.79,7.79,0,0,1,2.27-.61,6.81,6.81,0,0,1,1,.2c.87.16,1.73,1.06,2.68.83,1.37-.34,1.65-3.23,2.27-4.54a6.45,6.45,0,0,1,.21-.62c.09-.17.29-.24.41-.41a14.07,14.07,0,0,0,.82-1.65c.17-.35.24-.88.42-1.24.72-1.49,1.75-2.87,2.47-4.33.16-.32.06-.57.21-.82s.35-.3.41-.42c.19-.36.18-.87.41-1.23s.6-.51.83-.83.07-.44.2-.62.29-.2.42-.41.39-.86.61-1.24c.49-.8,1.49-2.14,1.45-3.5a4.71,4.71,0,0,0-3.1,0c-.87.24-2.39.1-3.71.41a11,11,0,0,0-1.24.62,20.56,20.56,0,0,1-2.88.82c-.57.14-1.17.07-1.65.21a9.12,9.12,0,0,0-.83.41c-.34.15-.74.08-1,.21-.1,0-.12.37-.2.41a9,9,0,0,0-1.24.41c-.2.13-.25.29-.41.42a4.91,4.91,0,0,0-1,.82s-.19.4-.21.41-.36-.06-.41,0-.08.28-.21.41-.38.53-.62.83c-.86,1.1-1.6,2.26-2.47,3.51,0,.07-.39.14-.42.2a4,4,0,0,1-.41,1c-.51.69-1.29,1.26-1.85,2.07a15.23,15.23,0,0,0-.62,1.44c-.11.18-.51.24-.62.41s0,.57-.21.83c-.51.81-1.12,1.47-1.65,2.26-1.1,1.68-1.81,3.61-2.88,5.16v3.09a57.77,57.77,0,0,1-1.45,8.66c-.16.76-.18,1.48-.41,2.27-.44,1.49-.94,3.1-1.44,5a4.49,4.49,0,0,1-.62,1.44c-.1.17-.09.43-.21.62s-.63.54-.82.83c-.44.66-.57,1.5-1.24,1.85a6.24,6.24,0,0,1-.83,2.89c-.38.77-1.1,1.35-1.44,2.06-.11.22.07.59,0,.83s-.38.32-.41.41c-.26.72-.21,1.29-.83,1.86-.3.28-.66,1-1.44,1,.12.76-.84,1.38-1.44,2.06s-.92,1.51-1.65,1.65A3.54,3.54,0,0,1,51.42,92c-1.44-.92-1.29-1.67-.83-3.92,1-5,3.25-9.66,5.16-13.61s3.77-7.89,5.77-11.75c.14-.27.27-.56.41-.83a8.19,8.19,0,0,0,1.45-3.5,11.89,11.89,0,0,0-.21-2.06,50.89,50.89,0,0,1,.21-8c-.37.47-.78.19-1.24.42A13.09,13.09,0,0,0,60.49,50c-.17.14-.61.73-.83.83s-.35-.06-.41,0-.06.47-.2.62c-1.29,1.34-2.78,2.6-3.92,3.91a69.43,69.43,0,0,1-2.89,10.11,8,8,0,0,0-1.24,1c-.72,1.89-1.23,4-2.88,5,.1.61-.38,1-.62,1.44a11.86,11.86,0,0,1-1.65,2.27c-.2.2-.14.48-.41.62s-.64-.14-.62.21c-.66-.11-1.49-1.12-1-1.65s.27-1.79.61-2.48c0-.59.61-.94.83-1.44s.16-.82.21-1.24.31-.53.41-.82c.23-.72.37-1.42.62-2.07.07-.19.36-.29.41-.41s-.07-.44,0-.62c.27-.69,1.28-1.53.82-2.47.26-.64,1-.77,1.24-1.44a3.48,3.48,0,0,1,.21-.62c.2-.36.42-.85.62-1.24a2.05,2.05,0,0,0,.41-1.24c3.37-2.34,2-9.45,2.27-14.85-.43-.33-.37.26-.62.42s-.74.16-1,.41a4.7,4.7,0,0,0-.83,1c-.1.15-.08.46-.2.62s-.35-.06-.42,0-.12.61-.41.82-.46.08-.62.21-.4.64-.62.83A14,14,0,0,0,46,48.87c-.15.33-.29.66-.41,1a3.58,3.58,0,0,1-.82,1.24c-.13.1-.5.09-.62.21s-.06.42-.21.62-.45.32-.62.61a17.15,17.15,0,0,0-1,3.51c-.08.28-.37.57-.41.82a23.37,23.37,0,0,1-.41,2.89c-.15.46-.58.91-.83,1.45-.34.75-.68,1.43-1,2.26a20.49,20.49,0,0,1-.82,2.27c-.24.44-.74.78-1,1.24s-.17.87-.62,1.24c-.22.17-.3.7-.62,1s-.45.2-.62.41-.21.6-.41.82-.3.06-.42.21-.63,1.15-1,1.65c-.17.22-.42.36-.62.62-.6.79-1.46,2.32-2.68,2.68A7.75,7.75,0,0,1,28.53,79c-.56.45-1.48.73-2.27,1.24-.08,0-.14.38-.21.41a9,9,0,0,0-.82.41,1.65,1.65,0,0,1-1.86.21c-.09,0-.35.06-.41,0s.07-.36,0-.41-.34.07-.42,0,.07-.36,0-.42-.52-.1-.61-.2-.09-.46-.21-.62a3.41,3.41,0,0,1-.82-1.44,8.37,8.37,0,0,1,1.23-3.3c.13-.23.29-.61.41-.83s.39-.13.42-.21-.06-.31,0-.41a50.67,50.67,0,0,1,5.15-6.18c.38-.43.66-.84,1-1.24s.67-.81,1-1.24c.71-.83,1.46-1.68,2.07-2.47.17-.23.46-.38.62-.62s0-.61.2-.83c.33-.42.9-.63,1.24-1s.23-.61.41-.82c.34-.4,1.26-.91,1.65-1.45a7.24,7.24,0,0,0,.41-1c.18-.31.51-.45.42-.82a4,4,0,0,0,1-.83,7.26,7.26,0,0,0,1.44-3.09c.9-3.66.44-10,.62-14.64-.56.3-1.18.36-1.65.62s-.72.94-1.44.82c-.37,1.08-1.79,1.1-2.07,2.27-.69.08-1.16.9-1.65,1.44,0,0-.18.4-.2.42-.23.16-.49.17-.62.41-.35.66-.67,1.3-1,2.06-.2.41-.57,1.26-.83,1.86-.12.29-.06.53-.2.82s-.38.32-.42.41c-.2.52-.21,1.11-.41,1.65-.28.78-.89,1.56-1.23,2.48a8.31,8.31,0,0,1-.83,1.85,4.18,4.18,0,0,1-.62.83s-.39.18-.41.2c-.14.18,0,.49-.21.62s-.25,0-.41.21-.21.64-.41,1c-.57.12-.86.52-1.44.62.06.62-.66.8-1,1.24s-.88,1.19-1.44,1.85c-.05.06-.39.15-.41.21-.24.52-.49,1.19-1,1.44-1.18.54-2.79.2-4.54,0A4,4,0,0,1,15.53,58,23.67,23.67,0,0,1,17,55.88c.16-.21.41-.37.62-.62a17,17,0,0,1,1.65-1.85c.25-.23.6-.21.82-.41.39-.34.64-.92,1-1.24.67-.55,1.37-.85,2.06-1.44.06-.06.15-.39.21-.42s.36.07.41,0,.07-.47.21-.61a2,2,0,0,0,.82-1.24,5.93,5.93,0,0,0,2.06-1.86c.67-.69,1.5-1.15,1.86-2.06a17.26,17.26,0,0,0,.21-2.27c.08-.62.37-1.27.41-1.85,0-.34-.2-.68-.21-1s.22-.71.21-1a35,35,0,0,0-.62-7c-.13-.53-.54-1.29-.62-1.85a15.69,15.69,0,0,0-.2-2.27,4.9,4.9,0,0,0-1-1.65c-.09-.13-.08-.5-.2-.62s-.53-.2-.83-.41a11.41,11.41,0,0,0-2.06-1.45,17.7,17.7,0,0,0-2.06,0c-.59-.09-.92-.44-1.44-.41a7.27,7.27,0,0,0-1.45.41,13.94,13.94,0,0,0-4.33,2.48,1.42,1.42,0,0,1-.2.41c-.43.19-.32.13-.62.62-.09.14-.33.28-.42.41s-.08.45-.2.62-.37.13-.41.21a8.64,8.64,0,0,0-.83,2.26A13,13,0,0,0,12.23,32a2.32,2.32,0,0,0,1.86.83,2.26,2.26,0,0,0,1.44-1.45c.35-1.39-1.27-3.49.42-4.33.74-.29,1.25.79,1.44,1.45a7.16,7.16,0,0,1-.21,3.5A7,7,0,0,1,16,33.86c-.24.17-.56.07-.83.2-.08,0-.36.4-.41.42-.8.19-1.62-.25-2.68,0a4,4,0,0,1-1.86-3.3A7.64,7.64,0,0,1,11,27.43c.11-.26.34-.34.41-.62s-.11-.61,0-.83.38-.13.41-.2a6.4,6.4,0,0,1,.41-.83,11.16,11.16,0,0,1,2.27-2.89c.36-.28,1-.52,1.45-.82A16.9,16.9,0,0,1,20.07,19a12.81,12.81,0,0,1,4.74-.2,18.08,18.08,0,0,1,1.65.82c.31.14.7.1,1,.41.09.08.12.36.21.41.28.2.81.23,1,.42s.17.56.41.82.45.23.62.41A9.27,9.27,0,0,1,31.62,25c.13.32.08.71.2,1s.38.63.42.83a15.17,15.17,0,0,1,0,3.3c-.08.6.34.85.41,1.44.21,1.86,0,3.67.21,6.39,3.4-.24,4.44-2.84,6.59-4.33a34.13,34.13,0,0,0-.82-5.77c-.11-.6-.06-1.32-.21-1.86a19.06,19.06,0,0,0-1.23-2.68c-.15-.32-.1-.57-.21-.82-.23-.51-.67-1.17-1-1.86-.24-.46-.39-1-.62-1.44,0-.09-.38-.14-.41-.21s.06-.31,0-.41a19.74,19.74,0,0,0-1.24-1.65,10.89,10.89,0,0,0-1.44-1.44c-.39-.37-.72-.39-1.65-.83-.38-.18-.7-.49-1-.62s-1-.07-1.45-.2-.73-.55-1-.62-1,.08-1.44,0-.7-.38-1-.42A11.47,11.47,0,0,0,20.6,13c-.36.17-1,0-1.65.21a15.23,15.23,0,0,0-1.44.62c-.48.2-1,.41-1.44.62-.1,0-.13.37-.21.41s-.3-.06-.41,0c-.5.24-1.33.53-1.65,1.23a3.43,3.43,0,0,0-2.06.62c-.84.48-1.23,1.4-2.27,1.65-.26.5-.91.61-.83,1.45C7.34,20,7,21.06,6,21.45a5.46,5.46,0,0,1-2,2.68c.53,1.42-1.09,2-1.65,3.3-.1.23.07.58,0,.82s-.4.35-.42.41c-.09.43-.12,1.44-.2,2.27,0,.3.24.75.2,1s-.38.45-.41.83a15.09,15.09,0,0,0,.21,4.74c.23.82,1,1.4,1.24,2.27.64.36.92,1.09,1.44,1.65.16.17.49.2.41.62,1-.28,1.78.62,2.68.82a13.36,13.36,0,0,0,6.19-.2,8.22,8.22,0,0,0,3.92-2.48c1.74-1.78,3.87-4.78,4.12-7.83.09-1.16-1-2.92,1-3.3,1.21.49.89,2.36.62,3.71a16.92,16.92,0,0,1-1,2.68,7,7,0,0,1-.62,1.44c0,.07-.38.14-.41.21s.06.31,0,.41c-.46.73-.94,1.4-1.45,2.27-.15.27,0,.24-.2.41a1,1,0,0,0-.41.83c-.52.38-1.22.56-1.24,1.44a4.06,4.06,0,0,0-1.45.62,3.28,3.28,0,0,1-1,.82,5.91,5.91,0,0,1-1.44.62c-1.2.19-2.38-.21-3.3.41-2-.43-4.09-.34-5.77-1.23A10.82,10.82,0,0,1,3.21,42a9.15,9.15,0,0,1-1-.83c-.13-.15-.07-.46-.21-.62s-.56-.11-.61-.2S1,39.55.89,39.18a11.24,11.24,0,0,1-.41-1.24,16.86,16.86,0,0,1-.21-7c.09-.61.28-1.16.42-1.85A19.15,19.15,0,0,1,.89,27c.2-.53.23-.35.42-.61s.07-.41.2-.62a3.17,3.17,0,0,1,.41-.62,4.07,4.07,0,0,0,.42-.41c.29-.57.34-1.39.62-1.86C3.59,21.8,4.83,21.09,5,20a53,53,0,0,0,4.74-4.12c.26-.23.56-.64.83-.83s.57,0,.82-.2.22-.3.41-.41a48.16,48.16,0,0,1,5.36-3.3A18.43,18.43,0,0,1,26,9.49a13.57,13.57,0,0,1,2.68.41,10.05,10.05,0,0,1,1.65.2c.5.2.63.48,1,.62s1,.26,1.45.42a7.72,7.72,0,0,1,1.23.41c.47.26.92,1,1.65,1.65.16.13.46.08.62.2a5.7,5.7,0,0,0,.83.83c.43.28.63.92,1.23,1.44.16.14.07.25.21.41.42.5,1,.87,1.24,1.24s.34,1.21.62,1.86c.55,1.3,1.76,3,2.26,4.53.13.39.1.81.21,1.24a10.05,10.05,0,0,1,.62,3.3c1.13.51,1.41-1.43,2.68-1.44.56-1.42,2.29-2.12,2.68-3.71.14-.56-.17-1.17-.21-1.86a2.36,2.36,0,0,0,.21-.83,40.44,40.44,0,0,1,0-4.12c0-1.14-.1-2.33,0-3.3a14.83,14.83,0,0,1,1.24-4.33A10.81,10.81,0,0,1,51,7.22a10.82,10.82,0,0,1,1.45-1.86c.22-.15.63-.1.82-.2a3.89,3.89,0,0,1,2.89-.42,4,4,0,0,1,2,2.26c.2,1.05-.55,3.27-.83,4.33-.1.39-.08.86-.2,1.24-.21.68-.71,1.83-1,2.68a32.39,32.39,0,0,1-3.51,6.6A14.25,14.25,0,0,0,53.27,27c0,.11.39.34.41.42.08.25-.08.58,0,.82s.52.67.62,1,.09,1.11.21,1.65c.23,1.1.65,2.45,1,3.92,1.32-.19,2.22-1.24,3.09-2.06s1.71-1.75,2.51-2.64c1.59-1.79,3.41-3.32,5-5.16a5.74,5.74,0,0,1,.2-2.06c.34-1.68.93-3.6,1.45-5.36.08-.28.33-.51.41-.83.2-.81.33-1.66.62-2.68.07-.27.36-.51.41-.82a9.09,9.09,0,0,1,.41-1.86c.18-.48.42-1,.62-1.65A14.72,14.72,0,0,1,71.62,6.6c.23-.37.14-.66.42-1.24.06-.13.6-.52.82-.82A14.47,14.47,0,0,1,77.4,0a5.69,5.69,0,0,1,3.5,2.06c.26,1.43-.46,2.63-.82,3.71a23,23,0,0,1-1.24,3.3l-.41.83c-.07.14-.08.64-.21.82s-.57.15-.82.42c-.11.11-.11.3-.21.41a13.94,13.94,0,0,0-1,1.65,9.64,9.64,0,0,0-.62,1.65c-.89.13-.67,1.39-1.65,1.44a5.15,5.15,0,0,1-.62,1.65c-.36.58-1.06.83-1.44,1.44-.08.14-.26.69-.41,1a14.28,14.28,0,0,0-.62,2.48c-.18.77-.33,1.57-.62,2.68-.12.49-.36.88-.41,1.24-.1.65.06,1.41,0,2.06,0,.49-.34,1-.41,1.44-.16,1-.11,2.06-.21,3.1-.19,1.86-.45,3.78-.62,5.56a7.92,7.92,0,0,1-.21,1.45,1.56,1.56,0,0,0,0,1c.62.66,1-.45,1.24-.62s.59,0,.83-.21c.07,0,.1-.33.2-.41a15.41,15.41,0,0,1,1.65-1c.2-.11.58-.06.83-.21s.25-.53.41-.62a34.65,34.65,0,0,0,3.71-1.85c.08,0,.14-.38.21-.41s.32.06.41,0,.14-.38.21-.42.31.07.41,0,.14-.38.2-.41a5.56,5.56,0,0,0,1.86-1.65c.39-.47.48-1.49,1.45-1.44.46-1.94,1.93-2.87,2.68-4.54.24-.23.37-.59,1-.41-.51-.84.17-1,.82-1.24-.26-.32-.28-.54.21-.82,0,0,.34-.24.2,0,.17-.3-.13-.5,0-.83.22-.51,1.32-.77,1.45-1.85.13-.27.56-.15.82-.42s.15-.59.41-.82c.08-.07.35.07.42,0s-.07-.34,0-.41a5.59,5.59,0,0,1,1.65-1.45c.17-.51.56-.81.62-1.44a13,13,0,0,1,1.44-.62c.16-.8.83-1.1,1-1.85a4.08,4.08,0,0,0,2.06-2.07c1-.29,1.5-1.11,2.27-1.65a13.09,13.09,0,0,0,1.65-1.23,15.41,15.41,0,0,1,1.65-1c.41-.26.64-.84,1.24-.62a5.16,5.16,0,0,1,1.65-1.24,15.8,15.8,0,0,1,2.27-1c.58-.2,1.12-.6,1.65-.21a4.74,4.74,0,0,1,1.44-1.23c.34-.17.71-.06,1.24-.21s1.7-.74,2.68-1a19.51,19.51,0,0,1,7-.83,28.41,28.41,0,0,1,5.36.62,7.56,7.56,0,0,1,2.68,1,13.56,13.56,0,0,1,2.27,1.65,6.74,6.74,0,0,1,0,3.51,2.44,2.44,0,0,1-.83,1.44,2.57,2.57,0,0,1-1.44,1,1.9,1.9,0,0,1-2.47-.41"></path><path class="cls-2" d="M149.29,41.46c-1.3-4.17-2-4.9-6.7-4.9V35.38h15.75v1.18c-4.72,0-5.4,1.13-4.44,4.28l6.18,19.4L168,35.38h.79l7.87,24.8,6.13-19.34c1-3.1.11-4.28-3.94-4.28V35.38h12.66v1.18c-4.67,0-5.51,1.13-6.69,4.9l-9.12,28.62H175l-7.87-24.91-7.93,24.91h-.73Z"></path><path class="cls-2" d="M189.67,68c3.72,0,4.45-1,4.45-6.58V58.55c0-5.62-.73-6.52-4.45-6.52V50.85l8.44-1.41V61.37c0,5.62.67,6.58,4.44,6.58v1.18H189.67Zm3.94-26.6a2.48,2.48,0,1,1,2.47,2.53,2.48,2.48,0,0,1-2.47-2.53Z"></path><path class="cls-2" d="M205.48,68c3.71,0,4.44-1,4.44-6.58V58.55c0-5.62-.73-6.52-4.44-6.52V50.85L213,49.44a22.61,22.61,0,0,1,1,4.05,10,10,0,0,1,7.81-4.05c5.07,0,7.32,3.6,7.32,8.38v3.55c0,5.62.67,6.58,4.44,6.58v1.18h-13V68c3.65,0,4.44-1,4.44-6.58V58.1c0-3.65-1.29-6-4.67-6-3.09,0-6.46,2.53-6.46,5.62v3.66c0,5.79.45,6.58,3.93,6.58v1.18H205.48Z"></path><path class="cls-2" d="M251.66,41.46c-1.3-4.17-2-4.9-6.7-4.9V35.38h15.75v1.18c-4.72,0-5.4,1.13-4.44,4.28l6.19,19.4,7.87-24.86h.79L279,60.18l6.13-19.34c1-3.1.12-4.28-3.93-4.28V35.38h12.65v1.18c-4.67,0-5.51,1.13-6.69,4.9L278,70.08h-.73L269.4,45.17l-7.93,24.91h-.73Z"></path><path class="cls-2" d="M292,69.13V68c3.71,0,4.44-1,4.44-6.58V58.55c0-5.62-.73-6.52-4.44-6.52V50.85l8.43-1.41V61.37c0,5.62.68,6.58,4.45,6.58v1.18Zm22.44-22.95V50.4h4.83v2h-4.83V63.62c0,2.64.73,4,2.53,4a5.93,5.93,0,0,0,3.65-1.91l.9,1a8.34,8.34,0,0,1-5.9,3.2c-3.1,0-5.18-2-5.18-6.29V52.37h-3V51c3.38-.73,4.5-3.72,4.5-6.3,0-2.76-2-5.85-6.63-5.85a4.27,4.27,0,0,0-4.34,3c-.56,1.18-1.23,2-2.58,2A2.5,2.5,0,0,1,296,41.4c0-2.76,3.94-4.16,8.95-4.16,5.87,0,9.53,3.6,9.53,8.94Z"></path><path class="cls-2" d="M323.38,68c3.76,0,4.44-1,4.44-6.58V43.59c0-5.62-.68-6.58-4.44-6.58V35.83l8.43-1.41V53.49c1.58-1.91,4.11-4.05,7.37-4.05,5.17,0,6.92,3.6,6.92,8.38v3.55c0,5.62.73,6.58,4.5,6.58v1.18H338.11V68c3.54,0,4-.79,4-6.58V58.1c0-3.65-1.29-6-4.21-6s-6.08,2.41-6.08,5.62v3.66c0,5.84.45,6.58,3.55,6.58v1.18h-12Z"></path><path class="cls-2" d="M354.09,59.73c0-5.68,5.12-10.29,11.36-10.29s11.36,4.61,11.36,10.29-5.12,10.35-11.36,10.35S354.09,65.41,354.09,59.73Zm18.16,0c0-4.49-2.13-8.15-6.8-8.15s-6.81,3.66-6.81,8.15,2.2,8.16,6.81,8.16S372.25,64.23,372.25,59.73Z"></path><path class="cls-2" d="M384.4,61.65V58.1c0-5.62-.67-6.58-4.44-6.58V50.4h8.44v11c0,3.65,1.24,6,4.27,6,2.2,0,6.08-2.08,6.08-5.56V58.1c0-5.62-.73-6.58-4.5-6.58V50.4h8.43v11c0,5.34.9,6,3.88,6v1.07l-6.91,1.4a15.77,15.77,0,0,1-.9-3.43c-1.41,1.47-4.11,3.6-7.37,3.6C386.2,70.08,384.4,66.43,384.4,61.65Z"></path><path class="cls-2" d="M412.47,63.62V52.37h-2.92V51c3.37-.73,4.61-3.15,5-6.81h1.92V50.4h4.89v2h-4.89V63.62c0,2.64.73,4,2.53,4a5.93,5.93,0,0,0,3.65-1.91l1,1a8.61,8.61,0,0,1-5.91,3.2C414.61,69.91,412.47,68,412.47,63.62Z"></path><path class="cls-2" d="M439.25,68c4.67,0,5.34-1,5.34-6.58V43.09c0-5.63-.67-6.53-5.34-6.53V35.38H454.1c7.81,0,12.09,4.28,12.09,9.51s-4.28,9.45-12.09,9.45h-5v7c0,5.62.68,6.58,5.34,6.58V69.1H439.25ZM454,52.31c4.89,0,7.14-3.32,7.14-7.42s-2.25-7.43-7.14-7.43h-4.95V52.31Z"></path><path class="cls-2" d="M469,69.13V68c3.71,0,4.44-1,4.44-6.58V58.55c0-5.62-.73-6.52-4.44-6.52V50.85l8.43-1.41V61.37c0,5.62.68,6.58,4.45,6.58v1.18Zm22.44-22.95V50.4h4.83v2h-4.83V63.62c0,2.64.73,4,2.53,4a5.93,5.93,0,0,0,3.65-1.91l.9,1a8.38,8.38,0,0,1-5.9,3.2c-3.1,0-5.18-2-5.18-6.29V52.37h-3V51c3.38-.73,4.5-3.72,4.5-6.3,0-2.76-2-5.85-6.64-5.85a4.26,4.26,0,0,0-4.33,3c-.56,1.18-1.23,2-2.58,2a2.52,2.52,0,0,1-2.48-2.53c0-2.76,3.94-4.16,8.95-4.16C487.73,37.24,491.39,40.84,491.39,46.18Z"></path><path class="cls-2" d="M501.91,60.24c0-6.64,5.45-10.8,10-10.8s6.7,2,6.7,4.05a2.36,2.36,0,0,1-2.3,2.42h-.18a2.19,2.19,0,0,1-2.19-2.21v0c0-1.86-1-2.42-2-2.42-3,0-5.4,3.83-5.4,9,0,4.5,2.2,7.48,6.81,7.48a9.18,9.18,0,0,0,6-2.59l1,1.24A11.47,11.47,0,0,1,512,70.08C505.62,70.08,501.91,65.87,501.91,60.24Z"></path><path class="cls-2" d="M522.1,68c3.77,0,4.44-1,4.44-6.58V43.59c0-5.62-.67-6.58-4.44-6.58V35.83l8.44-1.41V53.49c1.57-1.91,4.1-4.05,7.36-4.05,5.18,0,6.92,3.6,6.92,8.38v3.55c0,5.62.73,6.58,4.5,6.58v1.18H536.84V68c3.54,0,4-.79,4-6.58V58.1c0-3.65-1.29-6-4.22-6s-6.07,2.41-6.07,5.62v3.66c0,5.84.45,6.58,3.54,6.58v1.18h-12Z"></path><path class="cls-2" d="M552.25,68c3.71,0,4.44-1,4.44-6.58V58.55c0-5.62-.73-6.52-4.44-6.52V50.85l8.44-1.41V61.37c0,5.62.67,6.58,4.44,6.58v1.18H552.25Zm3.94-26.55A2.48,2.48,0,1,1,558.66,44a2.48,2.48,0,0,1-2.47-2.53v0Z"></path><path class="cls-2" d="M568.06,68c3.71,0,4.44-1,4.44-6.58V58.55c0-5.62-.73-6.52-4.44-6.52V50.85l7.48-1.41a23.49,23.49,0,0,1,1,4.05,10,10,0,0,1,7.82-4.05c5.06,0,7.31,3.6,7.31,8.38v3.55c0,5.62.68,6.58,4.44,6.58v1.18H583.18V68c3.66,0,4.45-1,4.45-6.58V58.1c0-3.65-1.3-6-4.67-6-3.09,0-6.47,2.53-6.47,5.62v3.66c0,5.79.45,6.58,3.94,6.58v1.18H568.06Z"></path><path class="cls-2" d="M601.47,73.57l1,.62c-4.67,5.23.84,7.76,5.29,7.76,3.48,0,7-1.69,7-4.33s-2.81-3.49-7.54-3.94-8-1.85-8-5.23c0-2,1.8-3.6,4.72-4.5a7.66,7.66,0,0,1-4.72-6.86c0-4.22,3.76-7.65,8.38-7.65a8.66,8.66,0,0,1,5.79,2.14,6.5,6.5,0,0,1,4.22-2.14c3.88,0,4.1,4.61,1.85,4.73-2.47.17-1.07-2.53-3.37-2.53a2.69,2.69,0,0,0-1.74.9A7.27,7.27,0,0,1,616,57.09c0,4.16-3.66,7.14-7.31,7.65-2.48.28-6.3.84-6.3,2.36s3.26,2,5.11,2.14c7.77.62,10.24,3.94,10.24,7.37,0,4.67-4.44,7.53-10,7.53C598.26,84.14,594.55,77.17,601.47,73.57Zm10.18-16.48c0-3.32-1.3-5.85-4-5.85s-4.11,2.53-4.11,5.85,1.35,5.79,4.11,5.79S611.65,60.35,611.65,57.09Z"></path><path class="cls-2" d="M628.05,47.82a4.4,4.4,0,0,1,2.09.54,3.94,3.94,0,0,1,1.59,1.57,4.26,4.26,0,0,1,0,4.24,3.91,3.91,0,0,1-1.58,1.57,4.26,4.26,0,0,1-4.22,0,4,4,0,0,1-1.57-1.57,4.26,4.26,0,0,1,0-4.24A3.94,3.94,0,0,1,626,48.36,4.39,4.39,0,0,1,628.05,47.82Zm0,.53a3.78,3.78,0,0,0-1.82.48,3.4,3.4,0,0,0-1.39,1.37,3.82,3.82,0,0,0-.5,1.86,3.74,3.74,0,0,0,.49,1.85,3.56,3.56,0,0,0,1.38,1.37,3.72,3.72,0,0,0,3.69,0,3.56,3.56,0,0,0,1.38-1.37,3.72,3.72,0,0,0,0-3.71,3.34,3.34,0,0,0-1.39-1.37A3.79,3.79,0,0,0,628.05,48.35Zm-2.27,1.24H628a3,3,0,0,1,1.52.27,1.2,1.2,0,0,1,.34,1.8,1.54,1.54,0,0,1-.81.48l.82,1.5a1.64,1.64,0,0,0,.38.48.45.45,0,0,0,.26.11v.2H629l-1.22-2.2h-.28v1.19a1,1,0,0,0,.14.65.83.83,0,0,0,.58.16v.2h-2.53v-.2a.68.68,0,0,0,.48-.12,1.13,1.13,0,0,0,.15-.69V50.59a1.16,1.16,0,0,0-.11-.62.6.6,0,0,0-.43-.17Zm1.72,2.34.34,0a.87.87,0,0,0,.67-.3,1.05,1.05,0,0,0,.28-.78,1,1,0,0,0-.26-.76,1.06,1.06,0,0,0-.8-.26h-.23Z"></path></svg> 